<?xml version="1.0" encoding="utf-8"?>
<!-- Generator: Adobe Illustrator 24.1.1, SVG Export Plug-In . SVG Version: 6.00 Build 0)  -->
<svg version="1.1" id="Layer_1" xmlns="http://www.w3.org/2000/svg" xmlns:xlink="http://www.w3.org/1999/xlink" x="0px" y="0px"
	 viewBox="0 0 62.6 62.6" style="enable-background:new 0 0 62.6 62.6;" xml:space="preserve">
<style type="text/css">
	.st0{fill:#082E58;}
	.st1{fill:#082E58;stroke:#FFFFFF;stroke-width:0.996;stroke-miterlimit:10;}
</style>
<g transform="translate(-521 -489.502)">
	<path class="st0" d="M571.1,507.8h-37.6V538h37.6l0-0.4h0.1V507.8z M535.2,516.3h34.3v19.6h-34.3L535.2,516.3z"/>
	<rect x="550.4" y="518.6" class="st0" width="3.9" height="4.3"/>
	<rect x="556.1" y="518.6" class="st0" width="3.9" height="4.3"/>
	<rect x="561.8" y="524.1" class="st0" width="3.9" height="4.3"/>
	<rect x="561.8" y="529.6" class="st0" width="3.9" height="4.3"/>
	<rect x="539.2" y="524.1" class="st0" width="3.9" height="4.3"/>
	<rect x="544.6" y="524.1" class="st0" width="3.9" height="4.3"/>
	<rect x="550.4" y="524.1" class="st0" width="3.9" height="4.3"/>
	<rect x="556.1" y="524.1" class="st0" width="3.9" height="4.3"/>
	<rect x="544.6" y="529.6" class="st0" width="3.9" height="4.3"/>
	<rect x="550.4" y="529.6" class="st0" width="3.9" height="4.3"/>
	<rect x="556.1" y="529.6" class="st0" width="3.9" height="4.3"/>
	<rect x="540.6" y="504.1" class="st1" width="3.7" height="6.3"/>
	<rect x="559.9" y="504.1" class="st1" width="3.7" height="6.3"/>
</g>
<path class="st0" d="M53.9,9.5c0.2-0.4,0.3-0.9,0.3-1.3c0-1.8-1.5-3.3-3.4-3.2c-0.6,0-1.2,0.2-1.8,0.5C34.8-4.4,15.3-0.7,5.5,13.6
	c-8.9,13-6.8,30.5,4.9,41.1c-0.1,0.3-0.2,0.7-0.2,1.1c0,2.1,1.8,3.8,3.9,3.8c0.8,0,1.5-0.2,2.1-0.6c15.2,8.3,34.3,2.8,42.6-12.4
	C65.6,34.3,63.5,19.4,53.9,9.5z M16.9,56.3c-0.2,0.9-0.9,1.6-1.7,1.9h0c-0.3,0.1-0.7,0.2-1.1,0.2c-1.5,0-2.8-1.2-2.8-2.7
	c0-0.1,0-0.2,0-0.2c0.1-0.9,0.6-1.7,1.4-2.1c0.4-0.2,0.9-0.4,1.4-0.4c1.5,0,2.8,1.2,2.8,2.7c0,0,0,0,0,0C17,55.9,17,56.1,16.9,56.3z
	 M31.4,60.3c-4.7,0-9.4-1.2-13.5-3.4c0.1-0.4,0.2-0.8,0.2-1.2c0-2.1-1.8-3.8-3.9-3.7c-0.8,0-1.6,0.2-2.2,0.7
	C0.2,41.8-0.6,23.5,10.3,11.7c5.4-5.9,13.1-9.3,21.1-9.3c5.8,0,11.4,1.7,16.2,5c-0.1,0.2-0.1,0.5-0.1,0.8c0,1.8,1.5,3.3,3.4,3.2
	c0,0,0,0,0,0c0.4,0,0.8-0.1,1.2-0.2C63.2,22.7,62.9,41,51.4,52.1C46,57.3,38.9,60.2,31.4,60.3L31.4,60.3z"/>
</svg>
