<svg xmlns="http://www.w3.org/2000/svg" width="62.801" height="62.845" viewBox="0 0 62.801 62.845"><defs><style>.a{fill:#082e58;}.b{fill:none;}.b,.c{stroke:#fff;stroke-miterlimit:10;stroke-width:0.5px;}.c{fill:#082e57;}</style></defs><g transform="translate(-925 -470)"><g transform="translate(804.947 449.149)"><path class="a" d="M164.5,70.065H141.1V58.347a6.99,6.99,0,0,1,6.99-6.99s1.367,1.237,4.659,1.237,4.761-1.237,4.761-1.237a6.991,6.991,0,0,1,6.99,6.99Z"/><circle class="a" cx="9.421" cy="9.421" r="9.421" transform="translate(143.177 32.082)"/><path class="b" d="M151.532,58.393l.169,1.638.844-.074a4.7,4.7,0,0,0,.934,1.828l-.548.669,1.288,1.052.526-.644a4.305,4.305,0,0,0,1.969.635l.1.842,1.639-.17-.1-.818a4.246,4.246,0,0,0,1.85-.959l.669.548,1.029-1.287-.644-.526a4.227,4.227,0,0,0,.564-1.965l.913-.1-.146-1.64-.889.1a4.855,4.855,0,0,0-.955-1.779l.591-.743-1.263-1.03-.616.72a4.46,4.46,0,0,0-2.015-.609l-.063-.655-1.64.146.066.7a4.567,4.567,0,0,0-1.644.853l-.742-.591L152.364,55.8l.719.592a4.738,4.738,0,0,0-.638,1.922Zm5.368-1.972a2.388,2.388,0,1,1,.475,4.752,2.388,2.388,0,0,1-.475-4.752Z"/><path class="c" d="M161.711,63.419l.17,1.638.843-.075a4.684,4.684,0,0,0,.935,1.828l-.549.669,1.288,1.053.527-.644a4.313,4.313,0,0,0,1.969.635l.1.841,1.638-.169-.1-.818a4.244,4.244,0,0,0,1.849-.96l.669.549,1.03-1.287-.645-.526A4.216,4.216,0,0,0,172,64.187l.912-.1-.146-1.639-.889.1a4.863,4.863,0,0,0-.955-1.779l.591-.742-1.263-1.031-.616.72a4.468,4.468,0,0,0-2.015-.608l-.063-.656-1.639.146.065.7a4.565,4.565,0,0,0-1.644.852l-.742-.591-1.054,1.265.719.592a4.728,4.728,0,0,0-.638,1.923Zm5.369-1.973a2.388,2.388,0,1,1,.475,4.752,2.388,2.388,0,0,1-.475-4.752Z"/><g transform="translate(-4)"><path class="a" d="M177.991,30.426a3.129,3.129,0,0,0,.294-1.327,3.312,3.312,0,0,0-3.371-3.238,3.4,3.4,0,0,0-1.757.481,31.394,31.394,0,0,0-38.691,49.275,3.618,3.618,0,0,0-.156,1.057,3.835,3.835,0,0,0,3.909,3.755,3.908,3.908,0,0,0,2.126-.619,31.4,31.4,0,0,0,37.646-49.384ZM140.977,77.281a2.745,2.745,0,0,1-1.7,1.916h-.006a2.724,2.724,0,0,1-1.051.2,2.78,2.78,0,0,1-2.833-2.721.832.832,0,0,1,.018-.246,2.7,2.7,0,0,1,1.408-2.109,2.806,2.806,0,0,1,1.407-.366,2.77,2.77,0,0,1,2.833,2.709A2.583,2.583,0,0,1,140.977,77.281Zm14.473,3.928a28.445,28.445,0,0,1-13.51-3.382,3.276,3.276,0,0,0,.194-1.153,3.839,3.839,0,0,0-3.915-3.748,3.965,3.965,0,0,0-2.233.673A28.962,28.962,0,0,1,155.45,23.338a28.559,28.559,0,0,1,16.187,5.01,2.956,2.956,0,0,0-.094.751,3.3,3.3,0,0,0,3.371,3.237,3.42,3.42,0,0,0,1.195-.21A28.949,28.949,0,0,1,155.45,81.209Z"/></g></g></g></svg>