<svg id="Layer_1" data-name="Layer 1" xmlns="http://www.w3.org/2000/svg" viewBox="0 0 62.8 62.85"><defs><style>.cls-1{fill:#1c3c6a;}.cls-2{font-size:18px;fill:#1c3a69;font-family:Arial-Black, Arial;font-weight:800;}.cls-3{letter-spacing:-0.09em;}.cls-4{letter-spacing:-0.02em;}</style></defs><g id="Group_451" data-name="Group 451"><g id="Group_37" data-name="Group 37"><g id="Group_36" data-name="Group 36"><g id="Group_32" data-name="Group 32"><path class="cls-1" d="M53.94,9.58a3.15,3.15,0,0,0,.29-1.33A3.31,3.31,0,0,0,50.86,5a3.42,3.42,0,0,0-1.76.48A31.11,31.11,0,0,0,31.4,0a31.41,31.41,0,0,0-21,54.77,3.75,3.75,0,0,0-.15,1,3.83,3.83,0,0,0,3.91,3.76A3.89,3.89,0,0,0,16.29,59,31.4,31.4,0,0,0,53.94,9.58Zm-37,46.85a2.73,2.73,0,0,1-1.7,1.92h0a2.68,2.68,0,0,1-1.05.19,2.78,2.78,0,0,1-2.84-2.72,1,1,0,0,1,0-.24,2.69,2.69,0,0,1,1.41-2.11,2.85,2.85,0,0,1,1.41-.37A2.78,2.78,0,0,1,17,55.81,2.57,2.57,0,0,1,16.92,56.43ZM31.4,60.36A28.55,28.55,0,0,1,17.89,57a3.32,3.32,0,0,0,.19-1.16,3.84,3.84,0,0,0-3.91-3.75,4,4,0,0,0-2.24.68A29,29,0,0,1,31.4,2.49a28.52,28.52,0,0,1,16.18,5,3.08,3.08,0,0,0-.09.75,3.31,3.31,0,0,0,3.37,3.24,3.64,3.64,0,0,0,1.2-.21A28.95,28.95,0,0,1,31.4,60.36Z"/></g></g></g></g><text class="cls-2" transform="translate(6.66 37.8)"><tspan class="cls-3">F</tspan><tspan class="cls-4" x="10.31" y="0">A</tspan><tspan x="23.97" y="0">Qs</tspan></text></svg>