<svg id="Layer_1" data-name="Layer 1" xmlns="http://www.w3.org/2000/svg" viewBox="0 0 64 64"><defs><style>.cls-1{fill:#1c3c6a;}.cls-2{fill:none;stroke:#1c3a69;stroke-miterlimit:10;stroke-width:1.68px;}.cls-3{fill:#1c3a69;}</style></defs><g id="Group_451" data-name="Group 451"><g id="Group_37" data-name="Group 37"><g id="Group_36" data-name="Group 36"><g id="Group_32" data-name="Group 32"><path class="cls-1" d="M54.54,10.15a3.08,3.08,0,0,0,.29-1.33,3.31,3.31,0,0,0-3.37-3.23,3.42,3.42,0,0,0-1.76.48A31.11,31.11,0,0,0,32,.58,31.4,31.4,0,0,0,11,55.34a3.88,3.88,0,0,0-.15,1.06,3.83,3.83,0,0,0,3.91,3.75,4,4,0,0,0,2.12-.61A31.4,31.4,0,0,0,54.54,10.15ZM17.52,57a2.72,2.72,0,0,1-1.7,1.91h0a2.52,2.52,0,0,1-1.05.2,2.78,2.78,0,0,1-2.84-2.72,1.1,1.1,0,0,1,0-.25,2.67,2.67,0,0,1,1.41-2.1,2.84,2.84,0,0,1,4.24,2.34A2.64,2.64,0,0,1,17.52,57ZM32,60.94a28.44,28.44,0,0,1-13.51-3.39,3.23,3.23,0,0,0,.19-1.15,3.85,3.85,0,0,0-3.91-3.75,4.12,4.12,0,0,0-2.24.67A29,29,0,0,1,32,3.06a28.52,28.52,0,0,1,16.18,5,3.14,3.14,0,0,0-.09.75,3.3,3.3,0,0,0,3.37,3.24,3.4,3.4,0,0,0,1.2-.21A29,29,0,0,1,32,60.94Z"/></g></g></g></g><line class="cls-2" x1="21.51" y1="40.63" x2="36.89" y2="40.63"/><polygon class="cls-3" points="42.38 32.86 42.38 44.02 19.84 44.02 19.84 21.49 31.43 21.49 31.43 19.81 18.16 19.81 18.16 45.7 44.05 45.7 44.05 32.86 42.38 32.86"/><polygon class="cls-3" points="45.84 21.91 33.22 34.61 30.98 35.11 28.75 35.59 29.23 33.37 29.72 31.12 29.7 31.11 42.33 18.42 45.84 21.91"/></svg>