<?xml version="1.0" encoding="utf-8"?>
<!-- Generator: Adobe Illustrator 24.1.1, SVG Export Plug-In . SVG Version: 6.00 Build 0)  -->
<svg version="1.1" id="Layer_1" xmlns="http://www.w3.org/2000/svg" xmlns:xlink="http://www.w3.org/1999/xlink" x="0px" y="0px"
	 viewBox="0 0 62.6 62.6" style="enable-background:new 0 0 62.6 62.6;" xml:space="preserve">
<style type="text/css">
	.st0{fill:#082E58;}
</style>
<g transform="translate(-795 -490)">
	<g transform="translate(568.364 407.43)">
		<path class="st0" d="M257.2,112.4c0,0,5.8-5.2,9.2,1.4c1.9,7.6-5.6,11.5-9.3,14.1c-5.3-4.1-9.3-7.2-9.1-12.2
			C248,115.7,248.5,107.9,257.2,112.4z"/>
	</g>
	<g transform="translate(568.364 407.43)">
		<circle class="st0" cx="256.9" cy="104.8" r="5"/>
	</g>
	<g transform="translate(568.364 407.43)">
		<path class="st0" d="M258,133.9c-9.9,0-18.4-5.8-20.6-14.2l2.3-0.6c1.9,7.2,9.6,12.4,18.3,12.4c10.4,0,18.8-7.1,18.8-15.9h2.4
			C279.1,125.6,269.6,133.9,258,133.9z"/>
		<path class="st0" d="M274.4,116.6l3.6-6.2l3.6,6.2H274.4z"/>
	</g>
	<g transform="translate(568.364 407.43)">
		<path class="st0" d="M277.9,112.2"/>
	</g>
	<g transform="translate(568.364 407.43)">
		<path class="st0" d="M239.2,112.2h-2.4c0-10.1,9.5-18.3,21.2-18.3c9.9,0,18.6,6.1,20.7,14.4l-2.3,0.6c-1.8-7.3-9.6-12.6-18.4-12.6
			C247.6,96.3,239.2,103.5,239.2,112.2z"/>
		<path class="st0" d="M241.5,111.2l-3.6,6.2l-3.6-6.2H241.5z"/>
	</g>
</g>
<path class="st0" d="M53.2,10c0.2-0.4,0.3-0.8,0.3-1.3c0-1.7-1.5-3.1-3.2-3.1c-0.6,0-1.2,0.2-1.7,0.5C34.9-3.2,16.3,0.3,7,14
	c-8.5,12.4-6.4,29.1,4.7,39.1c-0.1,0.3-0.1,0.7-0.1,1c0,2,1.7,3.6,3.7,3.6c0.7,0,1.4-0.2,2-0.6C31.8,65.1,50,59.8,58,45.3
	C64.3,33.7,62.3,19.5,53.2,10z M17.9,54.7c-0.2,0.8-0.8,1.5-1.6,1.8h0c-0.3,0.1-0.7,0.2-1,0.2c-1.5,0-2.7-1.1-2.7-2.6
	c0-0.1,0-0.2,0-0.2c0.1-0.9,0.6-1.6,1.3-2c0.4-0.2,0.9-0.4,1.3-0.3c1.5,0,2.7,1.1,2.7,2.6c0,0,0,0,0,0C18,54.3,18,54.5,17.9,54.7z
	 M31.7,58.4c-4.5,0-8.9-1.1-12.9-3.2c0.1-0.4,0.2-0.7,0.2-1.1c0-2-1.7-3.6-3.7-3.6c-0.8,0-1.5,0.2-2.1,0.6
	C2,40.9,1.2,23.4,11.6,12.2c5.2-5.6,12.5-8.9,20.2-8.9c5.5,0,10.9,1.7,15.4,4.8c-0.1,0.2-0.1,0.5-0.1,0.7c0,1.7,1.5,3.1,3.2,3.1
	c0,0,0,0,0,0c0.4,0,0.8-0.1,1.1-0.2c10.6,10.9,10.3,28.4-0.6,39C45.7,55.6,38.8,58.4,31.7,58.4L31.7,58.4z"/>
</svg>
