<svg id="Layer_1" data-name="Layer 1" xmlns="http://www.w3.org/2000/svg" viewBox="0 0 62.8 62.85"><defs><style>.cls-1{fill:#1c3c6a;}.cls-2{fill:none;stroke:#1c3c6a;stroke-miterlimit:10;stroke-width:2.13px;}</style></defs><polygon class="cls-1" points="30.93 30.5 20.62 25.12 30.93 20.28 41.25 25.12 30.93 30.5"/><polygon class="cls-1" points="31.08 35.28 30.98 35.23 22.77 31.06 22.68 28.33 31 32.55 37.61 29.12 37.69 31.66 31.16 35.24 31.08 35.28"/><polygon class="cls-1" points="39.78 34.82 39.21 35.54 38.53 34.87 38.89 33.66 38.89 27.2 39.43 26.91 39.43 33.65 39.78 34.82"/><g id="Group_451" data-name="Group 451"><g id="Group_37" data-name="Group 37"><g id="Group_36" data-name="Group 36"><g id="Group_32" data-name="Group 32"><path class="cls-1" d="M53.94,9.58a3.15,3.15,0,0,0,.29-1.33A3.31,3.31,0,0,0,50.86,5a3.42,3.42,0,0,0-1.76.48A31.11,31.11,0,0,0,31.4,0a31.41,31.41,0,0,0-21,54.77,3.75,3.75,0,0,0-.15,1,3.83,3.83,0,0,0,3.91,3.76A3.89,3.89,0,0,0,16.29,59,31.4,31.4,0,0,0,53.94,9.58Zm-37,46.85a2.73,2.73,0,0,1-1.7,1.92h0a2.68,2.68,0,0,1-1.05.19,2.78,2.78,0,0,1-2.84-2.72,1,1,0,0,1,0-.24,2.69,2.69,0,0,1,1.41-2.11,2.85,2.85,0,0,1,1.41-.37A2.78,2.78,0,0,1,17,55.81,2.57,2.57,0,0,1,16.92,56.43ZM31.4,60.36A28.55,28.55,0,0,1,17.89,57a3.32,3.32,0,0,0,.19-1.16,3.84,3.84,0,0,0-3.91-3.75,4,4,0,0,0-2.24.68A29,29,0,0,1,31.4,2.49a28.52,28.52,0,0,1,16.18,5,3.08,3.08,0,0,0-.09.75,3.31,3.31,0,0,0,3.37,3.24,3.64,3.64,0,0,0,1.2-.21A28.95,28.95,0,0,1,31.4,60.36Z"/></g></g></g></g><rect class="cls-2" x="12.06" y="16.16" width="37.53" height="25.91" rx="1.07"/><rect class="cls-1" x="12.5" y="38.25" width="36.16" height="3.57"/><rect class="cls-1" x="26.38" y="41.11" width="8.04" height="6.4"/><rect class="cls-1" x="19.21" y="47.34" width="23.09" height="1.79" rx="0.19"/></svg>