<svg xmlns="http://www.w3.org/2000/svg" width="100.403" height="104.611" viewBox="0 0 100.403 104.611"><defs><style>.a{fill:#fff;}</style></defs><g transform="translate(-31.118 -31.397)"><g transform="translate(31.118 31.397)"><path class="a" d="M762.832,394.763c0,28.847-22.527,52.313-50.2,52.313a48.3,48.3,0,0,1-24.156-6.467c-.587-.338-1.158-.675-1.715-1.027a4.5,4.5,0,0,0,2.728-3.183c.5.323,1.027.616,1.539.909a44.223,44.223,0,0,0,21.6,5.632c25.4,0,46.051-21.6,46.051-48.177S738.033,346.6,712.631,346.6s-46.051,21.6-46.051,48.163a49.177,49.177,0,0,0,14.93,35.505c.425.4.865.808,1.32,1.2a4.472,4.472,0,0,0-2.259,3.506c-.5-.426-1.013-.88-1.5-1.349a53.176,53.176,0,0,1-16.647-38.865c0-28.833,22.527-52.3,50.2-52.3S762.832,365.929,762.832,394.763Z" transform="translate(-662.429 -342.464)"/><g transform="translate(75.922 8.334)"><ellipse class="a" cx="5.391" cy="5.391" rx="5.391" ry="5.391"/></g><g transform="translate(16.397 86.676)"><path class="a" d="M678.18,392.7a6.133,6.133,0,0,0-3.563,1.128c.424.4.865.808,1.32,1.2a4.333,4.333,0,0,1,2.243-.616,4.536,4.536,0,0,1,4.533,4.533,4.594,4.594,0,0,1-.117,1.011c.5.323,1.027.616,1.539.909a5.922,5.922,0,0,0,.309-1.92A6.265,6.265,0,0,0,678.18,392.7Zm0,10.779a4.543,4.543,0,0,1-4.531-4.531,1.867,1.867,0,0,1,.029-.411c-.5-.426-1.013-.88-1.5-1.349a6.256,6.256,0,0,0,6,8.008,6.081,6.081,0,0,0,3.4-1.027c-.587-.338-1.158-.675-1.715-1.027A4.294,4.294,0,0,1,678.18,403.478Z" transform="translate(-671.932 -392.699)"/></g></g><g transform="translate(56.205 56.36)"><g transform="translate(0 17.848)"><rect class="a" width="47.954" height="35.184" rx="1.832"/></g><g transform="translate(7.958)"><path class="a" d="M681.664,375.3c-.038-.349-.894-8.584,3.915-13.96,2.621-2.926,6.286-4.412,10.9-4.412,5.007,0,9.019,1.565,11.921,4.655,5.017,5.337,4.59,13.236,4.57,13.57l-6.016-.373c0-.045.267-5.683-2.966-9.095-1.743-1.839-4.2-2.731-7.509-2.731-2.862,0-4.957.787-6.4,2.4-2.983,3.335-2.422,9.215-2.416,9.274Z" transform="translate(-681.581 -356.932)"/></g></g></g></svg>