<?xml version="1.0" encoding="utf-8"?>
<!-- Generator: Adobe Illustrator 24.1.1, SVG Export Plug-In . SVG Version: 6.00 Build 0)  -->
<svg version="1.1" id="Layer_1" xmlns="http://www.w3.org/2000/svg" xmlns:xlink="http://www.w3.org/1999/xlink" x="0px" y="0px"
	 viewBox="0 0 62.6 62.6" style="enable-background:new 0 0 62.6 62.6;" xml:space="preserve">
<style type="text/css">
	.st0{fill:#082E58;}
	.st1{fill:#FFFFFF;}
</style>
<g transform="translate(-1066 -490)">
	<g transform="translate(1066 495.684)">
		<path class="st0" d="M30.5,42.1c-6.9-1.8-13.1-2.1-18.1,0V13c3.9-2,10.5-1.4,18.1,0V42.1z"/>
	</g>
	<g transform="translate(1093.495 496.109)">
		<path class="st0" d="M22.7,41.7c-4.6-2-10.7-1.9-18.1,0V12.6c7.5-1.3,13.6-1.4,18.1,0V41.7z"/>
	</g>
	<g transform="translate(1069.315 490)">
		<path class="st0" d="M27.8,47.9c-6.5-3.5-10.2-5.2-15.7-3.6v-29c8.2-2.6,11.6-1.2,15.7,3.2V47.9z"/>
		<path class="st1" d="M28.5,48.9l-0.9-0.5c-6.6-3.6-10.1-5.1-15.2-3.6l-0.8,0.2V14.8l0.4-0.1c8.7-2.7,12.3-1,16.4,3.4l0.2,0.2V48.9
			z M16.1,43c3.7,0,6.9,1.5,11.1,3.8v-28c-3.7-4-6.8-5.4-14.4-3v27.7C13.9,43.1,15,43,16.1,43z"/>
	</g>
	<g transform="translate(1091.4 491.069)">
		<path class="st0" d="M21.6,42.6C17.2,41,11.9,42.7,5.9,47V17.8c3.8-3,9.5-3.9,15.7-4.1V42.6z"/>
		<path class="st1" d="M5.2,48.2V17.5l0.2-0.2c4.4-3.4,10.9-4.1,16.1-4.3l0.7,0v30.5l-0.9-0.3c-4-1.5-9,0-15.1,4.3L5.2,48.2z
			 M6.5,18.1v27.6c5.7-3.8,10.4-5.2,14.4-4.1V14.4C16.1,14.6,10.4,15.2,6.5,18.1z"/>
	</g>
</g>
<path class="st0" d="M53.7,10.2c0.2-0.4,0.3-0.8,0.3-1.3c0-1.8-1.5-3.2-3.3-3.1c-0.6,0-1.2,0.2-1.7,0.5c-13.9-9.5-32.8-5.9-42.3,8
	C-1.9,26.8,0.1,43.8,11.5,54c-0.1,0.3-0.2,0.7-0.2,1c0,2.1,1.7,3.7,3.8,3.6c0.7,0,1.4-0.2,2.1-0.6c14.7,8.1,33.2,2.7,41.3-12.1
	C64.9,34.3,62.9,19.8,53.7,10.2z M17.8,55.6c-0.2,0.9-0.8,1.5-1.6,1.9h0c-0.3,0.1-0.7,0.2-1,0.2c-1.5,0-2.7-1.2-2.7-2.6
	c0-0.1,0-0.2,0-0.2c0.1-0.9,0.6-1.6,1.4-2c0.4-0.2,0.9-0.4,1.4-0.4c1.5,0,2.7,1.1,2.7,2.6c0,0,0,0,0,0
	C17.9,55.2,17.8,55.4,17.8,55.6z M31.8,59.4c-4.6,0-9.1-1.1-13.1-3.3c0.1-0.4,0.2-0.7,0.2-1.1c0-2-1.7-3.7-3.8-3.6
	c-0.8,0-1.5,0.2-2.2,0.7C1.6,41.6,0.8,23.8,11.3,12.4c5.3-5.7,12.7-9,20.5-9c5.6,0,11.1,1.7,15.7,4.9c-0.1,0.2-0.1,0.5-0.1,0.7
	c0,1.8,1.5,3.2,3.3,3.1c0,0,0,0,0,0c0.4,0,0.8-0.1,1.2-0.2C62.6,23,62.3,40.8,51.2,51.5C46,56.6,39,59.4,31.8,59.4L31.8,59.4z"/>
</svg>
