<svg id="Layer_1" data-name="Layer 1" xmlns="http://www.w3.org/2000/svg" viewBox="0 0 112.53 117.47"><defs><style>.cls-1,.cls-2{fill:#502e7e;}.cls-2{stroke:#fff;stroke-miterlimit:10;stroke-width:2px;}.cls-3{fill:#fff;}</style></defs><g id="Group_500" data-name="Group 500"><g id="Group_498" data-name="Group 498"><g id="Group_20-2" data-name="Group 20-2"><g id="Group_16-2" data-name="Group 16-2"><path id="Path_62-2" data-name="Path 62-2" class="cls-1" d="M104.72,58.48c0,28.84-22.53,52.31-50.2,52.31a48.28,48.28,0,0,1-24.15-6.47c-.59-.33-1.16-.67-1.72-1a4.47,4.47,0,0,0,2.73-3.18c.5.33,1,.62,1.54.91a44.27,44.27,0,0,0,21.6,5.63c25.4,0,46-21.6,46-48.17s-20.65-48.17-46-48.17S8.47,31.91,8.47,58.48A49.15,49.15,0,0,0,23.4,94c.42.4.86.81,1.32,1.2a4.48,4.48,0,0,0-2.26,3.51c-.5-.43-1-.88-1.5-1.35A53.2,53.2,0,0,1,4.31,58.47c0-28.83,22.53-52.3,50.2-52.3S104.72,29.64,104.72,58.48Z"/></g><g id="Group_17-2" data-name="Group 17-2"><circle id="Ellipse_7-2" data-name="Ellipse 7-2" class="cls-1" cx="85.63" cy="19.9" r="5.39"/></g><g id="Group_19-2" data-name="Group 19-2"><g id="Group_18-2" data-name="Group 18-2"><path id="Path_63-2" data-name="Path 63-2" class="cls-1" d="M27,92.85A6.15,6.15,0,0,0,23.4,94c.42.4.86.81,1.32,1.2A4.31,4.31,0,0,1,27,94.57a4.55,4.55,0,0,1,4.42,5.54c.5.32,1,.62,1.54.91a6,6,0,0,0,.3-1.92A6.27,6.27,0,0,0,27,92.85Zm0,10.78a4.54,4.54,0,0,1-4.53-4.53,1.42,1.42,0,0,1,0-.41c-.5-.42-1-.88-1.5-1.35a6.25,6.25,0,0,0,4.26,7.76,6.14,6.14,0,0,0,5.14-.78c-.59-.33-1.16-.67-1.72-1A4.2,4.2,0,0,1,27,103.63Z"/></g></g></g></g></g><rect class="cls-1" x="36.73" y="60.41" width="52.56" height="9.34" transform="translate(-25.85 82.7) rotate(-57.14)"/><polygon class="cls-1" points="43.88 86.08 51.73 91.15 42.93 96.17 43.88 86.08"/><path class="cls-1" d="M76.18,33h8.29a1,1,0,0,1,1,1v7a1.24,1.24,0,0,1-1.24,1.24h-8.1a0,0,0,0,1,0,0V33A0,0,0,0,1,76.18,33Z" transform="translate(5.13 84.89) rotate(-56.93)"/><rect class="cls-1" x="81.44" y="45.12" width="4.43" height="1.82" transform="translate(38.67 -38.19) rotate(33.07)"/><rect class="cls-1" x="70.79" y="53.14" width="18.39" height="1.82" transform="translate(168.93 16.5) rotate(123.07)"/><ellipse class="cls-2" cx="42.14" cy="56.85" rx="21.93" ry="22.11" transform="translate(-0.67 0.51) rotate(-0.68)"/><path class="cls-3" d="M41.33,68.1l0-2.83A8,8,0,0,1,37,64.09l.64-1.88a7.35,7.35,0,0,0,4,1.15c2,0,3.29-1.18,3.27-2.78s-1.11-2.48-3.17-3.29c-2.85-1.09-4.61-2.36-4.64-4.79a4.57,4.57,0,0,1,4.14-4.56l0-2.83,1.72,0,0,2.72a7.27,7.27,0,0,1,3.62.94L46,50.6a6.71,6.71,0,0,0-3.51-.91c-2.14,0-2.93,1.32-2.92,2.44,0,1.46,1.06,2.18,3.48,3.15,2.88,1.15,4.34,2.58,4.37,5.08a4.86,4.86,0,0,1-4.33,4.81l0,2.91Z"/></svg>