<svg xmlns="http://www.w3.org/2000/svg" width="62.802" height="62.845" viewBox="0 0 62.802 62.845"><defs><style>.a{fill:#082e58;}</style></defs><g transform="translate(-225.716 -20.851)"><path class="a" d="M252.188,62.925l-.092-1.2c-.275-2.483.552-5.2,2.851-7.956,2.069-2.437,3.219-4.231,3.219-6.3,0-2.346-1.472-3.909-4.368-3.956a8.173,8.173,0,0,0-4.645,1.427l-1.1-2.9a12.056,12.056,0,0,1,6.575-1.839c5.289,0,7.68,3.265,7.68,6.759,0,3.128-1.747,5.381-3.954,8-2.024,2.393-2.76,4.415-2.621,6.761l.045,1.2Zm-1.011,6.437a2.719,2.719,0,0,1,2.759-2.9,2.878,2.878,0,1,1-2.759,2.9Z"/><path class="a" d="M246.642,39.484a11.285,11.285,0,0,1,8.232-3.217c7.226,0,12.213,4.987,12.213,12.213a11.668,11.668,0,0,1-4.234,9.374l1.051,1.1a13.828,13.828,0,0,0-9.03-24.314,13.23,13.23,0,0,0-9.191,3.521Z"/><path class="a" d="M279.655,30.426a3.129,3.129,0,0,0,.294-1.327,3.312,3.312,0,0,0-3.371-3.238,3.409,3.409,0,0,0-1.758.481,31.394,31.394,0,0,0-38.69,49.275,3.618,3.618,0,0,0-.156,1.057,3.835,3.835,0,0,0,3.909,3.755,3.913,3.913,0,0,0,2.126-.619,31.4,31.4,0,0,0,37.646-49.384ZM242.641,77.281a2.749,2.749,0,0,1-1.7,1.916h-.007a2.719,2.719,0,0,1-1.05.2,2.78,2.78,0,0,1-2.834-2.721.834.834,0,0,1,.019-.246,2.7,2.7,0,0,1,1.407-2.109,2.81,2.81,0,0,1,1.408-.366,2.77,2.77,0,0,1,2.833,2.709A2.583,2.583,0,0,1,242.641,77.281Zm14.473,3.928a28.442,28.442,0,0,1-13.51-3.382,3.322,3.322,0,0,0,.194-1.153,3.84,3.84,0,0,0-3.915-3.748,3.963,3.963,0,0,0-2.233.673,28.962,28.962,0,0,1,19.464-50.261,28.554,28.554,0,0,1,16.186,5.01,3,3,0,0,0-.093.751,3.3,3.3,0,0,0,3.371,3.237,3.415,3.415,0,0,0,1.194-.21,28.948,28.948,0,0,1-20.658,49.083Z"/></g></svg>