<svg xmlns="http://www.w3.org/2000/svg" width="100.403" height="104.613" viewBox="0 0 100.403 104.613"><defs><style>.a{fill:#fff;}</style></defs><g transform="translate(-31.117 -31.396)"><g transform="translate(52.138 70.539)"><path class="a" d="M864.989,390.877H858.61a1.647,1.647,0,0,0,.388.04h6.039a1.079,1.079,0,0,0,.678-.238A1.367,1.367,0,0,1,864.989,390.877ZM841.122,366.8a15.871,15.871,0,0,0-9.638-1.127l-9.019,1.755H818.34a1.546,1.546,0,0,0-.061-.438v22.184a1.923,1.923,0,0,0,.061-.488v-.021a4.2,4.2,0,0,1,1.415.718l.528.409a3.538,3.538,0,0,0,3.528,3.149,1.885,1.885,0,0,0,.24-.01,3.543,3.543,0,0,0,3.516,3.109,1.838,1.838,0,0,0,.24-.01,3.542,3.542,0,0,0,3.518,3.109c.079,0,.159,0,.248-.009a3.527,3.527,0,0,0,3.508,3.109,1.927,1.927,0,0,0,.35-.021,3.494,3.494,0,0,0,2.4-1.275l.906-1.1a3.654,3.654,0,0,0,.607-1.068,3.582,3.582,0,0,0,1.734.44h.05a3.7,3.7,0,0,0,2.6-1.127,3.445,3.445,0,0,0,.808-1.266l.388.38a3.679,3.679,0,0,0,2.571,1.046,3.677,3.677,0,0,0,3.529-2.571,3.657,3.657,0,0,0,1.644.388,3.691,3.691,0,0,0,3.7-3.746,3.648,3.648,0,0,0-1.116-2.6l-.778-.757,2.293-1.235v.958a2.341,2.341,0,0,0,.048.449V366.82H841.151C841.141,366.811,841.13,366.811,841.122,366.8Zm-15.387,22.323-.908,1.106a1.323,1.323,0,0,1-1.853.179,1.3,1.3,0,0,1-.18-1.853l.906-1.108a1.337,1.337,0,0,1,.888-.478h.13a1.291,1.291,0,0,1,.837.3A1.308,1.308,0,0,1,825.734,389.124Zm3.767,3.1-.916,1.106a1.324,1.324,0,0,1-1.855.18,1.3,1.3,0,0,1-.468-.9,1.278,1.278,0,0,1,.288-.956l.908-1.106a1.39,1.39,0,0,1,.9-.48h.129a1.305,1.305,0,0,1,.837.3,1.331,1.331,0,0,1,.179,1.853Zm3.756,3.1-.906,1.106a1.3,1.3,0,0,1-.9.469,1.317,1.317,0,0,1-1.435-1.185,1.326,1.326,0,0,1,.3-.968l.906-1.1a1.3,1.3,0,0,1,1.016-.478,1.315,1.315,0,0,1,1.016,2.152Zm3.758,3.1-.908,1.106a1.281,1.281,0,0,1-.887.468,1.3,1.3,0,0,1-.966-.288,1.328,1.328,0,0,1-.179-1.863l.907-1.1a1.277,1.277,0,0,1,.887-.478c.05,0,.09-.01.129-.01a1.3,1.3,0,0,1,.837.309,1.254,1.254,0,0,1,.478.887A1.307,1.307,0,0,1,837.015,398.422Zm16.7-5.033a1.464,1.464,0,0,1-2.072.029l-3.7-3.6a.01.01,0,0,1-.01-.01l-3.658-3.547a1.114,1.114,0,0,0-1.574.021,1.128,1.128,0,0,0,.019,1.584l5.8,5.63a1.466,1.466,0,0,1-2.043,2.1l-5.8-5.63-.029-.031-2.79-2.711a1.117,1.117,0,0,0-1.555,1.6l5.8,5.632a1.474,1.474,0,0,1,.031,2.072,1.521,1.521,0,0,1-1.037.449,1.491,1.491,0,0,1-1.037-.419l-1.624-1.574a1.02,1.02,0,0,0-.119-.1.3.3,0,0,0-.061-.05,3.565,3.565,0,0,0-2.5-.807,3.509,3.509,0,0,0-1.256-2.291,3.592,3.592,0,0,0-2.5-.807,3.505,3.505,0,0,0-1.266-2.293,3.557,3.557,0,0,1-3.756-3.1,3.543,3.543,0,0,0-5,.488l-.906,1.1a2.729,2.729,0,0,0-.219.288,6.288,6.288,0,0,0-2.512-1.037V369.67h4.225a.749.749,0,0,0,.219-.029l9.129-1.774a13.52,13.52,0,0,1,4.643-.11,10.7,10.7,0,0,0-3.149,2.164l-8.461,8.37a3.962,3.962,0,0,0,2.792,6.777,3.89,3.89,0,0,0,1.943-.518l8.869-5h3.061l12.078,11.769a1.464,1.464,0,0,1,.448,1.037A1.4,1.4,0,0,1,853.717,393.389Zm3.05-8.2L852.8,387.33l-7.992-7.783h.787a1.116,1.116,0,1,0,0-2.233h-7.345a1.183,1.183,0,0,0-.549.14l-9.117,5.152a1.725,1.725,0,0,1-2.064-2.73l8.461-8.361a8.465,8.465,0,0,1,5.979-2.462h15.806Z" transform="translate(-808.643 -365.186)"/><rect class="a" width="9.637" height="25.781" rx="0.849" transform="translate(0 0)"/><path class="a" d="M850.252,366.731V389.5a1.449,1.449,0,0,1-.739,1.256,1.367,1.367,0,0,1-.726.2h-6.379a2.218,2.218,0,0,1-1.794-1.743V366.731a1.468,1.468,0,0,1,1.465-1.465h6.708A1.468,1.468,0,0,1,850.252,366.731Z" transform="translate(-792.441 -365.266)"/><path class="a" d="M842.408,380.889h-.33a1.459,1.459,0,0,1-1.465-1.454v-.288A2.218,2.218,0,0,0,842.408,380.889Z" transform="translate(-792.441 -355.197)"/></g><g transform="translate(31.117 31.396)"><path class="a" d="M900.914,394.879c0,28.849-22.527,52.314-50.2,52.314a48.281,48.281,0,0,1-24.156-6.469c-.587-.336-1.158-.675-1.715-1.027a4.5,4.5,0,0,0,2.728-3.183c.5.324,1.027.616,1.539.911a44.241,44.241,0,0,0,21.6,5.63c25.4,0,46.051-21.6,46.051-48.177s-20.65-48.163-46.051-48.163-46.051,21.6-46.051,48.163a49.178,49.178,0,0,0,14.93,35.507c.424.4.864.806,1.32,1.2a4.468,4.468,0,0,0-2.259,3.5c-.5-.424-1.013-.88-1.5-1.349a53.174,53.174,0,0,1-16.647-38.865c0-28.833,22.527-52.3,50.2-52.3S900.914,366.046,900.914,394.879Z" transform="translate(-800.511 -342.58)"/><g transform="translate(75.923 8.334)"><ellipse class="a" cx="5.391" cy="5.391" rx="5.391" ry="5.391"/></g><g transform="translate(16.397 86.676)"><path class="a" d="M816.262,392.815a6.122,6.122,0,0,0-3.563,1.13c.424.4.864.806,1.32,1.2a4.316,4.316,0,0,1,2.243-.616,4.518,4.518,0,0,1,4.415,5.542c.5.324,1.027.616,1.539.911a5.938,5.938,0,0,0,.309-1.922A6.265,6.265,0,0,0,816.262,392.815Zm0,10.78a4.544,4.544,0,0,1-4.531-4.533,1.864,1.864,0,0,1,.029-.411c-.5-.424-1.013-.88-1.5-1.349a6.256,6.256,0,0,0,6,8.008,6.067,6.067,0,0,0,3.4-1.027c-.587-.336-1.158-.675-1.715-1.027A4.264,4.264,0,0,1,816.262,403.6Z" transform="translate(-810.014 -392.815)"/></g></g></g></svg>