<svg xmlns="http://www.w3.org/2000/svg" width="101.403" height="107.574" viewBox="0 0 101.403 107.574"><defs><style>.a{fill:none;stroke:#002581;stroke-miterlimit:10;stroke-width:4px;}.b{fill:#fff;}.c,.d{fill:#39a641;}.c{stroke:rgba(0,0,0,0);}</style></defs><g transform="translate(-53.144 -39.855)"><path class="a" d="M117.475,59.588" transform="translate(20.293 5.467)"/><circle class="b" cx="49.5" cy="49.5" r="49.5" transform="translate(54.644 39.855)"/><g transform="translate(53.644 42.316)"><path class="c" d="M510.72,394.647c0,28.847-22.527,52.313-50.2,52.313a48.275,48.275,0,0,1-24.154-6.469c-.587-.336-1.159-.675-1.717-1.027a4.492,4.492,0,0,0,2.728-3.182c.5.323,1.027.616,1.541.909a44.217,44.217,0,0,0,21.6,5.632c25.4,0,46.051-21.6,46.051-48.177s-20.65-48.165-46.051-48.165-46.051,21.6-46.051,48.165a49.184,49.184,0,0,0,14.93,35.505c.426.4.866.806,1.32,1.2a4.48,4.48,0,0,0-2.259,3.506c-.5-.426-1.011-.882-1.5-1.349a53.175,53.175,0,0,1-16.645-38.865c0-28.835,22.527-52.3,50.2-52.3S510.72,365.812,510.72,394.647Z" transform="translate(-410.317 -342.347)"/><g transform="translate(75.921 8.335)"><ellipse class="c" cx="5.391" cy="5.391" rx="5.391" ry="5.391"/></g><g transform="translate(16.397 86.677)"><path class="c" d="M426.068,392.583a6.13,6.13,0,0,0-3.565,1.128c.426.4.866.806,1.32,1.2a4.327,4.327,0,0,1,2.245-.616,4.521,4.521,0,0,1,4.414,5.544c.5.323,1.027.616,1.541.909a5.937,5.937,0,0,0,.307-1.922A6.264,6.264,0,0,0,426.068,392.583Zm0,10.779a4.544,4.544,0,0,1-4.533-4.533,1.851,1.851,0,0,1,.029-.409c-.5-.426-1.011-.882-1.5-1.349a6.261,6.261,0,0,0,6,8.008,6.077,6.077,0,0,0,3.4-1.028c-.587-.336-1.159-.675-1.717-1.027A4.257,4.257,0,0,1,426.068,403.362Z" transform="translate(-419.82 -392.583)"/></g></g><g transform="translate(72.644 63.997)"><g transform="translate(18.93)"><path class="d" d="M109.932,78.325v30.433H85.76V78.325a3.109,3.109,0,0,1,3.1-3.1H94.51V88.682l2.661,3.87L100,88.682V75.223h6.829A3.1,3.1,0,0,1,109.932,78.325Z" transform="translate(-85.76 -53.844)"/><circle class="d" cx="9.733" cy="9.733" r="9.733" transform="translate(1.571)"/></g><g transform="translate(0 17.545)"><path class="d" d="M88.862,104.588H72.455V86.729a4.9,4.9,0,0,1,4.9-4.9L80.5,83.779l3.463-1.951a4.9,4.9,0,0,1,4.9,4.9Z" transform="translate(-72.455 -68.597)"/><circle class="d" cx="6.606" cy="6.606" r="6.606" transform="translate(1.544)"/></g><g transform="translate(45.844 16.019)"><path class="d" d="M121.689,104.9H104.677V86.386a5.081,5.081,0,0,1,5.082-5.081,5.223,5.223,0,0,0,3.388.9,5.588,5.588,0,0,0,3.46-.9,5.081,5.081,0,0,1,5.082,5.081Z" transform="translate(-104.677 -67.292)"/><circle class="d" cx="6.848" cy="6.848" r="6.848" transform="translate(1.51)"/></g></g></g></svg>