<?xml version="1.0" encoding="utf-8"?>
<!-- Generator: Adobe Illustrator 24.1.1, SVG Export Plug-In . SVG Version: 6.00 Build 0)  -->
<svg version="1.1" id="Layer_1" xmlns="http://www.w3.org/2000/svg" xmlns:xlink="http://www.w3.org/1999/xlink" x="0px" y="0px"
	 viewBox="0 0 62.6 62.6" style="enable-background:new 0 0 62.6 62.6;" xml:space="preserve">
<style type="text/css">
	.st0{fill:none;}
	.st1{fill:#082E58;}
</style>
<g transform="translate(-1337 -498.692)">
	<g transform="translate(1337 498.692)">
		<rect x="9.6" y="19.1" class="st0" width="43.4" height="24.4"/>
		<path class="st1" d="M53.9,44.4H8.8V18.3h45.1V44.4z M10.5,42.7h41.7V20H10.5L10.5,42.7z"/>
	</g>
	<g transform="translate(1347.315 508.198)">
		<path class="st1" d="M7.9,29.2v-1.7c-0.9,0-1.8-0.3-2.6-0.8l0.4-1.2c0.7,0.5,1.6,0.7,2.5,0.7c1.2,0,2-0.7,2-1.7
			c0-0.9-0.7-1.5-1.9-2c-1.8-0.7-2.8-1.5-2.8-3c0-1.5,1.1-2.7,2.6-2.8v-1.7h1.1v1.7c0.8,0,1.6,0.2,2.2,0.6l-0.4,1.1
			c-0.7-0.4-1.4-0.6-2.2-0.6c-1.3,0-1.8,0.8-1.8,1.5c0,0.9,0.6,1.3,2.1,2c1.8,0.7,2.7,1.6,2.7,3.1c0,1.5-1.2,2.8-2.7,2.9v1.8
			L7.9,29.2z"/>
	</g>
	<g transform="translate(1362.228 510.221)">
		<rect x="0.3" y="14.4" class="st1" width="23.7" height="1.5"/>
	</g>
	<g transform="translate(1362.228 516.353)">
		<rect x="0.3" y="12.3" class="st1" width="23.7" height="1.5"/>
	</g>
	<g transform="translate(1379.31 528.3)">
		<rect x="-5.5" y="8.3" class="st1" width="11.6" height="1.5"/>
	</g>
	<g transform="translate(1362.508 522.496)">
		<rect x="0.2" y="10.2" class="st1" width="23.3" height="1.5"/>
	</g>
</g>
<path class="st1" d="M53,10.7c0.2-0.4,0.3-0.8,0.3-1.3c0-1.8-1.5-3.2-3.3-3.1c-0.6,0-1.2,0.2-1.7,0.5c-13.9-9.5-32.8-5.9-42.3,8
	c-8.6,12.6-6.5,29.6,4.8,39.8c-0.1,0.3-0.2,0.7-0.2,1c0,2.1,1.7,3.7,3.8,3.6c0.7,0,1.4-0.2,2.1-0.6c14.7,8.1,33.2,2.7,41.3-12.1
	C64.3,34.8,62.3,20.2,53,10.7z M17.2,56.1c-0.2,0.9-0.8,1.5-1.6,1.9h0c-0.3,0.1-0.7,0.2-1,0.2c-1.5,0-2.7-1.2-2.7-2.6
	c0-0.1,0-0.2,0-0.2c0.1-0.9,0.6-1.6,1.4-2c0.4-0.2,0.9-0.4,1.4-0.4c1.5,0,2.7,1.1,2.7,2.6c0,0,0,0,0,0
	C17.2,55.7,17.2,55.9,17.2,56.1z M31.2,59.9c-4.6,0-9.1-1.1-13.1-3.3c0.1-0.4,0.2-0.7,0.2-1.1c0-2-1.7-3.7-3.8-3.6
	c-0.8,0-1.5,0.2-2.2,0.7C0.9,42,0.2,24.2,10.7,12.8c5.3-5.7,12.7-9,20.5-9c5.6,0,11.1,1.7,15.7,4.9c-0.1,0.2-0.1,0.5-0.1,0.7
	c0,1.8,1.5,3.2,3.3,3.1c0,0,0,0,0,0c0.4,0,0.8-0.1,1.2-0.2C62,23.4,61.7,41.2,50.6,52C45.4,57,38.4,59.8,31.2,59.9L31.2,59.9z"/>
</svg>
