<?xml version="1.0" encoding="utf-8"?>
<!-- Generator: Adobe Illustrator 24.1.1, SVG Export Plug-In . SVG Version: 6.00 Build 0)  -->
<svg version="1.1" id="Layer_1" xmlns="http://www.w3.org/2000/svg" xmlns:xlink="http://www.w3.org/1999/xlink" x="0px" y="0px"
	 viewBox="0 0 62.6 62.6" style="enable-background:new 0 0 62.6 62.6;" xml:space="preserve">
<style type="text/css">
	.st0{fill:#082E58;}
</style>
<g transform="translate(-524 -620)">
	<path class="st0" d="M567.6,669.3l-12.7-7l-13,6.4l2.7-14.3L534.5,644l14.4-1.8l6.7-12.9l6.1,13.2l14.3,2.4l-10.6,9.9L567.6,669.3z
		 M555,660l10.1,5.6l-1.7-11.4l8.5-7.9l-11.4-1.9l-4.9-10.5l-5.4,10.2l-11.4,1.4l8.1,8.2l-2.3,11.3L555,660z"/>
</g>
<path class="st0" d="M54,9.1c0.2-0.4,0.3-0.9,0.3-1.3c0-1.8-1.5-3.3-3.4-3.2c-0.6,0-1.2,0.2-1.8,0.5C34.9-4.7,15.3-1.1,5.6,13.3
	c-8.9,13-6.8,30.5,4.9,41.1c-0.1,0.3-0.2,0.7-0.2,1.1c0,2.1,1.8,3.8,3.9,3.8c0.8,0,1.5-0.2,2.1-0.6c15.2,8.3,34.3,2.8,42.6-12.4
	C65.6,34,63.6,19,54,9.1z M17,56c-0.2,0.9-0.9,1.6-1.7,1.9h0c-0.3,0.1-0.7,0.2-1.1,0.2c-1.5,0-2.8-1.2-2.8-2.7c0-0.1,0-0.2,0-0.2
	c0.1-0.9,0.6-1.7,1.4-2.1c0.4-0.2,0.9-0.4,1.4-0.4c1.5,0,2.8,1.2,2.8,2.7c0,0,0,0,0,0C17.1,55.6,17.1,55.8,17,56z M31.5,59.9
	c-4.7,0-9.4-1.2-13.5-3.4c0.1-0.4,0.2-0.8,0.2-1.2c0-2.1-1.8-3.8-3.9-3.7c-0.8,0-1.6,0.2-2.2,0.7C0.2,41.5-0.5,23.1,10.3,11.4
	C15.8,5.5,23.4,2.1,31.5,2c5.8,0,11.4,1.7,16.2,5c-0.1,0.2-0.1,0.5-0.1,0.8c0,1.8,1.5,3.3,3.4,3.2c0,0,0,0,0,0
	c0.4,0,0.8-0.1,1.2-0.2C63.3,22.3,63,40.6,51.5,51.8C46.1,56.9,38.9,59.9,31.5,59.9L31.5,59.9z"/>
</svg>
