<svg id="Layer_1" data-name="Layer 1" xmlns="http://www.w3.org/2000/svg" viewBox="0 0 64 64"><defs><style>.cls-1{fill:#fff;stroke-width:1.63px;}.cls-1,.cls-2,.cls-5,.cls-6,.cls-7{stroke:#1c3a69;stroke-miterlimit:10;}.cls-2,.cls-5,.cls-6,.cls-7{fill:none;}.cls-2{stroke-width:1.56px;}.cls-3{fill:#1c3c6a;}.cls-4{fill:#1c3a69;}.cls-5{stroke-width:1.5px;}.cls-7{stroke-width:1.09px;}</style></defs><rect class="cls-1" x="19.26" y="13.7" width="25.48" height="35.71"/><rect class="cls-2" x="22.52" y="17.02" width="18.89" height="29.39"/><g id="Group_451" data-name="Group 451"><g id="Group_37" data-name="Group 37"><g id="Group_36" data-name="Group 36"><g id="Group_32" data-name="Group 32"><path class="cls-3" d="M54.54,10.15a3.08,3.08,0,0,0,.29-1.33,3.31,3.31,0,0,0-3.37-3.23,3.42,3.42,0,0,0-1.76.48A31.11,31.11,0,0,0,32,.58,31.4,31.4,0,0,0,11,55.34a3.88,3.88,0,0,0-.15,1.06,3.83,3.83,0,0,0,3.91,3.75,4,4,0,0,0,2.12-.61A31.4,31.4,0,0,0,54.54,10.15ZM17.52,57a2.72,2.72,0,0,1-1.7,1.91h0a2.52,2.52,0,0,1-1.05.2,2.78,2.78,0,0,1-2.84-2.72,1.1,1.1,0,0,1,0-.25,2.67,2.67,0,0,1,1.41-2.1,2.84,2.84,0,0,1,4.24,2.34A2.64,2.64,0,0,1,17.52,57ZM32,60.94a28.44,28.44,0,0,1-13.51-3.39,3.23,3.23,0,0,0,.19-1.15,3.85,3.85,0,0,0-3.91-3.75,4.12,4.12,0,0,0-2.24.67A29,29,0,0,1,32,3.06a28.52,28.52,0,0,1,16.18,5,3.14,3.14,0,0,0-.09.75,3.3,3.3,0,0,0,3.37,3.24,3.4,3.4,0,0,0,1.2-.21A29,29,0,0,1,32,60.94Z"/></g></g></g></g><path class="cls-4" d="M30.71,31.13H26.16v-2a1.36,1.36,0,0,1,1.36-1.36l.87.54,1-.54a1.36,1.36,0,0,1,1.36,1.36Z"/><circle class="cls-4" cx="28.42" cy="25.96" r="1.83"/><line class="cls-5" x1="24.43" y1="34.23" x2="39.3" y2="34.23"/><line class="cls-6" x1="33.65" y1="27.44" x2="39.3" y2="27.44"/><line class="cls-5" x1="24.43" y1="36.87" x2="39.3" y2="36.87"/><line class="cls-5" x1="24.43" y1="39.49" x2="39.3" y2="39.49"/><line class="cls-5" x1="24.43" y1="42.4" x2="32.12" y2="42.4"/><line class="cls-6" x1="33.65" y1="29.39" x2="39.3" y2="29.39"/><rect class="cls-7" x="24.92" y="22.65" width="7.11" height="8.43"/></svg>