<?xml version="1.0" encoding="UTF-8"?>
<!-- Generator: Adobe Illustrator 24.1.2, SVG Export Plug-In . SVG Version: 6.00 Build 0)  -->
<svg version="1.1" id="Layer_1" xmlns="http://www.w3.org/2000/svg" xmlns:xlink="http://www.w3.org/1999/xlink" x="0px" y="0px" viewBox="0 0 16.7 16.7" style="enable-background:new 0 0 16.7 16.7;" xml:space="preserve">
<style type="text/css">
	.st0{clip-path:url(#SVGID_2_);}
	.st1{fill:#FFFFFF;}
</style>
<g transform="translate(0 0)">
	<g>
		<defs>
			<rect id="SVGID_1_" width="16.7" height="16.7"/>
		</defs>
		<clipPath id="SVGID_2_">
			<use xlink:href="#SVGID_1_" style="overflow:visible;"/>
		</clipPath>
		<g class="st0">
			<path class="st1" d="M16.2,14l-3.8-3.8c-0.6,0.9-1.3,1.6-2.2,2.2l3.8,3.8c0.6,0.6,1.6,0.6,2.2,0S16.8,14.6,16.2,14L16.2,14z"/>
		</g>
	</g>
</g>
<path class="st1" d="M12.5,6.2C12.5,2.8,9.7,0,6.2,0S0,2.8,0,6.2s2.8,6.2,6.2,6.2l0,0C9.7,12.5,12.5,9.7,12.5,6.2z M6.2,10.9  c-2.6,0-4.7-2.1-4.7-4.7c0-2.6,2.1-4.7,4.7-4.7c2.6,0,4.7,2.1,4.7,4.7l0,0C10.9,8.8,8.8,10.9,6.2,10.9z"/>
<path class="st1" d="M2.6,6.2h1c0-1.4,1.2-2.6,2.6-2.6v-1C4.2,2.6,2.6,4.2,2.6,6.2L2.6,6.2z"/>
</svg>