<svg xmlns="http://www.w3.org/2000/svg" xmlns:xlink="http://www.w3.org/1999/xlink" width="16.667" height="16.671" viewBox="0 0 16.667 16.671"><defs><style>.a{fill:#0056A5;}.b{clip-path:url(#a);}</style><clipPath id="a"><rect class="a" width="16.667" height="16.671"/></clipPath></defs><g transform="translate(0 0)"><g class="b"><path class="a" d="M1011.1,1548.9l-3.821-3.821a7.351,7.351,0,0,1-2.208,2.208l3.821,3.821a1.561,1.561,0,1,0,2.208-2.208Zm0,0" transform="translate(-994.906 -1534.906)"/></g></g><path class="a" d="M767.491,1301.245a6.245,6.245,0,1,0-6.245,6.245,6.246,6.246,0,0,0,6.245-6.245Zm-6.245,4.684a4.684,4.684,0,1,1,4.684-4.684,4.689,4.689,0,0,1-4.684,4.684Zm0,0" transform="translate(-755 -1295)"/><path class="a" d="M819,1362.643h1.041a2.605,2.605,0,0,1,2.6-2.6V1359a3.647,3.647,0,0,0-3.643,3.643Zm0,0" transform="translate(-816.398 -1356.398)"/></svg>