<svg xmlns="http://www.w3.org/2000/svg" width="62.802" height="62.845" viewBox="0 0 62.802 62.845"><defs><style>.a{fill:#082e58;}</style></defs><g transform="translate(-873 -510)"><g transform="translate(440.657 489.149)"><path class="a" d="M486.282,30.426a3.129,3.129,0,0,0,.294-1.327,3.312,3.312,0,0,0-3.371-3.238,3.409,3.409,0,0,0-1.758.481,31.394,31.394,0,0,0-38.69,49.275,3.619,3.619,0,0,0-.156,1.057,3.835,3.835,0,0,0,3.909,3.755,3.908,3.908,0,0,0,2.126-.619,31.4,31.4,0,0,0,37.646-49.384ZM449.268,77.281a2.745,2.745,0,0,1-1.7,1.916h-.006a2.724,2.724,0,0,1-1.051.2,2.78,2.78,0,0,1-2.833-2.721.832.832,0,0,1,.018-.246,2.7,2.7,0,0,1,1.408-2.109,2.806,2.806,0,0,1,1.407-.366,2.77,2.77,0,0,1,2.833,2.709A2.583,2.583,0,0,1,449.268,77.281Zm14.473,3.928a28.445,28.445,0,0,1-13.51-3.382,3.3,3.3,0,0,0,.194-1.153,3.839,3.839,0,0,0-3.915-3.748,3.965,3.965,0,0,0-2.233.673,28.961,28.961,0,0,1,19.464-50.261,28.559,28.559,0,0,1,16.187,5.01,2.954,2.954,0,0,0-.094.751,3.3,3.3,0,0,0,3.371,3.237,3.42,3.42,0,0,0,1.2-.21,28.949,28.949,0,0,1-20.659,49.083Z"/><rect class="a" width="32.698" height="23.99" rx="1.832" transform="translate(447.077 46.324)"/><path class="a" d="M452.559,46.681c-.026-.237-.61-5.853,2.67-9.518a9.5,9.5,0,0,1,7.429-3.009,10.658,10.658,0,0,1,8.128,3.174c3.421,3.638,3.13,9.025,3.116,9.253l-4.1-.254c0-.031.182-3.875-2.023-6.2a6.658,6.658,0,0,0-5.119-1.863,5.511,5.511,0,0,0-4.367,1.639c-2.035,2.274-1.653,6.284-1.648,6.324Z"/></g></g></svg>