<?xml version="1.0" encoding="utf-8"?>
<!-- Generator: Adobe Illustrator 24.1.1, SVG Export Plug-In . SVG Version: 6.00 Build 0)  -->
<svg version="1.1" id="Layer_1" xmlns="http://www.w3.org/2000/svg" xmlns:xlink="http://www.w3.org/1999/xlink" x="0px" y="0px"
	 viewBox="0 0 62.8 62.8" style="enable-background:new 0 0 62.8 62.8;" xml:space="preserve">
<style type="text/css">
	.st0{fill:#082E58;}
</style>
<g transform="translate(440.657 489.149)">
	<path class="st0" d="M-386.7-479.6c0.2-0.4,0.3-0.9,0.3-1.3c0-1.8-1.5-3.3-3.4-3.2c-0.6,0-1.2,0.2-1.8,0.5
		c-14.3-9.8-33.9-6.1-43.6,8.2c-8.9,13-6.8,30.5,4.9,41.1c-0.1,0.3-0.2,0.7-0.2,1.1c0,2.1,1.8,3.8,3.9,3.8c0.8,0,1.5-0.2,2.1-0.6
		c15.2,8.3,34.3,2.8,42.6-12.4C-375.1-454.7-377.1-469.7-386.7-479.6z M-423.7-432.7c-0.2,0.9-0.9,1.6-1.7,1.9h0
		c-0.3,0.1-0.7,0.2-1.1,0.2c-1.5,0-2.8-1.2-2.8-2.7c0-0.1,0-0.2,0-0.2c0.1-0.9,0.6-1.7,1.4-2.1c0.4-0.2,0.9-0.4,1.4-0.4
		c1.5,0,2.8,1.2,2.8,2.7c0,0,0,0,0,0C-423.7-433.1-423.7-432.9-423.7-432.7z M-409.3-428.8c-4.7,0-9.4-1.2-13.5-3.4
		c0.1-0.4,0.2-0.8,0.2-1.2c0-2.1-1.8-3.8-3.9-3.7c-0.8,0-1.6,0.2-2.2,0.7c-11.8-10.8-12.5-29.2-1.7-40.9c5.4-5.9,13.1-9.3,21.1-9.3
		c5.8,0,11.4,1.7,16.2,5c-0.1,0.2-0.1,0.5-0.1,0.8c0,1.8,1.5,3.3,3.4,3.2c0,0,0,0,0,0c0.4,0,0.8-0.1,1.2-0.2
		c11.1,11.5,10.8,29.8-0.7,40.9C-394.6-431.7-401.8-428.8-409.3-428.8L-409.3-428.8z"/>
	<path class="st0" d="M-424.1-463.7h29c1,0,1.8,0.8,1.8,1.8v20.3c0,1-0.8,1.8-1.8,1.8h-29c-1,0-1.8-0.8-1.8-1.8v-20.3
		C-425.9-462.9-425.1-463.7-424.1-463.7z"/>
	<path class="st0" d="M-420.4-463.3c0-0.2-0.6-5.9,2.7-9.5c1.9-2,4.6-3.2,7.4-3c3-0.2,6,1,8.1,3.2c3.4,3.6,3.1,9,3.1,9.3l-4.1-0.3
		c0,0,0.2-3.9-2-6.2c-1.4-1.3-3.2-2-5.1-1.9c-1.6-0.1-3.2,0.5-4.4,1.6c-2,2.3-1.7,6.3-1.6,6.3L-420.4-463.3z"/>
</g>
</svg>
