<svg xmlns="http://www.w3.org/2000/svg" width="101.403" height="105.613" viewBox="0 0 101.403 105.613"><defs><style>.a{fill:#fff;stroke:rgba(0,0,0,0);}.b{fill:rgba(0,0,0,0);stroke:#fff;stroke-miterlimit:10;stroke-width:2.075px;fill-rule:evenodd;}</style></defs><g transform="translate(-30.618 -30.896)"><g transform="translate(31.118 31.396)"><path class="a" d="M510.72,394.647c0,28.847-22.527,52.313-50.2,52.313a48.275,48.275,0,0,1-24.154-6.469c-.587-.336-1.159-.675-1.717-1.027a4.492,4.492,0,0,0,2.728-3.182c.5.323,1.027.616,1.541.909a44.217,44.217,0,0,0,21.6,5.632c25.4,0,46.051-21.6,46.051-48.177s-20.65-48.165-46.051-48.165-46.051,21.6-46.051,48.165a49.184,49.184,0,0,0,14.93,35.505c.426.4.866.806,1.32,1.2a4.48,4.48,0,0,0-2.259,3.506c-.5-.426-1.011-.882-1.5-1.349a53.175,53.175,0,0,1-16.645-38.865c0-28.835,22.527-52.3,50.2-52.3S510.72,365.812,510.72,394.647Z" transform="translate(-410.317 -342.347)"/><g transform="translate(75.921 8.335)"><ellipse class="a" cx="5.391" cy="5.391" rx="5.391" ry="5.391"/></g><g transform="translate(16.397 86.677)"><path class="a" d="M426.068,392.583a6.13,6.13,0,0,0-3.565,1.128c.426.4.866.806,1.32,1.2a4.327,4.327,0,0,1,2.245-.616,4.521,4.521,0,0,1,4.414,5.544c.5.323,1.027.616,1.541.909a5.937,5.937,0,0,0,.307-1.922A6.264,6.264,0,0,0,426.068,392.583Zm0,10.779a4.544,4.544,0,0,1-4.533-4.533,1.851,1.851,0,0,1,.029-.409c-.5-.426-1.011-.882-1.5-1.349a6.261,6.261,0,0,0,6,8.008,6.077,6.077,0,0,0,3.4-1.028c-.587-.336-1.159-.675-1.717-1.027A4.257,4.257,0,0,1,426.068,403.362Z" transform="translate(-419.82 -392.583)"/></g></g><g transform="translate(51.835 69.18)"><path class="b" d="M473.139,377.028a10.9,10.9,0,0,0-1.492.116,8.611,8.611,0,0,0-8.686-9.919,8.807,8.807,0,0,0-6.677,3.045,13.057,13.057,0,0,0-24.056,6.84,12.9,12.9,0,0,0,.1,1.558c-.109-.005-.214-.017-.324-.017a9.618,9.618,0,0,0-9.678,9.559,9.515,9.515,0,0,0,4.493,8.061h52.33a10.488,10.488,0,0,0,4.662-8.7A10.6,10.6,0,0,0,473.139,377.028Z" transform="translate(-422.324 -364.246)"/><path class="a" d="M447.681,382.806v-9.22h-7.522v9.22h-6.373l10.188,11.947,10.165-11.947Z" transform="translate(-414.01 -357.47)"/></g></g></svg>