<svg xmlns="http://www.w3.org/2000/svg" width="62.802" height="62.845" viewBox="0 0 62.802 62.845"><defs><style>.a{fill:#082e58;}</style></defs><g transform="translate(-326.641 -20.851)"><path class="a" d="M333.464,48.106l.366,3.533,1.818-.16a10.128,10.128,0,0,0,2.015,3.941l-1.183,1.442,2.778,2.27,1.135-1.388a9.309,9.309,0,0,0,4.247,1.369l.211,1.815,3.533-.366-.208-1.764a9.158,9.158,0,0,0,3.988-2.069l1.443,1.183,2.219-2.775L354.437,54a9.1,9.1,0,0,0,1.218-4.238l1.967-.22-.315-3.536-1.917.217a10.478,10.478,0,0,0-2.059-3.836l1.274-1.6-2.724-2.222-1.328,1.552a9.639,9.639,0,0,0-4.345-1.312l-.136-1.413-3.536.314.143,1.515a9.863,9.863,0,0,0-3.546,1.839l-1.6-1.274-2.273,2.727,1.549,1.277a10.215,10.215,0,0,0-1.375,4.146Zm11.576-4.252A5.149,5.149,0,1,1,346.064,54.1a5.149,5.149,0,0,1-1.024-10.247Z"/><path class="a" d="M355.415,58.943l.366,3.533,1.818-.161a10.113,10.113,0,0,0,2.015,3.941L358.431,67.7l2.778,2.27,1.135-1.389a9.3,9.3,0,0,0,4.247,1.369l.211,1.816,3.533-.366-.208-1.765a9.146,9.146,0,0,0,3.988-2.068l1.443,1.182,2.219-2.774-1.389-1.135a9.107,9.107,0,0,0,1.218-4.238l1.967-.22-.315-3.536-1.917.217a10.491,10.491,0,0,0-2.059-3.837l1.274-1.6L373.832,49.4,372.5,50.955a9.626,9.626,0,0,0-4.345-1.312l-.136-1.414-3.536.315.143,1.515a9.847,9.847,0,0,0-3.546,1.839l-1.6-1.275-2.273,2.727,1.549,1.278a10.215,10.215,0,0,0-1.375,4.145Zm11.576-4.253a5.149,5.149,0,1,1,1.024,10.247,5.149,5.149,0,0,1-1.024-10.247Z"/><path class="a" d="M380.58,30.426a3.129,3.129,0,0,0,.294-1.327,3.312,3.312,0,0,0-3.371-3.238,3.409,3.409,0,0,0-1.758.481,31.394,31.394,0,0,0-38.69,49.275,3.619,3.619,0,0,0-.156,1.057,3.835,3.835,0,0,0,3.909,3.755,3.908,3.908,0,0,0,2.126-.619A31.4,31.4,0,0,0,380.58,30.426ZM343.566,77.281a2.745,2.745,0,0,1-1.7,1.916h-.007a2.719,2.719,0,0,1-1.05.2,2.78,2.78,0,0,1-2.834-2.721.833.833,0,0,1,.019-.246,2.7,2.7,0,0,1,1.407-2.109,2.812,2.812,0,0,1,1.408-.366,2.77,2.77,0,0,1,2.833,2.709A2.583,2.583,0,0,1,343.566,77.281Zm14.473,3.928a28.442,28.442,0,0,1-13.51-3.382,3.3,3.3,0,0,0,.194-1.153,3.839,3.839,0,0,0-3.915-3.748,3.965,3.965,0,0,0-2.233.673,28.961,28.961,0,0,1,19.464-50.261,28.559,28.559,0,0,1,16.187,5.01,2.954,2.954,0,0,0-.094.751,3.3,3.3,0,0,0,3.371,3.237,3.425,3.425,0,0,0,1.2-.21,28.949,28.949,0,0,1-20.659,49.083Z"/></g></svg>