<?xml version="1.0" encoding="utf-8"?>
<!-- Generator: Adobe Illustrator 24.1.1, SVG Export Plug-In . SVG Version: 6.00 Build 0)  -->
<svg version="1.1" id="Layer_1" xmlns="http://www.w3.org/2000/svg" xmlns:xlink="http://www.w3.org/1999/xlink" x="0px" y="0px"
	 viewBox="0 0 62.6 62.6" style="enable-background:new 0 0 62.6 62.6;" xml:space="preserve">
<style type="text/css">
	.st0{fill:#082E58;}
	.st1{fill:#FFFFFF;}
</style>
<g transform="translate(-801 -633)">
	<g transform="translate(304.966 306.541)">
		<path class="st0" d="M540.4,364h-1.8v-7.6h-22.2v7.6h-1.8v-9.5h25.9L540.4,364L540.4,364z"/>
		<rect x="525.8" y="348.4" class="st0" width="1.5" height="7"/>
	</g>
	<g transform="translate(304.966 306.541)">
		<path class="st0" d="M515.6,378.1c-4.3,0-7.8-3.5-7.8-7.8c0-4.3,3.5-7.8,7.8-7.8c4.3,0,7.8,3.5,7.8,7.8S519.9,378.1,515.6,378.1z
			 M515.6,364c-3.5,0-6.2,2.8-6.2,6.2c0,3.5,2.8,6.2,6.2,6.2c3.5,0,6.2-2.8,6.2-6.2S519,364,515.6,364L515.6,364z"/>
	</g>
	<g transform="translate(304.966 306.541)">
		<path class="st0" d="M539.2,378.1c-4.3,0-7.8-3.5-7.8-7.8c0-4.3,3.5-7.8,7.8-7.8s7.8,3.5,7.8,7.8S543.5,378.1,539.2,378.1z
			 M539.2,364c-3.5,0-6.2,2.8-6.2,6.2s2.8,6.2,6.2,6.2c3.5,0,6.2-2.8,6.2-6.2S542.7,364,539.2,364L539.2,364z"/>
	</g>
	<g transform="translate(304.966 306.541)">
		<path class="st0" d="M526.8,349.1c-4.3,0-7.8-3.5-7.8-7.8s3.5-7.8,7.8-7.8s7.8,3.5,7.8,7.8l0,0C534.6,345.5,531.1,349,526.8,349.1
			z M526.8,335c-3.5,0-6.2,2.8-6.2,6.2c0,3.5,2.8,6.2,6.2,6.2c3.5,0,6.2-2.8,6.2-6.2C533,337.7,530.2,335,526.8,335z"/>
	</g>
	<g transform="translate(304.966 306.541)">
		<path class="st0" d="M526.4,339.7h0.9c1,0,1.8,0.8,1.8,1.8l0,0v4.5l0,0h-4.6l0,0v-4.5C524.6,340.6,525.4,339.7,526.4,339.7z"/>
		<circle class="st0" cx="526.7" cy="337.6" r="1.8"/>
	</g>
	<g transform="translate(304.966 306.541)">
		<path class="st0" d="M517.2,374.3h-3.7v-4c0-0.6,0.5-1.1,1.1-1.1l0,0l0.7,0.4l0.7-0.4c0.6,0,1.1,0.5,1.1,1.1l0,0L517.2,374.3
			L517.2,374.3z"/>
		<circle class="st0" cx="515.4" cy="367.8" r="1.5"/>
	</g>
	<g transform="translate(304.966 306.541)">
		<path class="st0" d="M540.9,374.4h-3.4v-3.7c0-0.6,0.5-1,1-1l0,0c0.2,0.2,0.4,0.2,0.7,0.2c0.2,0,0.5-0.1,0.7-0.2c0.6,0,1,0.5,1,1
			l0,0L540.9,374.4L540.9,374.4z"/>
		<circle class="st0" cx="539.1" cy="368.2" r="1.4"/>
	</g>
	<g transform="translate(304.966 306.541)">
		<path class="st1" d="M526.3,342.3l0.5,0.7l0.5-0.7v-2.7h-1L526.3,342.3z"/>
	</g>
</g>
<path class="st0" d="M54,9.7c0.2-0.4,0.3-0.9,0.3-1.3c0-1.8-1.5-3.3-3.4-3.2c-0.6,0-1.2,0.2-1.8,0.5C34.9-4.2,15.3-0.5,5.6,13.8
	c-8.9,13-6.8,30.5,4.9,41.1c-0.1,0.3-0.2,0.7-0.2,1.1c0,2.1,1.8,3.8,3.9,3.8c0.8,0,1.5-0.2,2.1-0.6c15.2,8.3,34.3,2.8,42.6-12.4
	C65.6,34.5,63.6,19.6,54,9.7z M17,56.5c-0.2,0.9-0.9,1.6-1.7,1.9h0c-0.3,0.1-0.7,0.2-1.1,0.2c-1.5,0-2.8-1.2-2.8-2.7
	c0-0.1,0-0.2,0-0.2c0.1-0.9,0.6-1.7,1.4-2.1c0.4-0.2,0.9-0.4,1.4-0.4c1.5,0,2.8,1.2,2.8,2.7c0,0,0,0,0,0
	C17.1,56.1,17.1,56.3,17,56.5z M31.5,60.4c-4.7,0-9.4-1.2-13.5-3.4c0.1-0.4,0.2-0.8,0.2-1.2c0-2.1-1.8-3.8-3.9-3.7
	c-0.8,0-1.6,0.2-2.2,0.7C0.2,42-0.5,23.7,10.3,11.9C15.8,6,23.4,2.6,31.5,2.6c5.8,0,11.4,1.7,16.2,5c-0.1,0.2-0.1,0.5-0.1,0.8
	c0,1.8,1.5,3.3,3.4,3.2c0,0,0,0,0,0c0.4,0,0.8-0.1,1.2-0.2C63.3,22.9,63,41.2,51.5,52.3C46.1,57.5,38.9,60.4,31.5,60.4L31.5,60.4z"
	/>
</svg>
