<?xml version="1.0" encoding="utf-8"?>
<!-- Generator: Adobe Illustrator 26.2.1, SVG Export Plug-In . SVG Version: 6.00 Build 0)  -->
<svg version="1.1" id="Layer_1" xmlns="http://www.w3.org/2000/svg" xmlns:xlink="http://www.w3.org/1999/xlink" x="0px" y="0px"
	 viewBox="0 0 101.4 105.6" style="enable-background:new 0 0 101.4 105.6;" xml:space="preserve">
<style type="text/css">
	.st0{fill:#FFFFFF;}
</style>
<g id="circle" transform="translate(31.118 31.396)">
	<path class="st0" d="M69.8,21.4c0,28.8-22.5,52.3-50.2,52.3c-8.5,0-16.8-2.2-24.2-6.5c-0.6-0.3-1.2-0.7-1.7-1
		c1.4-0.5,2.4-1.7,2.7-3.2c0.5,0.3,1,0.6,1.5,0.9c6.6,3.7,14,5.6,21.6,5.6C45,69.6,65.6,48,65.6,21.4S45-26.8,19.6-26.8
		S-26.5-5.2-26.5,21.4c-0.1,13.4,5.3,26.2,14.9,35.5c0.4,0.4,0.9,0.8,1.3,1.2c-1.3,0.7-2.1,2-2.3,3.5c-0.5-0.4-1-0.9-1.5-1.3
		c-10.7-10.1-16.7-24.2-16.6-38.9c0-28.8,22.5-52.3,50.2-52.3S69.8-7.4,69.8,21.4z"/>
	<g transform="translate(75.921 8.335)">
		<ellipse class="st0" cx="-25.2" cy="-25.5" rx="5.4" ry="5.4"/>
	</g>
	<g transform="translate(16.397 86.677)">
		<path class="st0" d="M-24.4-30.9c-1.3,0-2.5,0.4-3.6,1.1c0.4,0.4,0.9,0.8,1.3,1.2c0.7-0.4,1.5-0.6,2.2-0.6c2.5,0,4.5,2,4.5,4.5
			c0,0.3,0,0.7-0.1,1c0.5,0.3,1,0.6,1.5,0.9c0.2-0.6,0.3-1.3,0.3-1.9C-18.1-28.1-20.9-30.9-24.4-30.9z M-24.4-20.1
			c-2.5,0-4.5-2-4.5-4.5c0-0.1,0-0.3,0-0.4c-0.5-0.4-1-0.9-1.5-1.3c-1,3.3,0.9,6.8,4.3,7.8c0.6,0.2,1.1,0.2,1.7,0.2
			c1.2,0,2.4-0.4,3.4-1c-0.6-0.3-1.2-0.7-1.7-1C-23.2-20.2-23.8-20.1-24.4-20.1z"/>
	</g>
</g>
<g id="fire_shield">
	<path class="st0" d="M68.5,54.3c0,4.5,0,9,0,13.6c0,0.6-0.2,0.9-0.7,1.2c-5.5,3.2-10.9,6.4-16.4,9.7c-0.6,0.3-1,0.3-1.5,0
		c-5.5-3.3-11-6.5-16.5-9.8c-0.4-0.2-0.6-0.5-0.6-0.9c0-6.2,0-12.5,0.1-18.7c0-0.9,0.1-1.8,0.1-2.7c0-1.1,0.7-1.9,1.8-2
		c1-0.1,1.9,0.6,2.2,1.6c0.1,0.6,0.1,1.2,0,1.9c-0.1,2-0.3,4-0.2,6c0,1.3,0.7,2,1.8,2c1.2,0,1.9-0.8,1.9-2c0.1-3.8,0.1-7.6,0.2-11.5
		c0-1.4,0.1-2.8,0.1-4.3c0-1.1,0.9-2,1.9-2.1c1.1,0,2,0.8,2.1,1.9c0,0.2,0,0.3,0,0.5c0,3.2,0.1,6.4,0.1,9.6c0,1.3,0.8,2.2,2,2.1
		c0.9,0,1.6-0.7,1.8-1.6c0.2-1,0.1-2,0.1-3c0-0.6,0.1-1.1,0.5-1.5c0.6-0.6,1.4-0.8,2.1-0.6c0.8,0.3,1.4,1,1.4,1.9c0,2.5,0,5,0,7.5
		c0,0.8,0,1.6,0,2.3c0,1.2,0.8,2,1.8,2c1.1,0,1.9-0.9,1.9-2c0-1.5,0-3,0-4.5c0-1.2,0.9-2.1,2.1-2.1c1,0,1.8,0.7,1.9,1.7
		c0.1,0.6,0.1,1.3,0.1,1.9c0,1.2,0.8,2,1.8,2c1,0,1.8-0.8,1.8-2c0-4,0-7.9,0-11.9c0-0.8,0.2-1.5,0.8-2c0.7-0.5,1.4-0.6,2.1-0.3
		c0.7,0.3,1,0.9,1.1,1.7c0,0.3,0,0.5,0,0.8C68.5,45.4,68.5,49.9,68.5,54.3C68.5,54.3,68.5,54.3,68.5,54.3z"/>
	<path class="st0" d="M48.8,34.9c0-0.9,0-1.8,0-2.7c0-1.2,0.9-2.1,1.9-2.1c1,0,2,0.9,2,2.1c0,1.8,0,3.5,0,5.3c0,1.2-0.9,2.1-2,2.1
		c-1.1,0-1.9-0.9-1.9-2.1c0,0,0-0.1,0-0.1C48.8,36.5,48.8,35.7,48.8,34.9z"/>
	<path class="st0" d="M40.5,28.6c0-0.7,0-1.3,0-2c0-1.1,0.8-1.9,1.9-2c1.1,0,2,0.8,2,1.9c0,1.3,0,2.6,0,3.9c0,1.2-0.9,2-1.9,2
		c-1.1,0-1.9-0.9-2-2.1C40.5,29.8,40.5,29.2,40.5,28.6z"/>
	<path class="st0" d="M68.5,32.2c0,0.6,0,1.2,0,1.8c0,1.1-0.9,2-2,2c-1.1,0-1.9-0.9-1.9-2c0-1.2,0-2.5,0-3.7c0-1.1,0.9-2,1.9-2
		c1,0,1.9,0.8,2,1.9C68.6,30.9,68.5,31.5,68.5,32.2C68.5,32.2,68.5,32.2,68.5,32.2z"/>
	<path class="st0" d="M56.7,37.1c0-0.4,0-0.8,0-1.2c0.1-1.1,0.9-1.9,2-1.9c1,0,1.9,0.8,1.9,1.9c0,0.8,0,1.6,0,2.5
		c-0.1,1.1-0.9,1.9-1.9,1.9c-1,0-1.9-0.9-2-1.9C56.7,37.9,56.7,37.5,56.7,37.1z"/>
	<path class="st0" d="M33,34.3c0-0.4,0-0.8,0-1.2c0.1-1.1,0.9-1.9,1.9-1.9c1.1,0,1.9,0.8,1.9,1.9c0,0.8,0,1.7,0,2.5
		c-0.1,1.1-1,1.9-2,1.9c-1,0-1.9-0.9-1.9-2C33,35.1,33,34.7,33,34.3C33,34.3,33,34.3,33,34.3z"/>
	<path class="st0" d="M37,41.2c0,1-0.9,1.9-1.9,1.9c-1,0-1.8-0.9-1.8-1.9c0-1.1,0.9-1.9,1.9-1.9C36.2,39.3,37,40.2,37,41.2z"/>
	<path class="st0" d="M60.5,44.5c0,1.1-0.7,1.9-1.8,1.9c-1,0-1.8-0.8-1.9-1.8c0-1.1,0.8-1.9,1.8-1.9C59.7,42.6,60.5,43.4,60.5,44.5z
		"/>
</g>
</svg>
