<?xml version="1.0" encoding="utf-8"?>
<!-- Generator: Adobe Illustrator 24.1.1, SVG Export Plug-In . SVG Version: 6.00 Build 0)  -->
<svg version="1.1" id="Layer_1" xmlns="http://www.w3.org/2000/svg" xmlns:xlink="http://www.w3.org/1999/xlink" x="0px" y="0px"
	 viewBox="0 0 41 48.7" style="enable-background:new 0 0 41 48.7;" xml:space="preserve">
<style type="text/css">
	.st0{fill:#082E58;}
	.st1{fill:none;}
</style>
<g transform="translate(-1343 -624.5)">
	<g transform="translate(1358.596 626.867)">
		<rect x="0" y="0" class="st0" width="6.2" height="7"/>
	</g>
	<g transform="translate(1356.297 624.5)">
		<rect x="0" class="st0" width="10.8" height="4.5"/>
	</g>
	<g transform="translate(1370.617 629.655)">
		<rect x="2.6" y="-0.1" transform="matrix(0.5 -0.866 0.866 0.5 -1.1705 6.336)" class="st0" width="4.7" height="8.6"/>
	</g>
	<g transform="translate(1343 632.17)">
		<circle class="st1" cx="20.5" cy="20.5" r="19.2"/>
		<path class="st0" d="M20.5,41C9.2,41,0,31.9,0,20.5S9.2,0,20.5,0C31.9,0,41,9.2,41,20.5C41,31.8,31.9,41,20.5,41z M20.5,2.7
			c-9.8,0-17.8,8-17.8,17.8c0,9.8,8,17.8,17.8,17.8c9.8,0,17.8-8,17.8-17.8c0,0,0,0,0,0C38.3,10.7,30.3,2.7,20.5,2.7L20.5,2.7z"/>
		<g transform="translate(19.292 2.772)">
			<rect x="0" y="0" class="st0" width="1.6" height="5.6"/>
		</g>
		<g transform="translate(19.292 33.049)">
			<rect x="0" y="0" class="st0" width="1.6" height="5.6"/>
		</g>
		<g transform="translate(33.309 19.827)">
			<rect x="0" y="0" class="st0" width="5.6" height="1.6"/>
		</g>
		<g transform="translate(2.086 19.827)">
			<rect x="0" y="0" class="st0" width="5.6" height="1.6"/>
		</g>
	</g>
	<g transform="translate(1360.116 645.306)">
		<path class="st0" d="M10.3,0c0.8-0.6-6.5,10.1-7.2,10.8c-0.7,0.7-1.9,0.7-2.6,0s-0.7-1.9,0-2.6l0,0C1.3,7.5,7.8,1.9,10.3,0z"/>
	</g>
</g>
</svg>
