<?xml version="1.0" encoding="utf-8"?>
<!-- Generator: Adobe Illustrator 24.1.1, SVG Export Plug-In . SVG Version: 6.00 Build 0)  -->
<svg version="1.1" id="Layer_1" xmlns="http://www.w3.org/2000/svg" xmlns:xlink="http://www.w3.org/1999/xlink" x="0px" y="0px"
	 viewBox="0 0 62.6 62.6" style="enable-background:new 0 0 62.6 62.6;" xml:space="preserve">
<style type="text/css">
	.st0{fill:#082E58;}
	.st1{fill:#FFFFFF;}
</style>
<g transform="translate(-525 -617)">
	<g transform="translate(163.928 151.615)">
		<circle class="st0" cx="392.4" cy="496.5" r="18.1"/>
	</g>
	<g transform="translate(163.928 151.615)">
		<path class="st1" d="M386.7,507.3l-3.6-13h2.2l1.9,7.5c0.1,0.6,0.3,1.2,0.4,1.8c0.1,0.6,0.2,1.2,0.4,1.8h0.1
			c0.1-0.6,0.3-1.2,0.4-1.8c0.1-0.6,0.3-1.2,0.5-1.8l2-7.5h2.1l2,7.5l0.5,1.8c0.2,0.6,0.3,1.2,0.4,1.8h0.1c0.1-0.6,0.3-1.2,0.4-1.8
			c0.1-0.6,0.3-1.2,0.4-1.8l1.9-7.5h2.1l-3.5,13h-2.7l-1.9-7c-0.2-0.6-0.3-1.2-0.4-1.8s-0.3-1.2-0.4-1.9h-0.1
			c-0.1,0.7-0.3,1.3-0.4,1.9s-0.3,1.2-0.5,1.9l-1.8,6.9H386.7z"/>
		<path class="st1" d="M400.9,491.4c-0.1,0-0.2-0.1-0.3-0.2c-4.8-5.3-12-5.3-16.6,0c-0.1,0.2-0.4,0.2-0.6,0.1
			c-0.1,0-0.1-0.1-0.1-0.2c-0.2-0.3-0.1-0.7,0.1-1c5-5.7,12.6-5.7,17.8,0c0.2,0.3,0.3,0.7,0.1,1C401.2,491.3,401,491.4,400.9,491.4z
			"/>
	</g>
	<g transform="translate(163.928 151.615)">
		<path class="st0" d="M392.5,522c-0.1,0-0.3,0-0.4,0c-9-0.2-17.2-5.1-21.6-12.9l2.7-1.5c5.9,10.7,19.3,14.5,30,8.6
			c5-2.8,8.7-7.4,10.4-12.8l2.9,0.9C413.3,514.8,403.5,521.9,392.5,522z"/>
		<path class="st0" d="M410.2,504.2l5.9-7l3.1,8.6L410.2,504.2z"/>
	</g>
	<g transform="translate(163.928 151.615)">
		<path class="st0" d="M371.2,490.4l-2.9-0.8c3.8-13.3,17.8-21,31.1-17.2c7.8,2.2,14,8.1,16.7,15.7l-2.9,1
			c-4.1-11.5-16.8-17.4-28.2-13.3C378.3,478.1,373.2,483.6,371.2,490.4L371.2,490.4z"/>
		<path class="st0" d="M374.6,489.4l-5.8,7.1l-3.2-8.6L374.6,489.4z"/>
	</g>
</g>
<path class="st0" d="M53.9,9.4C54.1,9,54.2,8.5,54.2,8c0-1.8-1.5-3.3-3.4-3.2c-0.6,0-1.2,0.2-1.8,0.5C34.8-4.5,15.2-0.8,5.5,13.5
	c-8.9,13-6.8,30.5,4.9,41.1c-0.1,0.3-0.2,0.7-0.2,1.1c0,2.1,1.8,3.8,3.9,3.8c0.8,0,1.5-0.2,2.1-0.6c15.2,8.3,34.3,2.8,42.6-12.4
	C65.5,34.2,63.5,19.3,53.9,9.4z M16.9,56.2c-0.2,0.9-0.9,1.6-1.7,1.9h0c-0.3,0.1-0.7,0.2-1.1,0.2c-1.5,0-2.8-1.2-2.8-2.7
	c0-0.1,0-0.2,0-0.2c0.1-0.9,0.6-1.7,1.4-2.1c0.4-0.2,0.9-0.4,1.4-0.4c1.5,0,2.8,1.2,2.8,2.7c0,0,0,0,0,0C17,55.8,17,56,16.9,56.2z
	 M31.4,60.1c-4.7,0-9.4-1.2-13.5-3.4c0.1-0.4,0.2-0.8,0.2-1.2c0-2.1-1.8-3.8-3.9-3.7c-0.8,0-1.6,0.2-2.2,0.7
	C0.1,41.7-0.6,23.4,10.2,11.6c5.4-5.9,13.1-9.3,21.1-9.3c5.8,0,11.4,1.7,16.2,5c-0.1,0.2-0.1,0.5-0.1,0.8c0,1.8,1.5,3.3,3.4,3.2
	c0,0,0,0,0,0c0.4,0,0.8-0.1,1.2-0.2C63.2,22.6,62.9,40.9,51.4,52C46,57.2,38.8,60.1,31.4,60.1L31.4,60.1z"/>
</svg>
