<?xml version="1.0" encoding="UTF-8"?><svg id="Text_Layers" xmlns="http://www.w3.org/2000/svg" viewBox="0 0 870.67 215.63"><defs><style>.cls-1{fill:#500000;}</style></defs><g id="Office_of_Cybersecurity"><g><path class="cls-1" d="M3.27,93.81c0-8.41,2.34-14.96,7.03-19.65s11.21-7.03,19.58-7.03,15.19,2.3,19.83,6.91,6.96,11.06,6.96,19.35c0,6.02-1.01,10.96-3.04,14.82-2.03,3.86-4.96,6.86-8.79,9s-8.61,3.22-14.33,3.22-10.62-.93-14.43-2.78c-3.81-1.85-6.9-4.78-9.26-8.79-2.37-4.01-3.55-9.02-3.55-15.05Zm15.93,.07c0,5.2,.97,8.94,2.9,11.21s4.56,3.41,7.89,3.41,6.07-1.11,7.95-3.34c1.88-2.23,2.81-6.22,2.81-11.99,0-4.85-.98-8.4-2.94-10.63-1.96-2.24-4.61-3.36-7.96-3.36s-5.79,1.14-7.73,3.41c-1.95,2.27-2.92,6.04-2.92,11.29Z"/><path class="cls-1" d="M63.52,68.01h39.38v11.07h-23.38v9h19.97v10.41h-19.97v21.06h-16v-51.54Z"/><path class="cls-1" d="M109.74,68.01h39.38v11.07h-23.38v9h19.97v10.41h-19.97v21.06h-16v-51.54Z"/><path class="cls-1" d="M156.53,68.01h15.96v51.54h-15.96v-51.54Z"/><path class="cls-1" d="M216.43,98.45l13.96,4.22c-.94,3.91-2.41,7.18-4.43,9.81-2.02,2.62-4.52,4.61-7.51,5.94s-6.79,2-11.41,2c-5.6,0-10.18-.81-13.73-2.44-3.55-1.63-6.62-4.49-9.19-8.59-2.58-4.1-3.87-9.35-3.87-15.74,0-8.53,2.27-15.08,6.8-19.66s10.95-6.87,19.25-6.87c6.49,0,11.6,1.31,15.31,3.94,3.71,2.62,6.47,6.66,8.28,12.09l-14.06,3.13c-.49-1.57-1.01-2.72-1.55-3.45-.89-1.22-1.98-2.16-3.27-2.81-1.29-.66-2.73-.98-4.32-.98-3.61,0-6.38,1.45-8.3,4.35-1.45,2.15-2.18,5.54-2.18,10.15,0,5.71,.87,9.63,2.6,11.75,1.73,2.12,4.17,3.18,7.31,3.18s5.35-.86,6.91-2.57c1.56-1.71,2.69-4.2,3.39-7.45Z"/><path class="cls-1" d="M236.29,68.01h42.68v11h-26.72v8.19h24.79v10.51h-24.79v10.16h27.49v11.67h-43.45v-51.54Z"/><path class="cls-1" d="M306.72,93.81c0-8.41,2.34-14.96,7.03-19.65s11.21-7.03,19.58-7.03,15.19,2.3,19.83,6.91,6.96,11.06,6.96,19.35c0,6.02-1.01,10.96-3.04,14.82-2.03,3.86-4.96,6.86-8.79,9s-8.61,3.22-14.33,3.22-10.62-.93-14.43-2.78c-3.81-1.85-6.9-4.78-9.26-8.79-2.37-4.01-3.55-9.02-3.55-15.05Zm15.93,.07c0,5.2,.97,8.94,2.9,11.21s4.56,3.41,7.89,3.41,6.07-1.11,7.95-3.34c1.88-2.23,2.81-6.22,2.81-11.99,0-4.85-.98-8.4-2.94-10.63-1.96-2.24-4.61-3.36-7.96-3.36s-5.79,1.14-7.73,3.41c-1.95,2.27-2.92,6.04-2.92,11.29Z"/><path class="cls-1" d="M366.98,68.01h39.38v11.07h-23.38v9h19.97v10.41h-19.97v21.06h-16v-51.54Z"/><path class="cls-1" d="M39.59,172.45l13.96,4.22c-.94,3.91-2.41,7.18-4.43,9.81-2.02,2.62-4.52,4.61-7.51,5.94s-6.79,2-11.41,2c-5.6,0-10.18-.81-13.73-2.44-3.55-1.63-6.62-4.49-9.19-8.59-2.58-4.1-3.87-9.35-3.87-15.74,0-8.53,2.27-15.08,6.8-19.66,4.54-4.58,10.95-6.87,19.25-6.87,6.49,0,11.6,1.31,15.31,3.94,3.71,2.62,6.47,6.66,8.28,12.09l-14.06,3.13c-.49-1.57-1.01-2.72-1.55-3.45-.89-1.22-1.98-2.16-3.27-2.81-1.29-.66-2.73-.98-4.32-.98-3.61,0-6.38,1.45-8.3,4.35-1.45,2.15-2.18,5.54-2.18,10.15,0,5.71,.87,9.63,2.6,11.75,1.73,2.12,4.17,3.18,7.31,3.18s5.35-.86,6.91-2.57c1.56-1.71,2.69-4.2,3.39-7.45Z"/><path class="cls-1" d="M54.27,142.01h17.69l10.38,17.39,10.41-17.39h17.6l-20.04,29.95v21.59h-15.96v-21.59l-20.07-29.95Z"/><path class="cls-1" d="M113.72,142.01h29.81c4.97,0,8.78,1.23,11.44,3.69,2.66,2.46,3.99,5.51,3.99,9.14,0,3.05-.95,5.66-2.85,7.84-1.27,1.45-3.12,2.6-5.55,3.45,3.7,.89,6.43,2.42,8.17,4.59,1.75,2.17,2.62,4.89,2.62,8.17,0,2.67-.62,5.07-1.86,7.21-1.24,2.13-2.94,3.82-5.1,5.06-1.34,.77-3.35,1.34-6.05,1.69-3.59,.47-5.96,.7-7.14,.7h-27.49v-51.54Zm16.07,20.21h6.93c2.48,0,4.21-.43,5.19-1.28,.97-.86,1.46-2.09,1.46-3.71,0-1.5-.49-2.67-1.46-3.52-.97-.84-2.67-1.27-5.08-1.27h-7.03v9.77Zm0,20.25h8.12c2.74,0,4.68-.49,5.8-1.46s1.69-2.28,1.69-3.92c0-1.52-.56-2.75-1.67-3.67-1.11-.93-3.06-1.39-5.85-1.39h-8.09v10.44Z"/><path class="cls-1" d="M167.85,142.01h42.68v11h-26.72v8.19h24.79v10.51h-24.79v10.16h27.49v11.67h-43.45v-51.54Z"/><path class="cls-1" d="M218.29,193.55v-51.54h26.54c4.92,0,8.68,.42,11.29,1.27s4.7,2.41,6.29,4.69c1.59,2.29,2.39,5.07,2.39,8.35,0,2.86-.61,5.33-1.83,7.4-1.22,2.07-2.9,3.76-5.03,5.04-1.36,.82-3.22,1.5-5.59,2.04,1.9,.63,3.28,1.27,4.15,1.9,.59,.42,1.43,1.33,2.55,2.71,1.11,1.38,1.86,2.45,2.23,3.2l7.71,14.93h-18l-8.51-15.75c-1.08-2.04-2.04-3.36-2.88-3.97-1.15-.8-2.45-1.2-3.9-1.2h-1.41v20.92h-16Zm16-30.66h6.71c.73,0,2.13-.23,4.22-.7,1.05-.21,1.92-.75,2.58-1.62s1-1.86,1-2.99c0-1.66-.53-2.94-1.58-3.83s-3.04-1.34-5.94-1.34h-7v10.48Z"/><path class="cls-1" d="M269.51,176.5l15.15-.95c.33,2.46,1,4.34,2,5.62,1.64,2.09,3.98,3.13,7.03,3.13,2.27,0,4.03-.53,5.26-1.6s1.85-2.3,1.85-3.71-.59-2.53-1.76-3.59c-1.17-1.05-3.89-2.05-8.16-2.99-6.98-1.57-11.97-3.66-14.94-6.26-3-2.6-4.5-5.92-4.5-9.95,0-2.65,.77-5.15,2.3-7.51,1.53-2.36,3.84-4.21,6.93-5.55,3.08-1.35,7.31-2.02,12.67-2.02,6.59,0,11.61,1.22,15.06,3.67,3.46,2.45,5.51,6.35,6.17,11.69l-15.01,.88c-.4-2.32-1.24-4.01-2.51-5.06-1.28-1.05-3.04-1.58-5.29-1.58-1.85,0-3.25,.39-4.18,1.18-.94,.79-1.41,1.74-1.41,2.87,0,.82,.39,1.56,1.16,2.21,.75,.68,2.53,1.31,5.34,1.9,6.96,1.5,11.95,3.02,14.96,4.55,3.01,1.54,5.2,3.44,6.57,5.71s2.06,4.82,2.06,7.63c0,3.3-.91,6.35-2.74,9.14s-4.38,4.9-7.66,6.35c-3.28,1.44-7.42,2.16-12.41,2.16-8.77,0-14.84-1.69-18.21-5.06s-5.29-7.66-5.73-12.87Z"/><path class="cls-1" d="M322.45,142.01h42.68v11h-26.72v8.19h24.79v10.51h-24.79v10.16h27.49v11.67h-43.45v-51.54Z"/><path class="cls-1" d="M406.99,172.45l13.96,4.22c-.94,3.91-2.41,7.18-4.43,9.81-2.02,2.62-4.52,4.61-7.51,5.94s-6.79,2-11.41,2c-5.6,0-10.18-.81-13.73-2.44-3.55-1.63-6.62-4.49-9.19-8.59-2.58-4.1-3.87-9.35-3.87-15.74,0-8.53,2.27-15.08,6.8-19.66,4.54-4.58,10.95-6.87,19.25-6.87,6.49,0,11.6,1.31,15.31,3.94,3.71,2.62,6.47,6.66,8.28,12.09l-14.06,3.13c-.49-1.57-1.01-2.72-1.55-3.45-.89-1.22-1.98-2.16-3.27-2.81-1.29-.66-2.73-.98-4.32-.98-3.61,0-6.38,1.45-8.3,4.35-1.45,2.15-2.18,5.54-2.18,10.15,0,5.71,.87,9.63,2.6,11.75,1.73,2.12,4.17,3.18,7.31,3.18s5.35-.86,6.91-2.57c1.56-1.71,2.69-4.2,3.39-7.45Z"/><path class="cls-1" d="M460.42,142.01h15.89v30.71c0,3.04-.47,5.92-1.42,8.62s-2.44,5.07-4.46,7.1c-2.03,2.03-4.15,3.45-6.38,4.27-3.09,1.15-6.81,1.72-11.14,1.72-2.51,0-5.24-.18-8.21-.53-2.96-.35-5.44-1.05-7.44-2.09-1.99-1.04-3.81-2.52-5.47-4.44-1.65-1.92-2.78-3.9-3.39-5.94-.98-3.28-1.48-6.18-1.48-8.71v-30.71h15.89v31.44c0,2.81,.78,5.01,2.34,6.59,1.56,1.58,3.72,2.37,6.49,2.37s4.89-.78,6.45-2.34c1.56-1.56,2.34-3.76,2.34-6.62v-31.44Z"/><path class="cls-1" d="M485.27,193.55v-51.54h26.54c4.92,0,8.68,.42,11.29,1.27s4.7,2.41,6.29,4.69,2.39,5.07,2.39,8.35c0,2.86-.61,5.33-1.83,7.4s-2.9,3.76-5.03,5.04c-1.36,.82-3.22,1.5-5.59,2.04,1.9,.63,3.28,1.27,4.15,1.9,.59,.42,1.43,1.33,2.55,2.71,1.11,1.38,1.86,2.45,2.23,3.2l7.71,14.93h-18l-8.51-15.75c-1.08-2.04-2.04-3.36-2.88-3.97-1.15-.8-2.45-1.2-3.9-1.2h-1.41v20.92h-16Zm16-30.66h6.71c.73,0,2.13-.23,4.22-.7,1.05-.21,1.92-.75,2.58-1.62s1-1.86,1-2.99c0-1.66-.53-2.94-1.58-3.83s-3.04-1.34-5.94-1.34h-7v10.48Z"/><path class="cls-1" d="M539.89,142.01h15.96v51.54h-15.96v-51.54Z"/><path class="cls-1" d="M561.86,142.01h48.41v12.73h-16.24v38.81h-15.93v-38.81h-16.24v-12.73Z"/><path class="cls-1" d="M610.47,142.01h17.69l10.38,17.39,10.41-17.39h17.59l-20.04,29.95v21.59h-15.96v-21.59l-20.07-29.95Z"/></g></g><g id="The_Texas_A_M_University_System"><g id="The_Texas_A_M_University_System-2"><path class="cls-1" d="M20.93,28.22c0,4.61,0,8.4,.24,10.42,.14,1.39,.43,2.45,1.87,2.64,.67,.1,1.73,.19,2.16,.19,.29,0,.38,.14,.38,.29,0,.24-.24,.38-.77,.38-2.64,0-5.66-.14-5.9-.14s-3.26,.14-4.7,.14c-.53,0-.77-.1-.77-.38,0-.14,.1-.29,.38-.29,.43,0,1.01-.1,1.44-.19,.96-.19,1.2-1.25,1.39-2.64,.24-2.02,.24-5.81,.24-10.42V7.92c-2.35,.05-4.75,.05-7.1,.1-2.98,.05-4.13,.38-4.9,1.54-.53,.82-.67,1.15-.82,1.49-.14,.38-.29,.48-.48,.48-.14,0-.24-.14-.24-.43,0-.48,.96-4.61,1.06-4.99,.1-.29,.29-.91,.48-.91,.34,0,.82,.48,2.11,.58,1.39,.14,3.22,.24,3.79,.24H28.8c1.54,0,2.64-.1,3.41-.24,.72-.1,1.15-.24,1.34-.24,.24,0,.24,.29,.24,.58,0,1.44-.14,4.75-.14,5.28,0,.43-.14,.62-.34,.62-.24,0-.34-.14-.38-.82,0-.19-.05-.34-.05-.53-.14-1.44-1.3-2.54-5.9-2.64-2.02-.05-4.03-.05-6.05-.1V28.22Z"/><path class="cls-1" d="M62.84,24.14c.14,0,.29,0,.29-.24v-.86c0-6.34,0-7.44-.1-8.74-.1-1.3-.29-1.97-1.87-2.26-.34-.05-.82-.1-1.2-.1-.34,0-.58-.14-.58-.34,0-.29,.24-.34,.67-.34,2.02,0,4.85,.14,5.04,.14s2.88-.14,4.32-.14c.48,0,.77,.05,.77,.34,0,.14-.14,.34-.53,.34-.29,0-.67,.05-.96,.1-1.3,.19-1.49,.96-1.58,2.3-.05,1.3-.05,2.4-.05,8.74v7.2c0,3.94,0,7.06,.19,8.78,.14,1.15,.38,2.11,1.63,2.26,.62,.1,1.25,.14,1.68,.14,.38,0,.62,.14,.62,.34,0,.24-.24,.34-.72,.34-2.4,0-5.18-.14-5.42-.14-.19,0-2.98,.14-4.27,.14-.48,0-.72-.1-.72-.38,0-.14,.14-.29,.53-.29s.72,0,1.1-.1c.82-.14,1.06-1.2,1.2-2.3,.24-1.73,.24-4.75,.24-8.64v-4.27c0-.19-.14-.29-.29-.29h-17.43c-.14,0-.24,.05-.24,.29v4.27c0,3.89,0,7.01,.24,8.74,.14,1.06,.38,2.02,1.63,2.16,.62,.1,1.34,.14,1.73,.14,.34,0,.58,.14,.58,.34s-.19,.34-.62,.34c-2.45,0-5.28-.14-5.52-.14-.14,0-3.07,.14-4.32,.14-.48,0-.77-.1-.77-.34,0-.14,.1-.34,.53-.34,.38,0,.77-.05,1.15-.14,.86-.19,1.06-1.1,1.2-2.16,.29-1.73,.24-4.94,.24-8.88v-7.1c0-6.34,0-7.58-.1-8.88-.1-1.25-.43-2.16-1.82-2.3-.43-.05-.91-.1-1.3-.1-.34,0-.53-.14-.53-.29,0-.29,.24-.34,.72-.34,2.06,0,4.37,.14,4.99,.14,.19,0,2.98-.14,4.32-.14,.48,0,.72,.1,.72,.34,0,.19-.19,.29-.48,.29s-.43,0-.96,.1c-1.2,.19-1.49,1.01-1.58,2.35-.05,1.3-.05,2.35-.05,8.69v.86c0,.24,.14,.24,.29,.24h17.38Z"/><path class="cls-1" d="M80.79,23.09c0-6.29,0-7.44-.1-8.74-.1-1.34-.43-2.02-1.82-2.3-.29-.05-.77-.1-1.15-.1-.34,0-.62-.14-.62-.29,0-.29,.24-.38,.72-.38,.96,0,2.26,.1,4.94,.14,.24,0,8.78,0,9.75-.05,.96-.05,1.49-.1,1.87-.24,.29-.1,.34-.14,.53-.14,.1,0,.19,.1,.19,.34,0,.29-.29,.96-.38,2.16-.05,.82-.1,1.58-.14,2.5,0,.43-.1,.72-.34,.72s-.34-.19-.34-.53c-.05-.72-.19-1.2-.34-1.54-.29-.96-.72-1.3-3.12-1.44-.62-.05-5.38-.1-5.47-.1-.14,0-.24,.1-.24,.38v10.9c0,.29,.05,.48,.29,.48,.58,0,5.47-.05,6.48-.14,1.1-.05,1.82-.19,2.21-.72,.19-.29,.34-.38,.53-.38,.1,0,.19,.05,.19,.29s-.19,1.15-.34,2.54c-.14,1.34-.14,2.3-.19,2.93-.05,.38-.14,.53-.34,.53-.24,0-.29-.29-.29-.62,0-.29-.05-.77-.14-1.15-.19-.62-.48-1.3-2.3-1.44-1.1-.1-4.99-.19-5.76-.19-.29,0-.34,.14-.34,.34v3.5c0,1.49-.05,5.71,0,6.53,.1,1.78,.34,2.69,1.34,3.12,.72,.34,1.87,.43,3.5,.43,.91,0,2.45,.05,3.65-.29,1.44-.43,1.78-1.39,2.16-3.17,.1-.48,.24-.67,.43-.67,.29,0,.29,.43,.29,.72,0,.34-.38,3.36-.53,4.18-.19,.96-.53,1.06-2.11,1.06-3.17,0-4.51-.1-6.19-.1-1.68-.05-3.89-.14-5.66-.14-1.1,0-2.02,.14-3.17,.14-.43,0-.67-.1-.67-.34,0-.19,.19-.34,.43-.34,.29,0,.62-.05,.96-.14,.86-.19,1.44-.82,1.54-3.79,.05-1.63,.1-3.6,.1-7.25v-7.2Z"/><path class="cls-1" d="M131.62,28.22c0,4.61,0,8.4,.24,10.42,.14,1.39,.43,2.45,1.87,2.64,.67,.1,1.73,.19,2.16,.19,.29,0,.38,.14,.38,.29,0,.24-.24,.38-.77,.38-2.64,0-5.66-.14-5.9-.14s-3.26,.14-4.7,.14c-.53,0-.77-.1-.77-.38,0-.14,.1-.29,.38-.29,.43,0,1.01-.1,1.44-.19,.96-.19,1.2-1.25,1.39-2.64,.24-2.02,.24-5.81,.24-10.42V7.92c-2.35,.05-4.75,.05-7.1,.1-2.98,.05-4.13,.38-4.9,1.54-.53,.82-.67,1.15-.82,1.49-.14,.38-.29,.48-.48,.48-.14,0-.24-.14-.24-.43,0-.48,.96-4.61,1.06-4.99,.1-.29,.29-.91,.48-.91,.34,0,.82,.48,2.11,.58,1.39,.14,3.22,.24,3.79,.24h18c1.54,0,2.64-.1,3.41-.24,.72-.1,1.15-.24,1.34-.24,.24,0,.24,.29,.24,.58,0,1.44-.14,4.75-.14,5.28,0,.43-.14,.62-.34,.62-.24,0-.34-.14-.38-.82,0-.19-.05-.34-.05-.53-.14-1.44-1.3-2.54-5.9-2.64-2.02-.05-4.03-.05-6.05-.1V28.22Z"/><path class="cls-1" d="M151.92,23.09c0-6.29,0-7.44-.1-8.74-.1-1.34-.43-2.02-1.82-2.3-.29-.05-.77-.1-1.15-.1-.34,0-.62-.14-.62-.29,0-.29,.24-.38,.72-.38,.96,0,2.26,.1,4.94,.14,.24,0,8.78,0,9.75-.05,.96-.05,1.49-.1,1.87-.24,.29-.1,.34-.14,.53-.14,.1,0,.19,.1,.19,.34,0,.29-.29,.96-.38,2.16-.05,.82-.1,1.58-.14,2.5,0,.43-.1,.72-.34,.72s-.34-.19-.34-.53c-.05-.72-.19-1.2-.34-1.54-.29-.96-.72-1.3-3.12-1.44-.62-.05-5.38-.1-5.47-.1-.14,0-.24,.1-.24,.38v10.9c0,.29,.05,.48,.29,.48,.58,0,5.47-.05,6.48-.14,1.1-.05,1.82-.19,2.21-.72,.19-.29,.34-.38,.53-.38,.1,0,.19,.05,.19,.29s-.19,1.15-.34,2.54c-.14,1.34-.14,2.3-.19,2.93-.05,.38-.14,.53-.34,.53-.24,0-.29-.29-.29-.62,0-.29-.05-.77-.14-1.15-.19-.62-.48-1.3-2.3-1.44-1.1-.1-4.99-.19-5.76-.19-.29,0-.34,.14-.34,.34v3.5c0,1.49-.05,5.71,0,6.53,.1,1.78,.34,2.69,1.34,3.12,.72,.34,1.87,.43,3.5,.43,.91,0,2.45,.05,3.65-.29,1.44-.43,1.78-1.39,2.16-3.17,.1-.48,.24-.67,.43-.67,.29,0,.29,.43,.29,.72,0,.34-.38,3.36-.53,4.18-.19,.96-.53,1.06-2.11,1.06-3.17,0-4.51-.1-6.19-.1-1.68-.05-3.89-.14-5.66-.14-1.1,0-2.02,.14-3.17,.14-.43,0-.67-.1-.67-.34,0-.19,.19-.34,.43-.34,.29,0,.62-.05,.96-.14,.86-.19,1.44-.82,1.54-3.79,.05-1.63,.1-3.6,.1-7.25v-7.2Z"/><path class="cls-1" d="M182.79,26.45l-6.82-11.04c-1.15-1.82-1.73-2.74-3.12-3.17-.72-.24-1.44-.29-1.68-.29-.48,0-.62-.19-.62-.34,0-.19,.14-.34,.72-.34,1.1,0,4.9,.14,5.18,.14,.38,0,2.64-.14,4.13-.14,.62,0,.77,.1,.77,.29,0,.24-.19,.38-.58,.38-.24,0-.86,.05-1.15,.14-.34,.1-.48,.34-.48,.58,0,.43,.19,.82,.58,1.49,1.97,3.6,3.36,5.95,5.57,9.46,1.25-1.78,5.66-8.45,6.05-9.36,.34-.62,.53-.91,.53-1.44,0-.29-.14-.67-.86-.77-.34-.05-.82-.1-1.06-.1-.34,0-.58-.14-.58-.38,0-.14,.14-.29,.67-.29,1.73,0,3.65,.14,3.98,.14,.38,0,2.26-.14,3.79-.14,.43,0,.58,.14,.58,.29,0,.24-.24,.38-.53,.38-.43,0-1.01,.1-1.54,.24-1.15,.34-2.02,1.73-3.12,3.26l-6.77,9.75c.86,1.34,8.02,13.1,8.93,14.21,.58,.72,1.2,1.58,2.4,1.87,.62,.14,1.1,.19,1.3,.19,.48,0,.58,.19,.58,.34,0,.24-.19,.34-.62,.34-2.69,0-5.38,.05-7.73-.1-.77-.05-.72-.19-.72-.43,0-.14,.19-.19,.48-.29,.48-.14,.34-.53-.05-1.15-2.21-3.98-4.61-7.92-7.06-11.9l-6.48,10.56c-.34,.58-.72,1.34-.72,1.78,0,.38,.29,.72,.86,.82,.29,.05,.34,.05,.58,.05,.43,0,.58,.14,.58,.34s-.14,.34-.53,.34c-1.01,0-3.84-.14-4.22-.14-.29,0-2.21,.14-3.7,.14-.48,0-.62-.19-.62-.34,0-.19,.19-.34,.53-.34,.29,0,.72-.05,1.39-.19,1.25-.34,2.16-1.25,3.5-3.26l7.68-11.57Z"/><path class="cls-1" d="M208.66,30.43c-.24,0-.38,.14-.48,.38l-2.11,6c-.48,1.34-.82,2.64-.82,3.41,0,.86,.53,1.25,1.58,1.25h.34c.43,0,.58,.14,.58,.34,0,.24-.38,.34-.72,.34-1.06,0-3.26-.14-3.79-.14-.48,0-2.59,.14-4.61,.14-.53,0-.77-.1-.77-.34,0-.19,.19-.34,.58-.34,.24,0,.67,0,.96-.05,2.06-.19,2.88-1.78,3.7-3.79l9.6-25.3c.53-1.39,.67-1.63,1.01-1.63,.24,0,.43,.19,.96,1.54,.67,1.58,7.2,18.34,9.75,24.34,1.58,3.79,2.98,4.42,3.65,4.66,.62,.24,1.3,.24,1.63,.24s.58,.1,.58,.34-.19,.34-.72,.34c-.48,0-4.08,0-7.3-.1-.91-.05-1.2-.1-1.2-.34,0-.14,.14-.29,.34-.34,.19-.1,.48-.34,.19-1.06l-3.79-9.65c-.1-.14-.19-.24-.38-.24h-8.74Zm8.16-1.68c.19,0,.19-.14,.14-.29l-3.79-10.61c-.24-.67-.29-.67-.53,0l-3.6,10.61c-.1,.19,0,.29,.1,.29h7.68Z"/><path class="cls-1" d="M233.09,41.62c-.62-.29-.62-.48-.62-1.63,0-2.21,.14-3.84,.19-4.51,.05-.43,.14-.67,.38-.67s.34,.14,.34,.48c0,.29,0,.86,.14,1.44,.62,3.12,3.46,4.32,6.24,4.32,3.98,0,5.9-2.74,5.9-5.14,0-2.74-1.25-4.42-4.75-7.25l-1.92-1.49c-4.61-3.7-5.57-6.24-5.57-9.07,0-4.42,3.5-7.39,8.88-7.39,1.68,0,2.83,.14,3.89,.38,.91,.19,1.3,.24,1.63,.24s.43,.1,.43,.29-.19,1.87-.19,4.66c0,.72-.1,1.01-.34,1.01s-.29-.19-.34-.53c-.05-.43-.14-1.44-.58-2.26-.24-.43-1.34-2.26-5.38-2.26-2.88,0-5.04,1.73-5.04,4.61,0,2.26,1.15,3.65,5.14,6.67l1.1,.86c4.99,3.84,6.29,6.38,6.29,9.79,0,1.73-.72,4.8-3.65,6.82-1.87,1.2-4.18,1.68-6.48,1.68-2.02,0-3.89-.24-5.71-1.06Z"/><path class="cls-1" d="M276.87,27.98c-.24,0-.38,.14-.48,.38l-2.88,8.5c-.43,1.2-.67,2.35-.67,3.22,0,.96,.91,1.39,1.73,1.39h.43c.48,0,.62,.1,.62,.29,0,.29-.43,.38-.86,.38-1.15,0-3.07-.14-3.6-.14s-3.17,.14-5.42,.14c-.62,0-.91-.1-.91-.38,0-.19,.24-.29,.67-.29,.34,0,.77-.05,1.15-.1,2.21-.29,3.17-2.11,4.03-4.51l10.9-29.81c.58-1.58,.77-1.87,1.06-1.87s.48,.24,1.06,1.73c.72,1.82,8.26,21.65,11.19,28.95,1.73,4.27,3.12,5.04,4.13,5.33,.72,.24,1.49,.29,1.87,.29,.29,0,.53,.05,.53,.29,0,.29-.43,.38-.96,.38-.72,0-4.22,0-7.54-.1-.91-.05-1.44-.05-1.44-.34,0-.19,.14-.29,.34-.34,.29-.1,.58-.53,.29-1.3l-4.46-11.81c-.1-.19-.19-.29-.43-.29h-10.32Zm9.7-1.73c.24,0,.24-.14,.19-.34l-4.56-12.96c-.24-.72-.48-.72-.72,0l-4.22,12.96c-.1,.24,0,.34,.14,.34h9.17Z"/><path class="cls-1" d="M301.06,32.21c0-5.62,3.5-9.36,7.25-11.57-1.78-2.5-2.26-4.46-2.26-6.62,0-3.79,3.89-8.83,10.32-8.83,2.06,0,4.18,.38,5.38,.96,1.01,.48,1.06,.77,1.06,1.44,0,1.78-.1,3.94-.29,5.18-.14,.86-.29,1.15-.53,1.15s-.29-.19-.29-.91c0-1.44-.34-2.88-1.49-4.08-1.15-1.25-2.74-2.11-4.8-2.11-2.88,0-6.1,1.78-6.1,6.29,0,3.74,2.59,6.86,7.58,12.29,1.63,1.78,7.54,7.3,9.07,8.59,1.34-1.82,2.45-5.04,2.45-7.97,0-.72-.19-1.63-.91-2.35-.53-.53-1.34-.62-1.97-.72-.53-.1-.96-.14-.96-.38s.38-.34,.77-.34c1.15,0,3.07,.05,5.76,.34,.72,.1,.86,.48,.86,.96,0,3.89-2.64,8.74-4.75,11.33,3.17,2.69,5.28,3.98,6.62,4.75,1.54,.91,3.89,1.87,5.62,1.87,.43,0,.77,.05,.77,.34,0,.24-.24,.34-.67,.34-2.78,0-4.7,.14-6.24,0-2.45-.19-4.42-.86-8.69-4.27-1.1,1.1-4.8,4.94-11.9,4.94-8.4,0-11.67-6.43-11.67-10.61Zm22.37,4.7c-2.69-2.26-7.39-6.91-8.64-8.26s-4.42-4.8-5.76-6.77c-2.5,1.63-4.03,4.22-4.03,8.06,0,6,4.08,10.22,9.46,10.22,4.46,0,7.34-1.58,8.98-3.26Z"/><path class="cls-1" d="M381.27,35.95c.19,1.73,.53,4.42,2.59,5.09,1.39,.43,2.5,.43,2.98,.43,.24,0,.53,.05,.53,.29,0,.29-.14,.38-.72,.38-1.06,0-6.53-.14-8.3-.29-1.1-.1-1.34-.24-1.34-.48,0-.19,.1-.24,.34-.34,.34-.14,.29-.86,.19-1.73l-2.3-25.06-11.91,25.25c-1.01,2.11-1.15,2.54-1.58,2.54-.34,0-.58-.48-1.49-2.21-1.25-2.35-5.38-10.66-5.62-11.14-.43-.86-5.95-12.72-6.48-14.02l-1.97,22.61c-.05,.77-.1,1.44-.1,2.26,0,1.2,.58,1.58,1.3,1.73,.82,.19,1.44,.19,1.73,.19s.48,.1,.48,.24c0,.34-.24,.43-.72,.43-1.78,0-4.22-.14-4.61-.14-.43,0-2.74,.14-4.03,.14-.48,0-.82-.05-.82-.38,0-.19,.24-.29,.48-.29,.38,0,.72,0,1.44-.14,1.58-.29,1.68-2.02,1.92-3.98l3.46-31.2c.05-.53,.24-.96,.53-.96s.48,.19,.72,.72l14.69,30.19,14.11-30.15c.19-.43,.38-.77,.72-.77s.48,.38,.58,1.3l3.22,29.47Z"/><path class="cls-1" d="M410.83,26.49c0,6.91,1.54,9.89,3.6,11.86,2.35,2.21,4.51,2.64,7.25,2.64,2.93,0,5.81-1.39,7.54-3.46,2.21-2.74,2.78-6.82,2.78-11.76v-6c0-7.49,0-8.83-.1-10.37-.1-1.63-.48-2.4-2.06-2.74-.38-.1-1.2-.14-1.63-.14-.19,0-.38-.1-.38-.29,0-.29,.24-.38,.77-.38,2.16,0,4.8,.14,5.09,.14,.34,0,2.59-.14,4.03-.14,.53,0,.77,.1,.77,.38,0,.19-.19,.29-.38,.29-.34,0-.62,.05-1.2,.14-1.3,.29-1.68,1.06-1.78,2.74-.1,1.54-.1,2.88-.1,10.37v5.14c0,5.18-.58,10.94-4.42,14.35-3.46,3.07-7.06,3.55-9.89,3.55-1.63,0-6.48-.19-9.89-3.41-2.35-2.26-4.18-5.62-4.18-12.62v-7.01c0-7.49,0-8.83-.1-10.37-.1-1.63-.48-2.4-2.06-2.74-.38-.1-1.2-.14-1.63-.14-.19,0-.38-.1-.38-.29,0-.29,.24-.38,.77-.38,2.16,0,5.09,.14,5.52,.14s3.31-.14,4.75-.14c.53,0,.77,.1,.77,.38,0,.19-.19,.29-.38,.29-.34,0-.62,.05-1.2,.14-1.3,.19-1.68,1.06-1.78,2.74-.1,1.54-.1,2.88-.1,10.37v6.72Z"/><path class="cls-1" d="M445.83,12.67c0-1.49,.14-1.97,.53-1.97,.34,0,1.15,.96,1.49,1.3,.43,.48,7.1,7.3,13.83,14.16,3.74,3.65,8.54,8.59,9.79,9.74l-.53-19.97c-.05-2.59-.34-3.46-1.63-3.79-.82-.14-1.54-.19-1.87-.19-.48,0-.58-.19-.58-.38,0-.24,.38-.29,.86-.29,2.06,0,4.08,.14,4.51,.14,.48,0,1.97-.14,3.84-.14,.53,0,.67,.05,.67,.29,0,.19-.14,.34-.43,.38-.29,.05-.67,.05-1.2,.14-1.1,.24-1.44,.72-1.44,3.6l-.1,24.1c0,2.4-.1,2.64-.43,2.64s-.82-.34-3.17-2.54c-.19-.1-6.87-6.72-11.04-10.8-4.99-5.18-9.79-10.18-10.99-11.42l.62,18.77c.1,3.31,.38,4.56,1.58,4.85,.77,.19,1.58,.19,1.97,.19s.58,.14,.58,.34c0,.24-.24,.34-.77,.34-2.59,0-4.32-.14-4.66-.14s-2.11,.14-4.18,.14c-.43,0-.72-.05-.72-.34,0-.19,.19-.34,.67-.34,.34,0,.86,0,1.49-.19,1.06-.34,1.3-1.63,1.3-5.14,0-22.9,.05-15.51,0-23.47Z"/><path class="cls-1" d="M486.34,23.09c0-6.34,0-7.49-.1-8.78-.1-1.3-.38-2.02-1.39-2.21-.48-.1-.82-.1-1.1-.14-.34-.05-.53-.14-.53-.34,0-.24,.19-.34,.72-.34,1.49,0,4.22,.14,4.37,.14,.19,0,2.98-.14,4.32-.14,.48,0,.72,.1,.72,.34,0,.19-.14,.29-.53,.34-.29,.05-.53,.05-.86,.1-1.39,.19-1.54,.91-1.63,2.3-.1,1.3-.05,2.4-.05,8.74v7.2c0,3.7-.05,7.06,.19,8.78,.19,1.39,.38,1.92,1.63,2.21,.62,.14,1.63,.19,1.82,.19,.43,.05,.53,.14,.53,.34s-.19,.34-.67,.34c-2.45,0-5.23-.14-5.47-.14-.14,0-2.98,.14-4.32,.14-.43,0-.77-.1-.77-.34,0-.19,.19-.34,.62-.34,.24,0,.77-.05,1.15-.14,.82-.19,.96-1.15,1.1-2.3,.24-1.73,.24-5.14,.24-8.74v-7.2Z"/><path class="cls-1" d="M500.5,15.21c-.96-2.26-1.3-2.83-3.02-3.12-.67-.1-1.2-.14-1.44-.14-.38,0-.58-.14-.58-.34,0-.24,.34-.34,.77-.34,2.21,0,4.99,.14,5.47,.14,.43,0,2.69-.14,4.46-.14,.58,0,.77,.1,.77,.29,0,.24-.19,.38-.72,.38-.67,0-1.1,.1-1.49,.24-.43,.24-.43,.53-.43,.82,0,.34,.29,1.25,.77,2.4l8.45,21.22c2.4-5.33,7.92-19.25,8.78-22.13,.24-.62,.38-1.25,.38-1.58,0-.29-.05-.62-.43-.77-.38-.14-1.01-.19-1.54-.19-.34,0-.62-.1-.62-.29,0-.24,.14-.38,.72-.38,1.73,0,4.03,.14,4.56,.14,.19,0,2.11-.14,3.31-.14,.48,0,.72,.1,.72,.29,0,.24-.19,.38-.53,.38-.58,0-1.2,0-2.06,.48-.53,.38-1.1,.96-2.26,3.74-.24,.58-2.64,6.1-4.8,11.04-2.54,5.95-4.51,10.46-5.33,12.1-1.3,2.64-1.44,3.36-1.92,3.36-.58,0-.82-.58-1.63-2.69l-10.37-24.77Z"/><path class="cls-1" d="M534.43,23.09c0-6.29,0-7.44-.1-8.74-.1-1.34-.43-2.02-1.82-2.3-.29-.05-.77-.1-1.15-.1-.34,0-.62-.14-.62-.29,0-.29,.24-.38,.72-.38,.96,0,2.26,.1,4.94,.14,.24,0,8.78,0,9.74-.05,.96-.05,1.49-.1,1.87-.24,.29-.1,.34-.14,.53-.14,.1,0,.19,.1,.19,.34,0,.29-.29,.96-.38,2.16-.05,.82-.1,1.58-.14,2.5,0,.43-.1,.72-.34,.72s-.34-.19-.34-.53c-.05-.72-.19-1.2-.34-1.54-.29-.96-.72-1.3-3.12-1.44-.62-.05-5.38-.1-5.47-.1-.14,0-.24,.1-.24,.38v10.9c0,.29,.05,.48,.29,.48,.58,0,5.47-.05,6.48-.14,1.1-.05,1.82-.19,2.21-.72,.19-.29,.34-.38,.53-.38,.1,0,.19,.05,.19,.29s-.19,1.15-.34,2.54c-.14,1.34-.14,2.3-.19,2.93-.05,.38-.14,.53-.34,.53-.24,0-.29-.29-.29-.62,0-.29-.05-.77-.14-1.15-.19-.62-.48-1.3-2.3-1.44-1.1-.1-4.99-.19-5.76-.19-.29,0-.34,.14-.34,.34v3.5c0,1.49-.05,5.71,0,6.53,.1,1.78,.34,2.69,1.34,3.12,.72,.34,1.87,.43,3.5,.43,.91,0,2.45,.05,3.65-.29,1.44-.43,1.78-1.39,2.16-3.17,.1-.48,.24-.67,.43-.67,.29,0,.29,.43,.29,.72,0,.34-.38,3.36-.53,4.18-.19,.96-.53,1.06-2.11,1.06-3.17,0-4.51-.1-6.19-.1-1.68-.05-3.89-.14-5.66-.14-1.1,0-2.02,.14-3.17,.14-.43,0-.67-.1-.67-.34,0-.19,.19-.34,.43-.34,.29,0,.62-.05,.96-.14,.86-.19,1.44-.82,1.54-3.79,.05-1.63,.1-3.6,.1-7.25v-7.2Z"/><path class="cls-1" d="M558.43,23.09c0-6.34,0-7.49-.1-8.78-.1-1.3-.43-2.02-1.92-2.3-.29-.05-.77-.1-1.15-.1-.34,0-.53-.1-.53-.29s.14-.34,.58-.34c2.06,0,4.99,.14,5.09,.14,.43,0,3.7-.14,5.04-.14,2.69,0,5.62,.24,7.87,1.82,.91,.67,2.88,2.59,2.88,5.86,0,2.64-1.3,6-5.09,9.07,3.5,4.32,6.38,7.87,8.83,10.42,2.3,2.35,3.75,2.74,5.09,2.93,.34,.05,1.34,.1,1.49,.1,.38,0,.53,.14,.53,.34,0,.24-.19,.34-.86,.34h-3.36c-2.26,0-3.31-.14-4.37-.58-2.02-.86-3.46-3.02-5.95-6.24-1.87-2.3-3.79-4.9-4.61-5.9-.19-.19-.29-.29-.58-.29l-4.94-.05c-.19,0-.24,.05-.24,.24v.67c0,3.84,0,7.34,.24,9.07,.14,1.15,.29,2.11,1.87,2.3,.48,.05,1.01,.1,1.39,.1,.43,0,.62,.14,.62,.29,0,.24-.19,.38-.67,.38-2.5,0-5.18-.14-5.38-.14-.77,0-2.88,.14-4.18,.14-.48,0-.67-.1-.67-.38,0-.14,.29-.29,.58-.29,.34,0,.67,0,1.06-.1,.82-.14,1.1-.67,1.25-1.82,.24-1.73,.19-5.66,.19-9.26v-7.2Zm3.7,3.41c0,.24,.05,.48,.24,.58,.62,.34,2.54,.62,4.27,.62,1.01,0,2.21-.05,3.22-.72,1.44-.91,2.4-3.02,2.4-6.1,0-5.23-2.78-8.11-7.06-8.11-1.2,0-2.21,.1-2.78,.24-.14,.05-.29,.19-.29,.43v13.06Z"/><path class="cls-1" d="M588.82,41.62c-.62-.29-.62-.48-.62-1.63,0-2.21,.14-3.84,.19-4.51,.05-.43,.14-.67,.38-.67s.34,.14,.34,.48c0,.29,0,.86,.14,1.44,.62,3.12,3.46,4.32,6.24,4.32,3.98,0,5.9-2.74,5.9-5.14,0-2.74-1.25-4.42-4.75-7.25l-1.92-1.49c-4.61-3.7-5.57-6.24-5.57-9.07,0-4.42,3.5-7.39,8.88-7.39,1.68,0,2.83,.14,3.89,.38,.91,.19,1.3,.24,1.63,.24s.43,.1,.43,.29-.19,1.87-.19,4.66c0,.72-.1,1.01-.34,1.01s-.29-.19-.34-.53c-.05-.43-.14-1.44-.58-2.26-.24-.43-1.34-2.26-5.38-2.26-2.88,0-5.04,1.73-5.04,4.61,0,2.26,1.15,3.65,5.14,6.67l1.1,.86c4.99,3.84,6.29,6.38,6.29,9.79,0,1.73-.72,4.8-3.65,6.82-1.87,1.2-4.18,1.68-6.48,1.68-2.02,0-3.89-.24-5.71-1.06Z"/><path class="cls-1" d="M613.39,23.09c0-6.34,0-7.49-.1-8.78-.1-1.3-.38-2.02-1.39-2.21-.48-.1-.82-.1-1.1-.14-.34-.05-.53-.14-.53-.34,0-.24,.19-.34,.72-.34,1.49,0,4.22,.14,4.37,.14,.19,0,2.98-.14,4.32-.14,.48,0,.72,.1,.72,.34,0,.19-.14,.29-.53,.34-.29,.05-.53,.05-.86,.1-1.39,.19-1.54,.91-1.63,2.3-.1,1.3-.05,2.4-.05,8.74v7.2c0,3.7-.05,7.06,.19,8.78,.19,1.39,.38,1.92,1.63,2.21,.62,.14,1.63,.19,1.82,.19,.43,.05,.53,.14,.53,.34s-.19,.34-.67,.34c-2.45,0-5.23-.14-5.47-.14-.14,0-2.98,.14-4.32,.14-.43,0-.77-.1-.77-.34,0-.19,.19-.34,.62-.34,.24,0,.77-.05,1.15-.14,.82-.19,.96-1.15,1.1-2.3,.24-1.73,.24-5.14,.24-8.74v-7.2Z"/><path class="cls-1" d="M640.04,30.29c0,3.7,.05,7.1,.24,8.88,.14,1.15,.24,1.82,1.44,2.11,.58,.14,1.49,.19,1.87,.19s.58,.14,.58,.29c0,.24-.14,.38-.62,.38-2.45,0-5.28-.14-5.47-.14s-3.02,.14-4.27,.14c-.53,0-.72-.1-.72-.34,0-.14,.14-.34,.53-.34s.67,0,1.06-.05c.91-.14,1.06-.72,1.25-2.35,.19-1.73,.19-5.18,.19-8.78V13.15c-1.58,0-4.13,0-6.05,.05-3.07,.05-3.74,.53-4.42,1.54-.43,.67-.62,1.25-.72,1.49-.14,.34-.24,.38-.43,.38s-.24-.19-.24-.43c-.05-.29,.67-3.46,.96-4.75,.14-.58,.29-.77,.43-.77,.34,0,1.25,.43,2.11,.53,1.68,.19,3.02,.24,3.07,.24h15.75c1.34,0,2.78-.1,3.46-.24,.62-.14,.77-.19,.91-.19,.19,0,.29,.24,.29,.43,0,1.34-.1,4.51-.1,4.9,0,.43-.19,.58-.34,.58-.24,0-.34-.19-.34-.58,0-.14,0-.19-.05-.67-.19-1.92-.82-2.4-5.66-2.45-1.82,0-3.31-.05-4.7-.05V30.29Z"/><path class="cls-1" d="M666.91,31.68c0-2.3-.34-3.17-1.06-4.42-.29-.53-5.86-9.6-7.34-11.67-1.3-1.82-1.78-2.4-2.45-2.93-.67-.48-1.3-.67-2.26-.72-.29,0-.53-.14-.53-.38,0-.14,.19-.29,.58-.29,.77,0,4.42,.14,4.51,.14,.29,0,1.87-.14,3.65-.14,.48,0,.62,.14,.62,.29,0,.19-.14,.29-.53,.38-.67,.14-.77,.38-.77,.77,0,.48,.29,.96,.62,1.58,.62,1.2,6.96,11.38,7.68,12.58,.77-1.68,6.14-10.47,6.82-11.67,.91-1.58,1.1-2.02,1.1-2.54,0-.62-.58-.62-1.1-.72-.38-.05-.53-.19-.53-.38,0-.14,.1-.29,.58-.29,1.15,0,2.16,.14,2.93,.14,.62,0,3.41-.14,4.22-.14,.43,0,.58,.14,.58,.29,0,.24-.24,.38-.58,.38-1.01,.05-1.73,.14-2.4,.62-.72,.48-1.01,.91-1.78,1.97-2.78,3.84-7.44,11.67-8.16,13.35-.58,1.49-.48,2.54-.48,3.79v3.5c0,.34,0,2.11,.1,3.84,.1,1.15,.19,1.97,1.68,2.26,.62,.14,1.44,.19,1.78,.19,.38,0,.53,.14,.53,.29,0,.24-.14,.38-.58,.38-2.4,0-5.38-.14-5.52-.14-.1,0-2.98,.14-4.32,.14-.48,0-.67-.14-.67-.38,0-.14,.14-.29,.48-.29,.38,0,.82-.05,1.2-.14,.82-.14,1.15-1.15,1.25-2.3,.14-1.73,.14-3.46,.14-3.84v-3.5Z"/><path class="cls-1" d="M701.57,41.52c-.67-.34-.72-.53-.72-1.82,0-2.4,.19-4.32,.24-5.09,.05-.53,.14-.77,.38-.77,.29,0,.34,.14,.34,.53,0,.43,0,1.1,.14,1.78,.72,3.55,3.89,4.9,7.1,4.9,4.61,0,6.87-3.31,6.87-6.38,0-3.31-1.39-5.23-5.52-8.64l-2.16-1.78c-5.09-4.18-6.24-7.15-6.24-10.42,0-5.14,3.84-8.64,9.94-8.64,1.87,0,3.26,.19,4.46,.48,.91,.19,1.3,.24,1.68,.24s.48,.1,.48,.34-.19,1.82-.19,5.09c0,.77-.1,1.1-.34,1.1-.29,0-.34-.24-.38-.62-.05-.58-.34-1.87-.62-2.4-.29-.53-1.58-2.54-6-2.54-3.31,0-5.91,2.06-5.91,5.57,0,2.74,1.25,4.46,5.86,8.06l1.34,1.06c5.66,4.46,7.01,7.44,7.01,11.28,0,1.97-.77,5.62-4.08,7.97-2.06,1.44-4.66,2.02-7.25,2.02-2.26,0-4.46-.34-6.43-1.3Z"/><path class="cls-1" d="M735.94,31.68c0-2.3-.34-3.17-1.06-4.42-.29-.53-5.86-9.6-7.34-11.67-1.3-1.82-1.78-2.4-2.45-2.93-.67-.48-1.3-.67-2.26-.72-.29,0-.53-.14-.53-.38,0-.14,.19-.29,.58-.29,.77,0,4.42,.14,4.51,.14,.29,0,1.87-.14,3.65-.14,.48,0,.62,.14,.62,.29,0,.19-.14,.29-.53,.38-.67,.14-.77,.38-.77,.77,0,.48,.29,.96,.62,1.58,.62,1.2,6.96,11.38,7.68,12.58,.77-1.68,6.14-10.47,6.82-11.67,.91-1.58,1.1-2.02,1.1-2.54,0-.62-.58-.62-1.1-.72-.38-.05-.53-.19-.53-.38,0-.14,.1-.29,.58-.29,1.15,0,2.16,.14,2.93,.14,.62,0,3.41-.14,4.22-.14,.43,0,.58,.14,.58,.29,0,.24-.24,.38-.58,.38-1.01,.05-1.73,.14-2.4,.62-.72,.48-1.01,.91-1.78,1.97-2.78,3.84-7.44,11.67-8.16,13.35-.58,1.49-.48,2.54-.48,3.79v3.5c0,.34,0,2.11,.1,3.84,.1,1.15,.19,1.97,1.68,2.26,.62,.14,1.44,.19,1.78,.19,.38,0,.53,.14,.53,.29,0,.24-.14,.38-.58,.38-2.4,0-5.38-.14-5.52-.14-.1,0-2.98,.14-4.32,.14-.48,0-.67-.14-.67-.38,0-.14,.14-.29,.48-.29,.38,0,.82-.05,1.2-.14,.82-.14,1.15-1.15,1.25-2.3,.14-1.73,.14-3.46,.14-3.84v-3.5Z"/><path class="cls-1" d="M755.47,41.62c-.62-.29-.62-.48-.62-1.63,0-2.21,.14-3.84,.19-4.51,.05-.43,.14-.67,.38-.67s.34,.14,.34,.48c0,.29,0,.86,.14,1.44,.62,3.12,3.46,4.32,6.24,4.32,3.98,0,5.9-2.74,5.9-5.14,0-2.74-1.25-4.42-4.75-7.25l-1.92-1.49c-4.61-3.7-5.57-6.24-5.57-9.07,0-4.42,3.5-7.39,8.88-7.39,1.68,0,2.83,.14,3.89,.38,.91,.19,1.3,.24,1.63,.24s.43,.1,.43,.29-.19,1.87-.19,4.66c0,.72-.1,1.01-.34,1.01s-.29-.19-.34-.53c-.05-.43-.14-1.44-.58-2.26-.24-.43-1.34-2.26-5.38-2.26-2.88,0-5.04,1.73-5.04,4.61,0,2.26,1.15,3.65,5.14,6.67l1.1,.86c4.99,3.84,6.29,6.38,6.29,9.79,0,1.73-.72,4.8-3.65,6.82-1.87,1.2-4.18,1.68-6.48,1.68-2.02,0-3.89-.24-5.71-1.06Z"/><path class="cls-1" d="M789.94,30.29c0,3.7,.05,7.1,.24,8.88,.14,1.15,.24,1.82,1.44,2.11,.58,.14,1.49,.19,1.87,.19s.58,.14,.58,.29c0,.24-.14,.38-.62,.38-2.45,0-5.28-.14-5.47-.14s-3.02,.14-4.27,.14c-.53,0-.72-.1-.72-.34,0-.14,.14-.34,.53-.34s.67,0,1.06-.05c.91-.14,1.06-.72,1.25-2.35,.19-1.73,.19-5.18,.19-8.78V13.15c-1.58,0-4.13,0-6.05,.05-3.07,.05-3.74,.53-4.42,1.54-.43,.67-.62,1.25-.72,1.49-.14,.34-.24,.38-.43,.38s-.24-.19-.24-.43c-.05-.29,.67-3.46,.96-4.75,.14-.58,.29-.77,.43-.77,.34,0,1.25,.43,2.11,.53,1.68,.19,3.02,.24,3.07,.24h15.75c1.34,0,2.78-.1,3.46-.24,.62-.14,.77-.19,.91-.19,.19,0,.29,.24,.29,.43,0,1.34-.1,4.51-.1,4.9,0,.43-.19,.58-.34,.58-.24,0-.34-.19-.34-.58,0-.14,0-.19-.05-.67-.19-1.92-.82-2.4-5.66-2.45-1.82,0-3.31-.05-4.7-.05V30.29Z"/><path class="cls-1" d="M808.66,23.09c0-6.29,0-7.44-.1-8.74-.1-1.34-.43-2.02-1.82-2.3-.29-.05-.77-.1-1.15-.1-.34,0-.62-.14-.62-.29,0-.29,.24-.38,.72-.38,.96,0,2.26,.1,4.94,.14,.24,0,8.78,0,9.74-.05,.96-.05,1.49-.1,1.87-.24,.29-.1,.34-.14,.53-.14,.1,0,.19,.1,.19,.34,0,.29-.29,.96-.38,2.16-.05,.82-.1,1.58-.14,2.5,0,.43-.1,.72-.34,.72s-.34-.19-.34-.53c-.05-.72-.19-1.2-.34-1.54-.29-.96-.72-1.3-3.12-1.44-.62-.05-5.38-.1-5.47-.1-.14,0-.24,.1-.24,.38v10.9c0,.29,.05,.48,.29,.48,.58,0,5.47-.05,6.48-.14,1.1-.05,1.82-.19,2.21-.72,.19-.29,.34-.38,.53-.38,.1,0,.19,.05,.19,.29s-.19,1.15-.34,2.54c-.14,1.34-.14,2.3-.19,2.93-.05,.38-.14,.53-.34,.53-.24,0-.29-.29-.29-.62,0-.29-.05-.77-.14-1.15-.19-.62-.48-1.3-2.3-1.44-1.1-.1-4.99-.19-5.76-.19-.29,0-.34,.14-.34,.34v3.5c0,1.49-.05,5.71,0,6.53,.1,1.78,.34,2.69,1.34,3.12,.72,.34,1.87,.43,3.5,.43,.91,0,2.45,.05,3.65-.29,1.44-.43,1.78-1.39,2.16-3.17,.1-.48,.24-.67,.43-.67,.29,0,.29,.43,.29,.72,0,.34-.38,3.36-.53,4.18-.19,.96-.53,1.06-2.11,1.06-3.17,0-4.51-.1-6.19-.1-1.68-.05-3.89-.14-5.66-.14-1.1,0-2.02,.14-3.17,.14-.43,0-.67-.1-.67-.34,0-.19,.19-.34,.43-.34,.29,0,.62-.05,.96-.14,.86-.19,1.44-.82,1.54-3.79,.05-1.63,.1-3.6,.1-7.25v-7.2Z"/><path class="cls-1" d="M865.3,36.86c.14,1.15,.43,3.84,2.3,4.27,.82,.19,1.78,.29,2.45,.34,.19,0,.62,.05,.62,.29s-.19,.38-.72,.38c-.86,0-6.05-.19-7.58-.29-1.06-.1-1.44-.19-1.44-.43,0-.14,.19-.34,.43-.43,.24-.1,.38-.67,.29-1.34l-2.11-20.55-10.18,20.64c-.91,1.87-1.06,2.3-1.49,2.3-.29,0-.53-.43-1.44-2.06-.77-1.39-4.61-9.07-4.9-9.5-.29-.58-4.99-9.89-5.38-10.9l-1.78,18.48c-.05,.67-.05,1.1-.05,1.82,0,.53,.24,1.25,1.2,1.44,.53,.1,.86,.1,1.34,.14,.38,.05,.48,.19,.48,.29,0,.34-.29,.38-.82,.38-1.54,0-3.6-.14-3.98-.14-.48,0-2.5,.14-3.7,.14-.43,0-.72-.05-.72-.38,0-.1,.19-.29,.62-.29,.34,0,.38,0,.91-.05,1.15-.1,1.58-1.25,1.82-3.17l3.22-26.35c.1-.82,.29-1.2,.53-1.2s.38,.14,.72,.77l12.87,24.91,12.24-24.87c.24-.53,.43-.82,.72-.82s.43,.43,.48,1.2l3.02,24.96Z"/></g></g></svg>