<svg xmlns="http://www.w3.org/2000/svg" width="278" height="54.21" viewBox="0 0 278 54.21"><defs><style>.a{fill:#3a0c0e;}</style></defs><g transform="translate(-371.046 -230.76)"><g transform="translate(371.046 230.76)"><g transform="translate(0 17.376)"><path class="a" d="M369.046,249.261a7.173,7.173,0,0,1,7.825-7.843,7.919,7.919,0,0,1,5.828,2.031,7.652,7.652,0,0,1,2.046,5.688,9.33,9.33,0,0,1-.893,4.358,6.393,6.393,0,0,1-2.584,2.646,8.541,8.541,0,0,1-4.211.946,9.7,9.7,0,0,1-4.242-.817,6.4,6.4,0,0,1-2.724-2.584A8.583,8.583,0,0,1,369.046,249.261Zm4.682.021a5.094,5.094,0,0,0,.853,3.3,3.231,3.231,0,0,0,4.658.02,5.617,5.617,0,0,0,.827-3.525,4.678,4.678,0,0,0-.864-3.125,2.95,2.95,0,0,0-2.341-.988,2.842,2.842,0,0,0-2.274,1A5.1,5.1,0,0,0,373.728,249.283Z" transform="translate(-369.046 -241.418)"/><path class="a" d="M379.651,241.576h11.577v3.257h-6.873v2.646h5.871v3.058h-5.871v6.19h-4.7Z" transform="translate(-362.362 -241.318)"/><path class="a" d="M387.727,241.576H399.3v3.257H392.43v2.646H398.3v3.058H392.43v6.19h-4.7Z" transform="translate(-357.272 -241.318)"/><path class="a" d="M395.9,241.576H400.6v15.152H395.9Z" transform="translate(-352.118 -241.318)"/><path class="a" d="M410.558,250.626l4.1,1.241a7.577,7.577,0,0,1-1.3,2.882,5.637,5.637,0,0,1-2.206,1.748,8.253,8.253,0,0,1-3.354.59,9.731,9.731,0,0,1-4.037-.719,6.385,6.385,0,0,1-2.7-2.525,8.556,8.556,0,0,1-1.138-4.627,7.86,7.86,0,0,1,2-5.778,9.1,9.1,0,0,1,10.16-.862,6.788,6.788,0,0,1,2.432,3.556l-4.134.919a3.472,3.472,0,0,0-.455-1.012,2.683,2.683,0,0,0-.96-.828,2.958,2.958,0,0,0-3.71.991,5.455,5.455,0,0,0-.639,2.983,5.679,5.679,0,0,0,.763,3.453,3.02,3.02,0,0,0,4.182.179A4.67,4.67,0,0,0,410.558,250.626Z" transform="translate(-349.585 -241.418)"/><path class="a" d="M409.765,241.576h12.548v3.234h-7.855v2.41h7.286v3.089h-7.286V253.3h8.081v3.432H409.765Z" transform="translate(-343.381 -241.318)"/><path class="a" d="M421.949,249.261a7.173,7.173,0,0,1,7.824-7.843,7.913,7.913,0,0,1,5.828,2.031,7.653,7.653,0,0,1,2.048,5.688,9.351,9.351,0,0,1-.893,4.358,6.4,6.4,0,0,1-2.584,2.646,8.552,8.552,0,0,1-4.213.946,9.711,9.711,0,0,1-4.242-.817,6.415,6.415,0,0,1-2.724-2.584A8.583,8.583,0,0,1,421.949,249.261Zm4.682.021a5.084,5.084,0,0,0,.853,3.3,3.23,3.23,0,0,0,4.656.02,5.606,5.606,0,0,0,.827-3.525,4.678,4.678,0,0,0-.862-3.125,2.952,2.952,0,0,0-2.343-.988,2.841,2.841,0,0,0-2.273,1A5.089,5.089,0,0,0,426.631,249.283Z" transform="translate(-335.702 -241.418)"/><path class="a" d="M432.554,241.576h11.575v3.257h-6.872v2.646h5.871v3.058h-5.871v6.19h-4.7Z" transform="translate(-329.018 -241.318)"/><path class="a" d="M444.477,241.576h4.692v15.152h-4.692Z" transform="translate(-321.503 -241.318)"/><path class="a" d="M448.849,241.576h4.373l5.7,8.383v-8.383h4.415v15.152h-4.415l-5.672-8.319v8.319h-4.405Z" transform="translate(-318.747 -241.318)"/><path class="a" d="M459.074,241.576h11.575v3.257h-6.872v2.646h5.871v3.058h-5.871v6.19h-4.7Z" transform="translate(-312.302 -241.318)"/><path class="a" d="M466.774,249.261a7.173,7.173,0,0,1,7.824-7.843,7.92,7.92,0,0,1,5.83,2.031,7.659,7.659,0,0,1,2.046,5.688,9.33,9.33,0,0,1-.893,4.358A6.4,6.4,0,0,1,479,256.141a8.551,8.551,0,0,1-4.213.946,9.712,9.712,0,0,1-4.242-.817,6.4,6.4,0,0,1-2.722-2.584A8.567,8.567,0,0,1,466.774,249.261Zm4.682.021a5.094,5.094,0,0,0,.853,3.3,3.229,3.229,0,0,0,4.656.02,5.6,5.6,0,0,0,.828-3.525,4.678,4.678,0,0,0-.864-3.125,2.952,2.952,0,0,0-2.343-.988,2.841,2.841,0,0,0-2.273,1A5.1,5.1,0,0,0,471.456,249.283Z" transform="translate(-307.449 -241.418)"/><path class="a" d="M477.4,256.728V241.576h7.8a11.276,11.276,0,0,1,3.318.373,3.536,3.536,0,0,1,1.85,1.379,4.277,4.277,0,0,1-1.316,6.112,5.666,5.666,0,0,1-1.643.6,4.638,4.638,0,0,1,1.219.558,4.765,4.765,0,0,1,.748.8,5.926,5.926,0,0,1,.655.941l2.268,4.39h-5.29l-2.5-4.63a3.527,3.527,0,0,0-.848-1.169,1.972,1.972,0,0,0-1.146-.351h-.414v6.149Zm4.7-9.012h1.974a7,7,0,0,0,1.239-.207,1.241,1.241,0,0,0,.761-.474,1.537,1.537,0,0,0-.171-2.005,2.816,2.816,0,0,0-1.748-.393h-2.056Z" transform="translate(-300.749 -241.318)"/><path class="a" d="M486.849,241.576h6.159l2.374,9.219,2.357-9.219h6.153v15.152h-3.833V245.172L497.1,256.728h-3.469l-2.949-11.555v11.555h-3.836Z" transform="translate(-294.796 -241.318)"/><path class="a" d="M508.452,254.227h-5.315l-.738,2.5h-4.78l5.695-15.152h5.106l5.695,15.152h-4.9Zm-.97-3.275L505.81,245.5l-1.655,5.448Z" transform="translate(-288.008 -241.318)"/><path class="a" d="M506.519,241.576H520.75v3.742h-4.775v11.41h-4.682v-11.41h-4.773Z" transform="translate(-282.398 -241.318)"/><path class="a" d="M516.078,241.576h4.692v15.152h-4.692Z" transform="translate(-276.373 -241.318)"/><path class="a" d="M520.069,249.261a7.173,7.173,0,0,1,7.825-7.843,7.915,7.915,0,0,1,5.828,2.031,7.652,7.652,0,0,1,2.046,5.688,9.329,9.329,0,0,1-.893,4.358,6.388,6.388,0,0,1-2.582,2.646,8.551,8.551,0,0,1-4.213.946,9.712,9.712,0,0,1-4.242-.817,6.4,6.4,0,0,1-2.724-2.584A8.584,8.584,0,0,1,520.069,249.261Zm4.684.021a5.1,5.1,0,0,0,.851,3.3,3.232,3.232,0,0,0,4.658.02,5.606,5.606,0,0,0,.827-3.525,4.678,4.678,0,0,0-.863-3.125,2.952,2.952,0,0,0-2.343-.988,2.844,2.844,0,0,0-2.274,1A5.1,5.1,0,0,0,524.753,249.283Z" transform="translate(-273.858 -241.418)"/><path class="a" d="M530.68,241.576h4.372l5.7,8.383v-8.383h4.413v15.152h-4.413l-5.674-8.319v8.319h-4.4Z" transform="translate(-267.17 -241.318)"/><path class="a" d="M369.049,254.559H383.28V258.3H378.5v11.41h-4.682V258.3h-4.773Z" transform="translate(-369.044 -233.135)"/><path class="a" d="M378.487,254.559h12.548v3.234h-7.855v2.41h7.286v3.089h-7.286v2.987h8.081v3.432H378.487Z" transform="translate(-363.095 -233.135)"/><path class="a" d="M397.584,263.609l4.105,1.241a7.576,7.576,0,0,1-1.3,2.882,5.635,5.635,0,0,1-2.206,1.748,8.25,8.25,0,0,1-3.353.59,9.734,9.734,0,0,1-4.037-.719,6.386,6.386,0,0,1-2.7-2.525,8.556,8.556,0,0,1-1.138-4.627,7.86,7.86,0,0,1,2-5.778,9.1,9.1,0,0,1,10.16-.862,6.788,6.788,0,0,1,2.432,3.556l-4.134.919a3.476,3.476,0,0,0-.455-1.012,2.684,2.684,0,0,0-.96-.828,2.959,2.959,0,0,0-3.711.991,5.441,5.441,0,0,0-.639,2.983,5.678,5.678,0,0,0,.763,3.453,3.02,3.02,0,0,0,4.182.179A4.654,4.654,0,0,0,397.584,263.609Z" transform="translate(-357.761 -233.235)"/><path class="a" d="M396.813,254.559h4.681v5.3h5.117v-5.3h4.7v15.152h-4.7v-6.13h-5.117v6.13h-4.681Z" transform="translate(-351.545 -233.135)"/><path class="a" d="M407.049,254.559h4.372l5.706,8.383v-8.383h4.413v15.152h-4.413l-5.673-8.319v8.319h-4.4Z" transform="translate(-345.093 -233.135)"/><path class="a" d="M416.9,262.244a7.173,7.173,0,0,1,7.824-7.843,7.92,7.92,0,0,1,5.83,2.031,7.659,7.659,0,0,1,2.046,5.688,9.35,9.35,0,0,1-.893,4.358,6.4,6.4,0,0,1-2.584,2.646,8.552,8.552,0,0,1-4.213.946,9.71,9.71,0,0,1-4.242-.817,6.4,6.4,0,0,1-2.723-2.584A8.567,8.567,0,0,1,416.9,262.244Zm4.682.021a5.094,5.094,0,0,0,.853,3.3,3.229,3.229,0,0,0,4.656.02,5.6,5.6,0,0,0,.828-3.525,4.681,4.681,0,0,0-.864-3.125,2.952,2.952,0,0,0-2.343-.988,2.841,2.841,0,0,0-2.273,1A5.1,5.1,0,0,0,421.582,262.266Z" transform="translate(-338.884 -233.235)"/><path class="a" d="M427.492,254.559h4.684v11.42h7.305v3.732H427.492Z" transform="translate(-332.208 -233.135)"/><path class="a" d="M434.984,262.244a7.171,7.171,0,0,1,7.824-7.843,7.914,7.914,0,0,1,5.828,2.031,7.653,7.653,0,0,1,2.048,5.688,9.33,9.33,0,0,1-.9,4.358,6.389,6.389,0,0,1-2.582,2.646,8.551,8.551,0,0,1-4.213.946,9.71,9.71,0,0,1-4.242-.817,6.407,6.407,0,0,1-2.724-2.584A8.583,8.583,0,0,1,434.984,262.244Zm4.682.021a5.084,5.084,0,0,0,.853,3.3,3.229,3.229,0,0,0,4.656.02,5.606,5.606,0,0,0,.827-3.525,4.681,4.681,0,0,0-.862-3.125,2.952,2.952,0,0,0-2.343-.988,2.841,2.841,0,0,0-2.273,1A5.089,5.089,0,0,0,439.666,262.266Z" transform="translate(-327.486 -233.235)"/><path class="a" d="M453.419,264.323V261.17h7.234v6.461a14.932,14.932,0,0,1-3.675,1.927,12.479,12.479,0,0,1-3.789.512,9.2,9.2,0,0,1-4.4-.921,6.275,6.275,0,0,1-2.636-2.739,8.991,8.991,0,0,1-.936-4.175,8.734,8.734,0,0,1,1.022-4.314,6.645,6.645,0,0,1,3-2.786,9.768,9.768,0,0,1,4.143-.734,11.646,11.646,0,0,1,3.758.455,4.889,4.889,0,0,1,2.067,1.41,6.316,6.316,0,0,1,1.236,2.424l-4.518.805a2.434,2.434,0,0,0-.947-1.312,2.948,2.948,0,0,0-1.7-.455,3.07,3.07,0,0,0-2.455,1.069,5.162,5.162,0,0,0-.915,3.384,5.3,5.3,0,0,0,.926,3.515,3.249,3.249,0,0,0,2.579,1.053,4.854,4.854,0,0,0,1.5-.227,8.207,8.207,0,0,0,1.632-.776v-1.425Z" transform="translate(-321.033 -233.235)"/><path class="a" d="M454.869,254.559h5.2l3.052,5.111,3.058-5.111h5.173l-5.89,8.807v6.345h-4.694v-6.345Z" transform="translate(-314.953 -233.135)"/></g><g transform="translate(0.277)"><g transform="translate(0 0.106)"><path class="a" d="M372.962,231.751l-1.973.052c-.768.028-1.086.093-1.285.385a1.57,1.57,0,0,0-.225.463c-.026.106-.067.16-.145.16s-.119-.067-.119-.212c0-.212.251-1.417.277-1.523.039-.173.08-.251.158-.251a3.083,3.083,0,0,0,.571.158c.383.039.887.065,1.324.065h5.241a6.459,6.459,0,0,0,.915-.065,2.974,2.974,0,0,1,.357-.067c.093,0,.106.08.106.279,0,.277-.039,1.192-.039,1.536-.013.132-.041.212-.121.212-.1,0-.132-.067-.145-.266l-.013-.145c-.026-.344-.383-.714-1.562-.742l-1.668-.039v5.427c0,1.218,0,2.264.065,2.833.041.372.119.662.517.716a5.659,5.659,0,0,0,.675.052c.145,0,.212.039.212.106,0,.093-.106.132-.251.132-.874,0-1.709-.039-2.079-.039-.3,0-1.14.039-1.668.039-.173,0-.266-.039-.266-.132,0-.067.054-.106.212-.106a2.169,2.169,0,0,0,.476-.052c.266-.054.346-.344.385-.729.067-.556.067-1.6.067-2.82Z" transform="translate(-369.216 -230.825)"/><path class="a" d="M382.146,235.422a.069.069,0,0,0,.068-.078v-.24c0-1.731,0-2.049-.023-2.414-.023-.386-.114-.569-.489-.649a2.35,2.35,0,0,0-.445-.034c-.126,0-.194-.023-.194-.1s.08-.1.24-.1c.615,0,1.332.034,1.64.034.274,0,.99-.034,1.435-.034.16,0,.24.023.24.1s-.069.1-.205.1a2.031,2.031,0,0,0-.331.034c-.307.057-.4.251-.421.649-.023.365-.023.683-.023,2.414v2c0,1.047,0,1.947.057,2.437.034.318.1.569.443.615a4.808,4.808,0,0,0,.58.046c.125,0,.183.034.183.091,0,.08-.091.114-.227.114-.742,0-1.457-.034-1.777-.034-.263,0-.98.034-1.423.034-.16,0-.24-.034-.24-.114,0-.057.046-.091.183-.091a1.847,1.847,0,0,0,.409-.046c.228-.046.285-.3.331-.626.057-.479.057-1.379.057-2.426v-1a.064.064,0,0,0-.068-.067H377.8a.06.06,0,0,0-.068.067v1c0,1.047,0,1.947.057,2.437.034.318.1.569.443.615a4.807,4.807,0,0,0,.58.046c.126,0,.183.034.183.091,0,.08-.091.114-.227.114-.74,0-1.458-.034-1.777-.034-.262,0-.98.034-1.435.034-.148,0-.228-.034-.228-.114,0-.057.046-.091.183-.091a1.863,1.863,0,0,0,.411-.046c.227-.046.284-.3.329-.626.057-.479.057-1.379.057-2.426v-2c0-1.731,0-2.049-.023-2.414-.023-.386-.114-.569-.489-.649a2.349,2.349,0,0,0-.445-.034c-.126,0-.192-.023-.192-.1s.078-.1.238-.1c.615,0,1.332.034,1.64.034.274,0,.991-.034,1.435-.034.16,0,.24.023.24.1s-.069.1-.205.1a2.031,2.031,0,0,0-.331.034c-.307.057-.4.251-.421.649-.023.365-.023.683-.023,2.414v.24a.069.069,0,0,0,.068.078Z" transform="translate(-365.473 -230.21)"/><path class="a" d="M383.205,235.139c0-1.731,0-2.049-.023-2.414-.023-.386-.114-.569-.489-.649a2.341,2.341,0,0,0-.443-.034c-.126,0-.194-.023-.194-.1s.08-.1.251-.1c.307,0,.638.011.921.011s.558.023.717.023c.365,0,2.631,0,2.847-.011a4.558,4.558,0,0,0,.491-.068,1.016,1.016,0,0,1,.181-.046c.057,0,.069.046.069.1a7.323,7.323,0,0,0-.091.74c-.011.114-.034.616-.057.752-.011.057-.033.126-.112.126s-.1-.057-.1-.16a1.215,1.215,0,0,0-.068-.409c-.08-.205-.194-.342-.763-.411-.194-.021-1.389-.044-1.617-.044-.057,0-.08.034-.08.112v2.881c0,.08.011.126.08.126.251,0,1.56,0,1.823-.023a.8.8,0,0,0,.546-.171c.08-.09.125-.147.183-.147s.08.023.08.091-.046.249-.091.83c-.011.228-.046.683-.046.763s0,.217-.1.217a.09.09,0,0,1-.1-.1,2.972,2.972,0,0,0-.046-.409c-.057-.228-.217-.4-.637-.445-.217-.023-1.343-.034-1.617-.034-.057,0-.069.046-.069.114v.9c0,.388-.011,1.435,0,1.766.023.786.205.955,1.366.955a2.918,2.918,0,0,0,1.071-.135c.3-.137.432-.377.512-.843.023-.126.046-.171.125-.171s.091.091.091.205a8.934,8.934,0,0,1-.148,1.263c-.08.3-.183.3-.615.3-.854,0-1.48-.023-1.969-.034s-.843-.034-1.185-.034c-.124,0-.375,0-.649.011s-.558.023-.786.023c-.147,0-.228-.034-.228-.114,0-.057.046-.091.183-.091a1.861,1.861,0,0,0,.411-.046c.227-.046.284-.3.329-.626.057-.479.057-1.379.057-2.426Z" transform="translate(-361.123 -230.245)"/><path class="a" d="M392.022,231.751l-1.973.052c-.768.028-1.086.093-1.285.385a1.612,1.612,0,0,0-.225.463c-.026.106-.065.16-.145.16s-.119-.067-.119-.212c0-.212.251-1.417.279-1.523.039-.173.078-.251.158-.251a3.05,3.05,0,0,0,.569.158c.385.039.887.065,1.324.065h5.243a6.43,6.43,0,0,0,.913-.065,3.04,3.04,0,0,1,.357-.067c.093,0,.106.08.106.279,0,.277-.039,1.192-.039,1.536-.013.132-.039.212-.119.212-.106,0-.132-.067-.145-.266l-.015-.145c-.026-.344-.383-.714-1.562-.742l-1.668-.039v5.427c0,1.218,0,2.264.067,2.833.039.372.119.662.515.716a5.683,5.683,0,0,0,.675.052c.147,0,.212.039.212.106,0,.093-.1.132-.251.132-.874,0-1.707-.039-2.079-.039-.3,0-1.138.039-1.668.039-.171,0-.264-.039-.264-.132,0-.067.052-.106.212-.106a2.194,2.194,0,0,0,.476-.052c.264-.054.344-.344.383-.729.067-.556.067-1.6.067-2.82Z" transform="translate(-357.203 -230.825)"/><path class="a" d="M395.365,235.179c0-1.707,0-2.022-.023-2.38-.023-.381-.112-.561-.483-.639a2.272,2.272,0,0,0-.439-.034c-.124,0-.191-.023-.191-.1s.078-.1.248-.1c.3,0,.628.011.908.011s.551.021.708.021c.359,0,2.594,0,2.806-.01a4.494,4.494,0,0,0,.484-.068,1.027,1.027,0,0,1,.179-.044c.055,0,.067.044.067.1,0,.078-.055.214-.09.729-.011.112-.033.606-.057.742-.01.055-.033.124-.111.124s-.1-.057-.1-.158a1.192,1.192,0,0,0-.068-.4c-.078-.2-.191-.336-.752-.4-.191-.021-1.369-.044-1.594-.044-.055,0-.078.034-.078.113v2.84c0,.078.011.124.078.124.248,0,1.539,0,1.8-.023a.79.79,0,0,0,.54-.17c.078-.09.122-.145.179-.145s.078.023.078.09-.046.248-.09.82c-.011.223-.046.673-.046.752s0,.214-.1.214a.089.089,0,0,1-.1-.1,3.167,3.167,0,0,0-.044-.4c-.057-.223-.214-.393-.629-.439-.214-.021-1.324-.033-1.594-.033-.056,0-.067.044-.067.112v.887c0,.381-.011,1.413,0,1.739.023.774.2.942,1.347.942a2.87,2.87,0,0,0,1.056-.134c.292-.135.426-.37.5-.831.023-.124.046-.168.124-.168s.09.09.09.2a8.925,8.925,0,0,1-.145,1.246c-.078.292-.179.292-.606.292-.841,0-1.459-.023-1.942-.033s-.831-.034-1.167-.034c-.124,0-.372,0-.641.011s-.549.023-.774.023c-.145,0-.225-.034-.225-.112,0-.057.046-.091.181-.091a1.8,1.8,0,0,0,.4-.044c.225-.046.282-.292.326-.618.057-.471.057-1.358.057-2.39Z" transform="translate(-353.45 -230.189)"/><path class="a" d="M403.407,235.683c.359.551,2.178,3.593,2.458,3.952a1.182,1.182,0,0,0,.65.471,1.432,1.432,0,0,0,.427.067c.078,0,.145.023.145.091s-.09.112-.214.112h-.336c-.269,0-1.156,0-2.02-.023-.293-.011-.383-.034-.383-.112s.057-.1.158-.124c.055-.011.1-.112.021-.258-.616-1.1-1.257-2.212-1.772-3.054l-1.663,2.683a.824.824,0,0,0-.156.471.253.253,0,0,0,.214.191,1.677,1.677,0,0,0,.258.021c.067,0,.135.034.135.1s-.078.1-.225.1h-.2c-.067,0-.774-.034-1.055-.034-.214,0-.763.034-.942.034h-.192c-.111,0-.168-.034-.168-.1s.067-.1.158-.1a1.722,1.722,0,0,0,.416-.055c.324-.09.538-.3.919-.841l2.144-3.065-1.93-3.2a1.673,1.673,0,0,0-.933-.843,1.721,1.721,0,0,0-.471-.078.1.1,0,0,1-.112-.112c0-.067.08-.09.225-.09.269,0,1.179.033,1.707.033.156,0,.786-.033,1.2-.033.158,0,.225.023.225.1s-.067.1-.168.1a1.072,1.072,0,0,0-.3.044.185.185,0,0,0-.135.181.86.86,0,0,0,.113.324c.482.9.988,1.718,1.427,2.481.324-.494,1.358-2.054,1.526-2.369a.962.962,0,0,0,.124-.426.244.244,0,0,0-.191-.2,1.363,1.363,0,0,0-.36-.034c-.067,0-.134-.023-.134-.1s.078-.1.235-.1c.439,0,.91.033,1.123.033s.685-.033,1.1-.033c.124,0,.2.033.2.1s-.068.1-.181.1a1.537,1.537,0,0,0-.4.067c-.259.067-.483.382-.82.876Z" transform="translate(-350.73 -230.154)"/><path class="a" d="M406.652,237.541c-.057,0-.08.023-.1.091l-.606,1.6a2.171,2.171,0,0,0-.168.685c0,.2.1.347.448.347h.168c.135,0,.17.023.17.091,0,.09-.068.113-.192.113-.359,0-.841-.034-1.188-.034-.124,0-.742.034-1.325.034-.145,0-.214-.023-.214-.113,0-.068.046-.091.135-.091a3.337,3.337,0,0,0,.347-.021c.517-.068.73-.45.955-1.011l2.817-7.049c.135-.326.2-.45.315-.45s.168.1.28.36c.269.616,2.066,5.2,2.785,6.9.425,1.009.752,1.167.986,1.223a2.427,2.427,0,0,0,.473.044c.09,0,.145.011.145.091s-.1.113-.517.113-1.223,0-2.121-.023c-.2-.011-.336-.011-.336-.09s.044-.091.157-.1a.185.185,0,0,0,.1-.259l-.9-2.38a.108.108,0,0,0-.112-.078Zm2.289-.561c.057,0,.068-.034.057-.067l-1.011-2.773c-.011-.046-.023-.1-.055-.1s-.057.055-.069.1l-1.032,2.762c-.011.044,0,.078.044.078Z" transform="translate(-347.518 -230.25)"/><path class="a" d="M409.98,240.3c-.179-.078-.214-.135-.214-.381,0-.618.046-1.291.057-1.47s.044-.292.134-.292.113.1.113.191a2.41,2.41,0,0,0,.1.572,1.547,1.547,0,0,0,1.606,1.133,1.363,1.363,0,0,0,1.5-1.28c0-.549-.168-1.066-1.1-1.795l-.517-.4c-1.236-.965-1.661-1.751-1.661-2.661,0-1.236,1.032-2.121,2.592-2.121a5.462,5.462,0,0,1,1.493.189c.1.023.158.057.158.135,0,.147-.046.471-.046,1.348,0,.246-.034.336-.124.336s-.112-.067-.112-.2a1.351,1.351,0,0,0-.292-.74,1.417,1.417,0,0,0-1.223-.551,1.182,1.182,0,0,0-1.337,1.158c0,.515.259.908,1.192,1.616l.313.236c1.358,1.021,1.842,1.795,1.842,2.861a2.265,2.265,0,0,1-1.056,1.955,3.248,3.248,0,0,1-1.785.46A3.883,3.883,0,0,1,409.98,240.3Z" transform="translate(-343.658 -230.215)"/></g><g transform="translate(74.367)"><path class="a" d="M418.379,237.6c-.067,0-.093.026-.119.106l-.716,1.893a2.569,2.569,0,0,0-.2.807c0,.24.119.411.53.411h.2c.16,0,.2.026.2.106,0,.106-.078.132-.225.132-.424,0-.993-.039-1.4-.039-.145,0-.874.039-1.562.039-.171,0-.251-.026-.251-.132,0-.08.052-.106.158-.106a4.084,4.084,0,0,0,.411-.026c.61-.08.861-.53,1.125-1.192l3.324-8.314c.158-.383.238-.528.37-.528s.2.119.331.422c.318.729,2.436,6.13,3.283,8.143.5,1.19.887,1.376,1.164,1.443a2.954,2.954,0,0,0,.556.052c.106,0,.173.013.173.106s-.119.132-.61.132-1.443,0-2.5-.026c-.24-.013-.4-.013-.4-.106s.052-.106.186-.119a.216.216,0,0,0,.119-.3l-1.06-2.806a.126.126,0,0,0-.132-.093Zm2.7-.662c.065,0,.08-.041.065-.08l-1.192-3.27c-.013-.052-.026-.119-.065-.119s-.067.067-.08.119l-1.218,3.257c-.013.052,0,.093.054.093Z" transform="translate(-414.832 -230.76)"/></g><g transform="translate(85.083)"><path class="a" d="M423.564,235.14a2.928,2.928,0,0,1-.675-1.88c-.013-1.047.913-2.436,3.217-2.436a4.545,4.545,0,0,1,1.6.277c.225.08.225.186.225.344a15.645,15.645,0,0,1-.147,1.7c-.026.2-.078.225-.158.225s-.093-.054-.093-.253a1.726,1.726,0,0,0-.383-1.112,1.824,1.824,0,0,0-1.47-.6,1.414,1.414,0,0,0-1.417,1.51c0,1.244,1.14,2.3,2.2,3.481.45.517,2.079,1.986,2.33,2.211a3.977,3.977,0,0,0,.636-2.038.782.782,0,0,0-.251-.61.992.992,0,0,0-.649-.2c-.08,0-.158-.028-.158-.106,0-.106.106-.134.212-.134a14.742,14.742,0,0,1,1.588.093c.251.026.45.106.45.266a5.269,5.269,0,0,1-1.3,3.137,13.6,13.6,0,0,0,1.841,1.3,3.892,3.892,0,0,0,1.417.463c.119,0,.186.013.186.119,0,.08-.106.119-.4.119h-1.019A3.985,3.985,0,0,1,428.223,240a4.253,4.253,0,0,1-3.137,1.2c-2.833,0-3.681-1.774-3.681-2.926A3.889,3.889,0,0,1,423.564,235.14Zm4.144,4.434c-.768-.662-2.04-1.906-2.383-2.277s-1.192-1.324-1.417-1.655a2.372,2.372,0,0,0-.913,2.013,2.552,2.552,0,0,0,2.542,2.713A3.513,3.513,0,0,0,427.708,239.575Z" transform="translate(-421.405 -230.719)"/><path class="a" d="M429.918,231.1c.039-.225.119-.344.225-.344s.186.065.357.409l3.614,7.467,3.6-7.56c.106-.21.173-.316.29-.316s.2.132.24.409l1.2,8.182c.119.833.251,1.218.649,1.337a2.645,2.645,0,0,0,.82.132c.119,0,.212.013.212.093,0,.106-.16.145-.344.145-.331,0-2.159-.039-2.688-.08-.3-.026-.383-.065-.383-.145s.054-.106.145-.145.119-.2.067-.569l-.794-5.825h-.054l-2.886,6.009c-.3.623-.372.742-.491.742s-.251-.264-.463-.662c-.318-.608-1.363-2.635-1.523-3-.119-.279-.913-1.947-1.376-2.939h-.054l-.688,5.269a5.317,5.317,0,0,0-.039.623c0,.251.171.37.4.422a2.514,2.514,0,0,0,.556.067c.106,0,.2.026.2.093,0,.119-.119.145-.318.145-.556,0-1.151-.039-1.389-.039s-.888.039-1.311.039c-.132,0-.238-.026-.238-.145,0-.067.078-.093.21-.093a1.726,1.726,0,0,0,.4-.039c.37-.08.476-.6.543-1.047Z" transform="translate(-417.591 -230.76)"/></g><g transform="translate(112.009 0.337)"><path class="a" d="M447.931,230.967c-.321,0-.765.016-1.087.028-.174.007-.31.011-.362.011l-.038,0c-.708-.031-1.167-.038-1.427-.038-.106,0-.354,0-.354.2s.227.2.3.2a2.411,2.411,0,0,1,.44.036c.35.073.453.212.479.646.025.4.025.753.025,2.692v1.59c0,1.348-.052,2.432-.713,3.093a2.434,2.434,0,0,1-1.694.662,2.249,2.249,0,0,1-1.534-.5c-.5-.406-.96-1.058-.96-3.06v-1.78c0-1.938,0-2.289.024-2.693.024-.435.122-.593.409-.646a1.877,1.877,0,0,1,.344-.034c.192,0,.29-.068.29-.2,0-.2-.248-.2-.367-.2-.253,0-.613.013-.931.023-.261.008-.5.016-.633.016-.165,0-.4-.007-.678-.015-.372-.011-.794-.024-1.18-.024-.119,0-.367,0-.367.2s.228.2.3.2a2.587,2.587,0,0,1,.479.036c.349.073.452.212.478.646.026.4.026.753.026,2.692V236.6a4.335,4.335,0,0,0,1.159,3.435,4.188,4.188,0,0,0,2.882.9,3.9,3.9,0,0,0,2.7-.936c1.087-.933,1.237-2.423,1.237-3.895v-1.36c0-1.938,0-2.289.026-2.692.024-.437.122-.6.409-.647a1.851,1.851,0,0,1,.344-.034c.086,0,.315,0,.315-.2S448.035,230.967,447.931,230.967Z" transform="translate(-437.921 -230.967)"/><path class="a" d="M453.834,232.051c-.362,0-.665.015-.866.024-.091,0-.16.008-.2.008-.088,0-.218,0-.38-.011-.261-.01-.585-.021-.931-.021-.134,0-.357,0-.357.171s.188.173.248.173a1.765,1.765,0,0,1,.546.059c.21.088.313.246.323.91l.106,4.739c-.13-.134-.39-.406-.7-.732-.528-.553-1.185-1.242-1.609-1.666-1.638-1.627-3.342-3.461-3.358-3.477-.037-.039-.07-.075-.1-.109-.132-.145-.228-.251-.355-.251-.215,0-.215.321-.215.442l-.1,6.418c-.011.968-.064,1.206-.282,1.273a1.859,1.859,0,0,1-.468.052c-.205,0-.248.086-.248.16,0,.183.2.183.313.183.4,0,.769-.016.99-.026l.181-.007c.072,0,.171,0,.3.01.248.01.585.023,1.045.023.088,0,.323,0,.323-.183,0-.16-.194-.16-.258-.16a1.616,1.616,0,0,1-.54-.073c-.142-.049-.306-.222-.331-1.135l-.114-4.394.122.135c.457.5,1.407,1.549,2.359,2.491.458.453.957.955,1.436,1.436.7.7,1.356,1.365,1.762,1.751a.694.694,0,0,0,.421.261c.215,0,.215-.289.215-.409l.119-6.841c.011-.647.117-.786.346-.851a1.133,1.133,0,0,1,.306-.029c.223,0,.269-.095.269-.173C454.157,232.051,453.947,232.051,453.834,232.051Z" transform="translate(-433.527 -230.4)"/><path class="a" d="M454.947,239.981a4.621,4.621,0,0,1-.543-.044c-.274-.036-.339-.184-.37-.465-.042-.463-.042-1.3-.042-2.367V235.2c0-1.651,0-1.95.021-2.294.021-.373.1-.507.339-.549a1.761,1.761,0,0,1,.313-.031c.165,0,.248-.062.248-.183,0-.161-.22-.161-.3-.161-.23,0-.528.01-.794.02-.214.007-.408.013-.53.013-.145,0-.372-.007-.611-.015-.284-.01-.576-.018-.8-.018-.117,0-.334,0-.334.161,0,.121.083.183.248.183a1.458,1.458,0,0,1,.373.041c.147.033.287.122.311.54.021.344.021.642.021,2.294v1.907c0,1.063,0,1.9-.054,2.356-.033.326-.1.447-.256.478a1.723,1.723,0,0,1-.375.042c-.163,0-.248.054-.248.16,0,.083.05.183.292.183s.572-.011.858-.02c.214-.007.4-.013.509-.013s.285,0,.5.011c.336.008.755.021,1.193.021.253,0,.28-.129.28-.183S455.163,239.981,454.947,239.981Z" transform="translate(-429.334 -230.329)"/><path class="a" d="M462.981,231.98c-.187,0-.43.01-.646.02-.156.007-.3.013-.373.013-.047,0-.129,0-.238-.008-.215-.01-.54-.024-.9-.024-.142,0-.378,0-.378.183,0,.161.2.161.259.161a1.39,1.39,0,0,1,.411.049.136.136,0,0,1,.09.137,1.284,1.284,0,0,1-.093.375c-.16.437-.76,1.942-1.29,3.27-.315.786-.611,1.531-.8,2.005l-1.819-4.8a3.184,3.184,0,0,1-.245-.809.186.186,0,0,1,.08-.168.771.771,0,0,1,.378-.06c.2,0,.236-.095.236-.173,0-.114-.109-.171-.323-.171-.32,0-.634.011-.887.021-.181.007-.336.011-.447.011-.17,0-.386-.007-.626-.015-.3-.008-.628-.018-.946-.018-.134,0-.357,0-.357.171,0,.078.036.173.205.173a1.683,1.683,0,0,1,.4.039c.36.1.531.2.776.781l2.731,6.624c.214.53.285.708.481.708s.261-.165.5-.708l.062-.139c.1-.222.24-.548.421-.964.263-.606.61-1.405,1.022-2.343.24-.548.43-.968.6-1.345.241-.533.45-.993.7-1.594.287-.681.443-.856.569-.942a.872.872,0,0,1,.489-.117c.165,0,.248-.059.248-.173C463.283,231.98,463.065,231.98,462.981,231.98Z" transform="translate(-427.741 -230.329)"/><path class="a" d="M465.185,238.561c-.152,0-.176.135-.192.225-.073.429-.194.631-.447.748a2.74,2.74,0,0,1-.988.122c-1.091,0-1.206-.158-1.226-.84-.008-.222,0-.781,0-1.231,0-.181,0-.339,0-.447v-.856l0-.034c.31,0,1.33.011,1.519.033.409.044.505.21.545.365a1.952,1.952,0,0,1,.034.279c0,.036,0,.07.007.095a.158.158,0,0,0,.171.171c.171,0,.171-.2.171-.28,0-.041.01-.189.021-.349.008-.134.018-.276.023-.37.029-.365.057-.567.073-.675a1.191,1.191,0,0,0,.013-.122.146.146,0,0,0-.15-.161c-.083,0-.137.062-.212.147l-.016.018c-.082.091-.235.119-.471.139-.16.015-.773.021-1.725.031a.155.155,0,0,1,0-.054V232.77l0-.034c.233,0,1.358.023,1.531.042.52.064.6.178.667.346a1.122,1.122,0,0,1,.059.362c0,.15.059.227.171.227.067,0,.152-.031.183-.183.013-.086.028-.313.039-.494.006-.1.011-.187.015-.228a4.726,4.726,0,0,1,.072-.593.725.725,0,0,0,.016-.116c0-.155-.1-.171-.14-.171a.423.423,0,0,0-.13.028c-.02.007-.039.013-.06.018-.09.021-.28.044-.452.062s-1.955.011-2.706.011c-.127,0-.32-.008-.543-.016l-.14,0c-.134,0-.276,0-.422-.007s-.306,0-.456,0c-.1,0-.313,0-.313.171s.194.173.259.173a2.231,2.231,0,0,1,.408.029c.3.064.385.183.408.551.021.344.021.642.021,2.294v1.907c0,.993,0,1.85-.054,2.3-.046.329-.1.5-.256.535a1.735,1.735,0,0,1-.375.042c-.165,0-.248.054-.248.16,0,.083.051.183.292.183.1,0,.225,0,.351-.011s.269-.011.4-.011c.259-.01.5-.01.615-.01h0c.316,0,.642.01,1.126.033l.308.008c.411.01.924.024,1.568.024.413,0,.567,0,.657-.337a8.416,8.416,0,0,0,.143-1.223C465.345,238.724,465.345,238.561,465.185,238.561Z" transform="translate(-424.18 -230.362)"/><path class="a" d="M472.9,239.981a1.734,1.734,0,0,1-.3-.034,2.112,2.112,0,0,1-1.164-.714c-.551-.579-1.179-1.369-1.971-2.37l-.333-.419a3.086,3.086,0,0,0,1.4-2.437,1.948,1.948,0,0,0-.77-1.547,3.539,3.539,0,0,0-2.036-.479c-.165,0-.445.008-.734.016s-.606.016-.8.016c-.086,0-.241,0-.432-.011-.311-.01-.7-.021-1.053-.021-.1,0-.311,0-.311.171s.194.173.258.173a2.233,2.233,0,0,1,.408.029c.3.064.386.183.408.551.021.344.021.642.021,2.294v1.907c0,.993,0,1.85-.052,2.3-.046.329-.1.5-.258.535a1.71,1.71,0,0,1-.375.042c-.163,0-.248.054-.248.16,0,.083.051.183.292.183.258,0,.6-.011.884-.021.192-.007.355-.011.439-.011.055,0,.181,0,.349.008.329.01.827.024,1.246.024.24,0,.29-.1.29-.183s-.054-.16-.2-.16a4.959,4.959,0,0,1-.522-.044c-.261-.034-.326-.205-.359-.531-.054-.45-.054-1.312-.054-2.31l.01-.165.946.021a.153.153,0,0,1,.14.051c.078.091.282.38.518.716.174.248.368.523.551.776a5.217,5.217,0,0,0,1.51,1.614,2.277,2.277,0,0,0,1.2.215h1.03c.077,0,.279,0,.279-.183C473.1,240.063,473.051,239.981,472.9,239.981Zm-3.792-5.434a1.815,1.815,0,0,1-.61,1.567,1.016,1.016,0,0,1-.725.17,2.735,2.735,0,0,1-.8-.1c-.038-.016-.052-.023-.052-.127v-3.295c0-.068.011-.072.044-.082a2.564,2.564,0,0,1,.554-.041C468.113,232.637,469.109,233.04,469.109,234.548Z" transform="translate(-421.229 -230.329)"/><path class="a" d="M473.035,235.306l-.3-.228c-.947-.719-1.12-1.069-1.12-1.5,0-.634.476-1.043,1.216-1.043a1.3,1.3,0,0,1,1.123.5,1.256,1.256,0,0,1,.266.67c0,.223.1.269.183.269.192,0,.192-.249.192-.4,0-.6.023-.926.036-1.122,0-.08.008-.137.008-.179,0-.155-.152-.189-.205-.2a5.31,5.31,0,0,0-1.462-.187c-1.518,0-2.578.872-2.578,2.123a3.326,3.326,0,0,0,1.632,2.628l.5.39c.861.675,1.034,1.141,1.034,1.676a1.25,1.25,0,0,1-1.379,1.162,1.435,1.435,0,0,1-1.479-1.042,2.193,2.193,0,0,1-.095-.533c0-.17-.06-.258-.183-.258-.179,0-.2.254-.2.351l0,.049c-.013.227-.051.825-.051,1.376,0,.266.047.349.249.437a3.793,3.793,0,0,0,1.614.289,3.187,3.187,0,0,0,1.764-.456,2.267,2.267,0,0,0,1.053-1.948C474.845,237.063,474.354,236.3,473.035,235.306Z" transform="translate(-417.599 -230.387)"/><path class="a" d="M477.728,239.981a4.6,4.6,0,0,1-.543-.044c-.272-.036-.339-.184-.37-.465-.042-.463-.042-1.3-.042-2.367V235.2c0-1.651,0-1.95.021-2.294.021-.373.1-.507.339-.549a1.76,1.76,0,0,1,.313-.031c.165,0,.248-.062.248-.183,0-.161-.218-.161-.3-.161-.228,0-.528.01-.792.02-.215.007-.409.013-.53.013-.147,0-.372-.007-.613-.015-.284-.01-.576-.018-.8-.018-.108,0-.334,0-.334.161,0,.121.083.183.248.183a1.459,1.459,0,0,1,.373.041c.148.033.287.122.311.54.021.344.021.642.021,2.294v1.907c0,1.063,0,1.9-.052,2.356-.034.326-.1.447-.258.478a1.733,1.733,0,0,1-.373.042c-.165,0-.248.054-.248.16,0,.083.05.183.29.183s.572-.011.857-.02c.214-.007.4-.013.509-.013s.287,0,.5.011c.337.008.756.021,1.193.021.253,0,.28-.129.28-.183S477.944,239.981,477.728,239.981Z" transform="translate(-414.975 -230.329)"/><path class="a" d="M484.316,231.964a1.219,1.219,0,0,0-.2.033l-.121.024a5.144,5.144,0,0,1-.717.051h-4.294c-.339,0-.752-.021-1.078-.054a.9.9,0,0,1-.323-.088.388.388,0,0,0-.148-.042c-.142,0-.179.165-.2.262-.018.068-.23,1.078-.23,1.263,0,.068,0,.248.171.248.144,0,.179-.14.192-.186a1.128,1.128,0,0,1,.173-.355c.135-.2.349-.261.993-.284l1.539-.041v4.369c0,.993,0,1.85-.054,2.3-.036.354-.108.5-.256.533a1.734,1.734,0,0,1-.375.042c-.165,0-.248.054-.248.16,0,.083.051.183.29.183s.574-.011.859-.02c.214-.006.4-.013.507-.013s.3,0,.514.011c.336.01.755.021,1.189.021.253,0,.28-.129.28-.183s-.033-.16-.248-.16a4.656,4.656,0,0,1-.543-.044c-.259-.034-.324-.2-.359-.52-.054-.461-.054-1.319-.054-2.312V232.8l1.29.031c.742.016,1.182.214,1.208.541l.01.116c.008.121.02.285.194.285.147,0,.163-.166.171-.246,0-.148.008-.426.016-.688.008-.238.016-.461.016-.569C484.478,232.13,484.478,231.964,484.316,231.964Z" transform="translate(-413.289 -230.387)"/><path class="a" d="M490.188,231.98c-.1,0-.318.007-.544.015-.243.01-.492.018-.616.018-.15,0-.308-.008-.473-.015s-.359-.018-.546-.018c-.077,0-.258,0-.258.171,0,.124.139.155.253.181a.187.187,0,0,1,.17.2,1.353,1.353,0,0,1-.145.533c-.073.165-.453.846-.82,1.5-.313.559-.611,1.1-.743,1.35l-.127-.22c-.455-.787-1.519-2.63-1.645-2.9a1.034,1.034,0,0,1-.122-.336.124.124,0,0,1,.1-.124l.055-.015c.134-.034.238-.06.238-.176,0-.051-.023-.171-.236-.171-.292,0-.569.011-.791.021-.152.007-.279.011-.37.011-.205,0-.554-.01-.864-.02-.223-.008-.419-.013-.5-.013-.253,0-.28.121-.28.171s.025.173.238.173a1.027,1.027,0,0,1,.417.13,2.573,2.573,0,0,1,.724.768c.386.574,1.831,2.951,1.9,3.117a2.208,2.208,0,0,1,.241,1.1v.888c0,.171,0,.628-.032,1.079-.016.22-.075.489-.279.53a1.719,1.719,0,0,1-.364.042c-.215,0-.248.1-.248.16,0,.183.22.183.313.183.222,0,.53-.01.8-.02.227-.007.43-.013.553-.013s.292,0,.505.011c.329.01.74.021,1.154.021.25,0,.3-.1.3-.183,0-.06-.033-.16-.248-.16a4.574,4.574,0,0,1-.533-.044c-.246-.033-.355-.186-.38-.528-.033-.452-.033-.908-.033-1.079v-.888a2.54,2.54,0,0,1,.156-1.055,34.745,34.745,0,0,1,2.061-3.43,1.536,1.536,0,0,1,.562-.512,1.106,1.106,0,0,1,.442-.121c.253,0,.28-.129.28-.183C490.457,232.034,490.366,231.98,490.188,231.98Z" transform="translate(-410.19 -230.329)"/><path class="a" d="M492.984,234.907l-.349-.262c-1.089-.827-1.288-1.231-1.288-1.728,0-.729.549-1.2,1.4-1.2a1.505,1.505,0,0,1,1.293.579,1.435,1.435,0,0,1,.3.769c0,.256.114.311.21.311.222,0,.222-.289.222-.461,0-.688.025-1.065.039-1.288.007-.093.011-.158.011-.207,0-.179-.174-.218-.236-.232a6.123,6.123,0,0,0-1.682-.215c-1.746,0-2.966,1-2.966,2.441,0,1.089.562,1.994,1.878,3.023l.574.45c.991.774,1.19,1.312,1.19,1.927A1.439,1.439,0,0,1,492,240.152a1.649,1.649,0,0,1-1.7-1.2,2.6,2.6,0,0,1-.108-.613c0-.2-.072-.3-.21-.3-.207,0-.227.292-.235.4l0,.029c-.015.235-.06.952-.06,1.609,0,.306.054.4.287.5a4.35,4.35,0,0,0,1.855.331,3.648,3.648,0,0,0,2.028-.525,2.606,2.606,0,0,0,1.213-2.24C495.064,236.927,494.5,236.047,492.984,234.907Z" transform="translate(-405.297 -230.962)"/><path class="a" d="M501.587,231.98c-.1,0-.318.007-.545.015s-.492.018-.615.018c-.152,0-.31-.008-.474-.015s-.359-.018-.545-.018c-.078,0-.259,0-.259.171,0,.124.139.155.253.181a.187.187,0,0,1,.169.2,1.36,1.36,0,0,1-.145.533c-.073.163-.45.84-.814,1.492-.316.566-.618,1.107-.75,1.363l-.129-.223c-.453-.786-1.518-2.626-1.643-2.894a1.048,1.048,0,0,1-.122-.336.124.124,0,0,1,.1-.124l.057-.015c.132-.034.236-.062.236-.176,0-.051-.023-.171-.236-.171-.292,0-.569.011-.791.021-.152.007-.279.011-.37.011-.2,0-.554-.01-.862-.02-.225-.008-.421-.013-.5-.013-.251,0-.279.121-.279.171s.023.173.235.173a1.026,1.026,0,0,1,.419.13,2.574,2.574,0,0,1,.724.768c.388.576,1.832,2.952,1.9,3.114a2.24,2.24,0,0,1,.241,1.105v.888c0,.171,0,.628-.033,1.079-.015.22-.075.489-.279.53a1.668,1.668,0,0,1-.364.042c-.215,0-.248.1-.248.16,0,.183.22.183.313.183.222,0,.53-.01.8-.02.225-.007.43-.013.551-.013s.292,0,.505.011c.329.01.74.021,1.154.021.249,0,.3-.1.3-.183,0-.06-.033-.16-.248-.16a4.573,4.573,0,0,1-.533-.044c-.246-.033-.355-.186-.38-.528-.033-.452-.033-.908-.033-1.079v-.888a2.54,2.54,0,0,1,.156-1.055,35.066,35.066,0,0,1,2.061-3.43,1.561,1.561,0,0,1,.562-.512,1.113,1.113,0,0,1,.442-.121c.253,0,.28-.129.28-.183Q501.856,231.98,501.587,231.98Z" transform="translate(-403.005 -230.329)"/><path class="a" d="M501.967,235.306l-.3-.228c-.947-.717-1.12-1.069-1.12-1.5,0-.634.478-1.043,1.216-1.043a1.3,1.3,0,0,1,1.123.5,1.241,1.241,0,0,1,.266.67c0,.223.1.269.183.269.194,0,.194-.249.194-.4,0-.6.021-.926.034-1.122,0-.08.008-.137.008-.179,0-.155-.152-.189-.205-.2a5.311,5.311,0,0,0-1.462-.187c-1.518,0-2.577.872-2.577,2.123a3.326,3.326,0,0,0,1.632,2.628l.5.39c.861.675,1.035,1.141,1.035,1.676a1.251,1.251,0,0,1-1.379,1.162,1.436,1.436,0,0,1-1.48-1.042,2.278,2.278,0,0,1-.094-.533c0-.17-.06-.258-.181-.258-.179,0-.2.254-.205.352l0,.059c-.013.225-.051.823-.051,1.365,0,.266.047.349.25.437a3.793,3.793,0,0,0,1.614.289,3.183,3.183,0,0,0,1.764-.456,2.267,2.267,0,0,0,1.053-1.948C503.775,237.062,503.284,236.3,501.967,235.306Z" transform="translate(-399.364 -230.387)"/><path class="a" d="M509.736,231.964a1.206,1.206,0,0,0-.2.033l-.121.024a5.151,5.151,0,0,1-.719.051H504.4c-.339,0-.752-.021-1.079-.054a.915.915,0,0,1-.324-.088.373.373,0,0,0-.147-.042c-.142,0-.179.165-.2.262-.016.065-.23,1.073-.23,1.263,0,.068,0,.248.171.248.145,0,.179-.14.191-.186a1.193,1.193,0,0,1,.174-.355c.135-.2.349-.261.993-.284l1.539-.041v4.369c0,.993,0,1.85-.054,2.3-.038.354-.109.5-.256.533a1.737,1.737,0,0,1-.377.042c-.163,0-.246.054-.246.16,0,.083.051.183.29.183s.572-.011.859-.02c.214-.006.4-.013.507-.013s.3,0,.514.011c.336.01.755.021,1.188.021.253,0,.28-.129.28-.183s-.033-.16-.248-.16A4.63,4.63,0,0,1,507.4,240c-.259-.034-.324-.2-.36-.52-.052-.461-.052-1.319-.052-2.312V232.8l1.29.031c.742.016,1.182.214,1.208.541l.011.116c.007.121.016.285.192.285.147,0,.163-.168.171-.246,0-.148.008-.426.018-.688.007-.238.015-.461.015-.569C509.9,232.13,509.9,231.964,509.736,231.964Z" transform="translate(-397.267 -230.387)"/><path class="a" d="M513.123,238.561c-.152,0-.176.135-.192.225-.073.429-.194.631-.447.748a2.732,2.732,0,0,1-.988.122c-1.092,0-1.206-.158-1.226-.84-.008-.222,0-.781,0-1.231,0-.181,0-.339,0-.447v-.89c.307,0,1.33.011,1.523.033.408.044.5.21.543.365a1.992,1.992,0,0,1,.034.28c0,.036,0,.07.007.093a.16.16,0,0,0,.173.171c.171,0,.171-.2.171-.28,0-.041.01-.191.02-.354.01-.132.018-.271.023-.365.029-.367.059-.567.073-.675a1.194,1.194,0,0,0,.013-.122.146.146,0,0,0-.15-.161c-.083,0-.139.062-.214.15l-.015.015c-.08.091-.233.119-.471.139-.158.015-.773.021-1.725.029a.127.127,0,0,1,0-.052V232.77l0-.034c.233,0,1.358.023,1.531.042.52.064.6.178.667.346a1.08,1.08,0,0,1,.059.362c0,.15.059.227.171.227.067,0,.153-.031.183-.181.015-.09.028-.32.039-.5.007-.1.011-.179.015-.22a4.657,4.657,0,0,1,.072-.593.733.733,0,0,0,.016-.116c0-.155-.1-.171-.14-.171a.433.433,0,0,0-.13.028c-.02.007-.039.013-.06.018-.088.021-.28.044-.452.062s-1.955.011-2.706.011c-.127,0-.321-.008-.546-.016l-.137,0c-.132,0-.276,0-.421-.007s-.308,0-.458,0c-.1,0-.313,0-.313.171s.2.173.259.173a2.232,2.232,0,0,1,.408.029c.3.064.386.183.408.551.021.344.021.642.021,2.294v1.907c0,.993,0,1.85-.054,2.3-.044.329-.1.5-.256.535a1.737,1.737,0,0,1-.375.042c-.165,0-.248.054-.248.16,0,.083.05.183.292.183.1,0,.227,0,.35-.011s.269-.011.4-.011c.259-.01.5-.01.615-.01h0c.315,0,.641.01,1.125.033l.308.008c.411.01.924.024,1.57.024.411,0,.566,0,.657-.337a8.632,8.632,0,0,0,.143-1.223C513.284,238.724,513.284,238.561,513.123,238.561Z" transform="translate(-393.965 -230.362)"/><path class="a" d="M523.069,240.073a2.114,2.114,0,0,1-.651-.106c-.266-.08-.377-.321-.479-1.035l-.986-6.7c-.015-.1-.057-.4-.269-.4-.153,0-.227.145-.3.3l-2.882,6.052-2.892-5.977c-.145-.289-.23-.377-.36-.377-.09,0-.207.059-.258.344l-1.073,7.069h0c-.055.381-.142.742-.385.794a1.28,1.28,0,0,1-.311.033c-.205,0-.248.08-.248.148,0,.088.047.194.269.194.2,0,.448-.011.67-.02.166-.007.315-.013.4-.013s.2,0,.346.011c.23.01.515.021.792.021.1,0,.334,0,.334-.194,0-.034-.018-.148-.237-.148a2.081,2.081,0,0,1-.438-.052c-.241-.059-.269-.186-.269-.276a4.189,4.189,0,0,1,.033-.5l.539-4.136c.129.276.281.6.426.9.292.618.567,1.2.628,1.343.129.3.973,1.937,1.251,2.467l.036.07c.176.329.274.512.408.512.15,0,.212-.126.468-.65l2.291-4.77.626,4.6c.047.328-.006.386-.006.386-.052.021-.166.07-.166.189,0,.147.173.174.381.192.432.033,1.914.065,2.207.065.31,0,.355-.122.355-.194C523.317,240.073,523.138,240.073,523.069,240.073Z" transform="translate(-391.249 -230.421)"/></g></g></g></g></svg>